RangeenColr0.ttf.ufo
<glyph name="percent" format="2">
  <advance width="556"/>
  <unicode hex="0025"/>
  <outline>
    <contour>
      <point x="460" y="402"/>
      <point x="396" y="402"/>
      <point x="355" y="351"/>
      <point x="355" y="283"/>
      <point x="396" y="232"/>
      <point x="460" y="232"/>
      <point x="501" y="283"/>
      <point x="501" y="351"/>
    </contour>
    <contour>
      <point x="463" y="227"/>
      <point x="393" y="227"/>
      <point x="350" y="281"/>
      <point x="350" y="353"/>
      <point x="393" y="407"/>
      <point x="463" y="407"/>
      <point x="506" y="353"/>
      <point x="506" y="281"/>
    </contour>
    <contour>
      <point x="428" y="353" type="qcurve"/>
      <point x="418" y="353"/>
      <point x="404" y="330"/>
      <point x="404" y="317" type="qcurve"/>
      <point x="404" y="303"/>
      <point x="417" y="281"/>
      <point x="428" y="281" type="qcurve"/>
      <point x="438" y="281"/>
      <point x="452" y="304"/>
      <point x="452" y="317" type="qcurve"/>
      <point x="452" y="331"/>
      <point x="439" y="353"/>
    </contour>
    <contour>
      <point x="441" y="276"/>
      <point x="415" y="276"/>
      <point x="399" y="301"/>
      <point x="399" y="333"/>
      <point x="415" y="358"/>
      <point x="441" y="358"/>
      <point x="457" y="333"/>
      <point x="457" y="301"/>
    </contour>
    <contour>
      <point x="160" y="702"/>
      <point x="96" y="702"/>
      <point x="55" y="651"/>
      <point x="55" y="583"/>
      <point x="96" y="532"/>
      <point x="160" y="532"/>
      <point x="201" y="583"/>
      <point x="201" y="651"/>
    </contour>
    <contour>
      <point x="163" y="527"/>
      <point x="93" y="527"/>
      <point x="50" y="581"/>
      <point x="50" y="653"/>
      <point x="93" y="707"/>
      <point x="163" y="707"/>
      <point x="206" y="653"/>
      <point x="206" y="581"/>
    </contour>
    <contour>
      <point x="128" y="653" type="qcurve"/>
      <point x="118" y="653"/>
      <point x="104" y="630"/>
      <point x="104" y="617" type="qcurve"/>
      <point x="104" y="603"/>
      <point x="117" y="581"/>
      <point x="128" y="581" type="qcurve"/>
      <point x="138" y="581"/>
      <point x="152" y="604"/>
      <point x="152" y="617" type="qcurve"/>
      <point x="152" y="631"/>
      <point x="139" y="653"/>
    </contour>
    <contour>
      <point x="141" y="576"/>
      <point x="115" y="576"/>
      <point x="99" y="601"/>
      <point x="99" y="633"/>
      <point x="115" y="658"/>
      <point x="141" y="658"/>
      <point x="157" y="633"/>
      <point x="157" y="601"/>
    </contour>
    <contour>
      <point x="441" y="647" type="qcurve"/>
      <point x="441" y="656"/>
      <point x="428" y="669"/>
      <point x="419" y="669" type="qcurve"/>
      <point x="407" y="669"/>
      <point x="401" y="660" type="qcurve"/>
      <point x="71" y="195" type="line"/>
      <point x="67" y="190"/>
      <point x="67" y="182" type="qcurve"/>
      <point x="67" y="173"/>
      <point x="80" y="160"/>
      <point x="89" y="160" type="qcurve"/>
      <point x="101" y="160"/>
      <point x="107" y="169" type="qcurve"/>
      <point x="437" y="634" type="line"/>
      <point x="441" y="639"/>
    </contour>
    <contour>
      <point x="89" y="155" type="qcurve"/>
      <point x="78" y="155"/>
      <point x="62" y="171"/>
      <point x="62" y="182" type="qcurve"/>
      <point x="62" y="190"/>
      <point x="67" y="198" type="qcurve"/>
      <point x="397" y="663" type="line"/>
      <point x="405" y="674"/>
      <point x="419" y="674" type="qcurve"/>
      <point x="430" y="674"/>
      <point x="446" y="658"/>
      <point x="446" y="647" type="qcurve"/>
      <point x="446" y="639"/>
      <point x="441" y="631" type="qcurve"/>
      <point x="111" y="166" type="line"/>
      <point x="103" y="155"/>
    </contour>
  </outline>
</glyph>
<glyph name="asterisk" format="2">
  <advance width="386"/>
  <unicode hex="002A"/>
  <outline>
    <contour>
      <point x="200" y="636"/>
      <point x="182" y="636"/>
      <point x="169" y="623"/>
      <point x="169" y="614" type="qcurve"/>
      <point x="170" y="512" type="line"/>
      <point x="170" y="509"/>
      <point x="167" y="509" type="qcurve"/>
      <point x="166" y="510" type="line"/>
      <point x="93" y="581" type="line"/>
      <point x="87" y="587"/>
      <point x="77" y="587" type="qcurve"/>
      <point x="68" y="587"/>
      <point x="55" y="574"/>
      <point x="55" y="565" type="qcurve"/>
      <point x="55" y="555"/>
      <point x="61" y="549" type="qcurve"/>
      <point x="159" y="453" type="line"/>
      <point x="160" y="453"/>
      <point x="160" y="452" type="qcurve"/>
      <point x="159" y="450" type="line"/>
      <point x="63" y="352" type="line"/>
      <point x="57" y="346"/>
      <point x="57" y="336" type="qcurve"/>
      <point x="57" y="327"/>
      <point x="70" y="314"/>
      <point x="79" y="314" type="qcurve"/>
      <point x="89" y="314"/>
      <point x="95" y="320" type="qcurve"/>
      <point x="167" y="393" type="line"/>
      <point x="168" y="394"/>
      <point x="169" y="394" type="qcurve"/>
      <point x="171" y="394"/>
      <point x="171" y="392" type="qcurve"/>
      <point x="173" y="290" type="line"/>
      <point x="173" y="281"/>
      <point x="186" y="268"/>
      <point x="204" y="268"/>
      <point x="217" y="281"/>
      <point x="217" y="290" type="qcurve"/>
      <point x="216" y="392" type="line"/>
      <point x="216" y="395"/>
      <point x="219" y="395" type="qcurve"/>
      <point x="220" y="394" type="line"/>
      <point x="293" y="323" type="line"/>
      <point x="299" y="317"/>
      <point x="309" y="317" type="qcurve"/>
      <point x="318" y="317"/>
      <point x="331" y="330"/>
      <point x="331" y="339" type="qcurve"/>
      <point x="331" y="349"/>
      <point x="325" y="355" type="qcurve"/>
      <point x="227" y="451" type="line"/>
      <point x="226" y="451"/>
      <point x="226" y="452" type="qcurve"/>
      <point x="227" y="454" type="line"/>
      <point x="323" y="552" type="line"/>
      <point x="329" y="558"/>
      <point x="329" y="568" type="qcurve"/>
      <point x="329" y="577"/>
      <point x="316" y="590"/>
      <point x="307" y="590" type="qcurve"/>
      <point x="297" y="590"/>
      <point x="291" y="584" type="qcurve"/>
      <point x="219" y="511" type="line"/>
      <point x="218" y="510"/>
      <point x="217" y="510" type="qcurve"/>
      <point x="215" y="510"/>
      <point x="215" y="512" type="qcurve"/>
      <point x="213" y="614" type="line"/>
      <point x="213" y="623"/>
    </contour>
    <contour>
      <point x="164" y="614" type="line"/>
      <point x="164" y="625"/>
      <point x="180" y="641"/>
      <point x="202" y="641"/>
      <point x="218" y="625"/>
      <point x="218" y="614" type="qcurve"/>
      <point x="220" y="518" type="line"/>
      <point x="288" y="587" type="line"/>
      <point x="296" y="595"/>
      <point x="318" y="595"/>
      <point x="334" y="579"/>
      <point x="334" y="568" type="qcurve"/>
      <point x="334" y="556"/>
      <point x="327" y="549" type="qcurve"/>
      <point x="232" y="452" type="line"/>
      <point x="328" y="358" type="line"/>
      <point x="336" y="350"/>
      <point x="336" y="328"/>
      <point x="320" y="312"/>
      <point x="309" y="312" type="qcurve"/>
      <point x="297" y="312"/>
      <point x="290" y="319" type="qcurve"/>
      <point x="221" y="386" type="line"/>
      <point x="222" y="290" type="line"/>
      <point x="222" y="279"/>
      <point x="206" y="263"/>
      <point x="184" y="263"/>
      <point x="168" y="279"/>
      <point x="168" y="290" type="qcurve"/>
      <point x="166" y="386" type="line"/>
      <point x="98" y="317" type="line"/>
      <point x="90" y="309"/>
      <point x="68" y="309"/>
      <point x="52" y="325"/>
      <point x="52" y="336" type="qcurve"/>
      <point x="52" y="348"/>
      <point x="59" y="355" type="qcurve"/>
      <point x="154" y="452" type="line"/>
      <point x="58" y="546" type="line"/>
      <point x="50" y="554"/>
      <point x="50" y="576"/>
      <point x="66" y="592"/>
      <point x="77" y="592" type="qcurve"/>
      <point x="89" y="592"/>
      <point x="96" y="585" type="qcurve"/>
      <point x="165" y="518" type="line"/>
    </contour>
  </outline>
</glyph>
<glyph name="plus" format="2">
  <advance width="434"/>
  <unicode hex="002B"/>
  <outline>
    <contour>
      <point x="55" y="420"/>
      <point x="55" y="402"/>
      <point x="68" y="389"/>
      <point x="77" y="389" type="qcurve"/>
      <point x="184" y="389" type="line"/>
      <point x="187" y="389"/>
      <point x="187" y="386" type="qcurve"/>
      <point x="187" y="273" type="line"/>
      <point x="187" y="264"/>
      <point x="200" y="251"/>
      <point x="218" y="251"/>
      <point x="231" y="264"/>
      <point x="231" y="273" type="qcurve"/>
      <point x="231" y="386" type="line"/>
      <point x="231" y="389"/>
      <point x="234" y="389" type="qcurve"/>
      <point x="357" y="389" type="line"/>
      <point x="366" y="389"/>
      <point x="379" y="402"/>
      <point x="379" y="420"/>
      <point x="366" y="433"/>
      <point x="357" y="433" type="qcurve"/>
      <point x="234" y="433" type="line"/>
      <point x="231" y="433"/>
      <point x="231" y="436" type="qcurve"/>
      <point x="231" y="554" type="line"/>
      <point x="231" y="563"/>
      <point x="218" y="576"/>
      <point x="200" y="576"/>
      <point x="187" y="563"/>
      <point x="187" y="554" type="qcurve"/>
      <point x="187" y="436" type="line"/>
      <point x="187" y="433"/>
      <point x="184" y="433" type="qcurve"/>
      <point x="77" y="433" type="line"/>
      <point x="68" y="433"/>
    </contour>
    <contour>
      <point x="220" y="246"/>
      <point x="198" y="246"/>
      <point x="182" y="262"/>
      <point x="182" y="273" type="qcurve"/>
      <point x="182" y="384" type="line"/>
      <point x="77" y="384" type="line"/>
      <point x="66" y="384"/>
      <point x="50" y="400"/>
      <point x="50" y="422"/>
      <point x="66" y="438"/>
      <point x="77" y="438" type="qcurve"/>
      <point x="182" y="438" type="line"/>
      <point x="182" y="554" type="line"/>
      <point x="182" y="565"/>
      <point x="198" y="581"/>
      <point x="220" y="581"/>
      <point x="236" y="565"/>
      <point x="236" y="554" type="qcurve"/>
      <point x="236" y="438" type="line"/>
      <point x="357" y="438" type="line"/>
      <point x="368" y="438"/>
      <point x="384" y="422"/>
      <point x="384" y="400"/>
      <point x="368" y="384"/>
      <point x="357" y="384" type="qcurve"/>
      <point x="236" y="384" type="line"/>
      <point x="236" y="273" type="line"/>
      <point x="236" y="262"/>
    </contour>
  </outline>
</glyph>
<glyph name="comma" format="2">
  <advance width="190"/>
  <unicode hex="002C"/>
  <outline>
    <contour>
      <point x="135" y="-7" type="qcurve"/>
      <point x="135" y="13"/>
      <point x="118" y="48"/>
      <point x="103" y="48" type="qcurve"/>
      <point x="94" y="48"/>
      <point x="81" y="35"/>
      <point x="81" y="26" type="qcurve"/>
      <point x="81" y="22"/>
      <point x="91" y="-1"/>
      <point x="91" y="-7" type="qcurve"/>
      <point x="91" y="-20"/>
      <point x="55" y="-53"/>
      <point x="55" y="-64" type="qcurve"/>
      <point x="55" y="-73"/>
      <point x="68" y="-86"/>
      <point x="77" y="-86" type="qcurve"/>
      <point x="96" y="-86"/>
      <point x="135" y="-31"/>
    </contour>
    <contour>
      <point x="85" y="-7" type="qcurve"/>
      <point x="84" y="-1"/>
      <point x="76" y="20"/>
      <point x="76" y="26" type="qcurve"/>
      <point x="76" y="37"/>
      <point x="92" y="53"/>
      <point x="103" y="53" type="qcurve"/>
      <point x="120" y="53"/>
      <point x="140" y="16"/>
      <point x="140" y="-7" type="qcurve"/>
      <point x="140" y="-33"/>
      <point x="98" y="-91"/>
      <point x="77" y="-91" type="qcurve"/>
      <point x="66" y="-91"/>
      <point x="50" y="-75"/>
      <point x="50" y="-64" type="qcurve"/>
      <point x="50" y="-51"/>
      <point x="83" y="-18"/>
    </contour>
  </outline>
</glyph>
<glyph name="four" format="2">
  <advance width="474"/>
  <unicode hex="0034"/>
  <outline>
    <contour>
      <point x="123" y="27" type="line"/>
      <point x="266" y="27" type="line"/>
      <point x="266" y="300" type="line"/>
    </contour>
    <contour>
      <point x="268" y="22" type="qcurve"/>
      <point x="118" y="22" type="line"/>
      <point x="116" y="22"/>
      <point x="116" y="25" type="qcurve"/>
      <point x="116" y="26" type="line"/>
      <point x="266" y="311" type="line"/>
      <point x="266" y="312"/>
      <point x="268" y="312" type="qcurve"/>
      <point x="271" y="312"/>
      <point x="271" y="310" type="qcurve"/>
      <point x="271" y="25" type="line"/>
      <point x="271" y="22"/>
    </contour>
    <contour>
      <point x="318" y="-206" type="qcurve"/>
      <point x="320" y="-206"/>
      <point x="335" y="-221"/>
      <point x="341" y="-221" type="qcurve"/>
      <point x="350" y="-221"/>
      <point x="363" y="-208"/>
      <point x="363" y="-190"/>
      <point x="350" y="-177"/>
      <point x="341" y="-177" type="qcurve"/>
      <point x="335" y="-177"/>
      <point x="320" y="-192"/>
      <point x="318" y="-192" type="qcurve"/>
      <point x="315" y="-192"/>
      <point x="315" y="-189" type="qcurve"/>
      <point x="315" y="-25" type="line"/>
      <point x="315" y="-22"/>
      <point x="318" y="-22" type="qcurve"/>
      <point x="397" y="-22" type="line"/>
      <point x="406" y="-22"/>
      <point x="419" y="-9"/>
      <point x="419" y="9"/>
      <point x="406" y="22"/>
      <point x="397" y="22" type="qcurve"/>
      <point x="318" y="22" type="line"/>
      <point x="315" y="22"/>
      <point x="315" y="25" type="qcurve"/>
      <point x="315" y="411" type="line"/>
      <point x="315" y="420"/>
      <point x="302" y="433"/>
      <point x="293" y="433" type="qcurve"/>
      <point x="280" y="433"/>
      <point x="273" y="421" type="qcurve"/>
      <point x="57" y="10" type="line"/>
      <point x="55" y="7"/>
      <point x="55" y="0" type="qcurve"/>
      <point x="55" y="-9"/>
      <point x="68" y="-22"/>
      <point x="77" y="-22" type="qcurve"/>
      <point x="268" y="-22" type="line"/>
      <point x="271" y="-22"/>
      <point x="271" y="-25" type="qcurve"/>
      <point x="271" y="-205" type="line"/>
      <point x="271" y="-214"/>
      <point x="284" y="-227"/>
      <point x="293" y="-227" type="qcurve"/>
      <point x="301" y="-227"/>
      <point x="317" y="-206"/>
    </contour>
    <contour>
      <point x="424" y="11"/>
      <point x="424" y="-11"/>
      <point x="408" y="-27"/>
      <point x="397" y="-27" type="qcurve"/>
      <point x="320" y="-27" type="line"/>
      <point x="320" y="-181" type="line"/>
      <point x="328" y="-172"/>
      <point x="341" y="-172" type="qcurve"/>
      <point x="352" y="-172"/>
      <point x="368" y="-188"/>
      <point x="368" y="-210"/>
      <point x="352" y="-226"/>
      <point x="341" y="-226" type="qcurve"/>
      <point x="327" y="-226"/>
      <point x="319" y="-215" type="qcurve"/>
      <point x="312" y="-232"/>
      <point x="293" y="-232" type="qcurve"/>
      <point x="282" y="-232"/>
      <point x="266" y="-216"/>
      <point x="266" y="-205" type="qcurve"/>
      <point x="266" y="-27" type="line"/>
      <point x="77" y="-27" type="line"/>
      <point x="66" y="-27"/>
      <point x="50" y="-11"/>
      <point x="50" y="0" type="qcurve"/>
      <point x="50" y="7"/>
      <point x="53" y="13" type="qcurve"/>
      <point x="269" y="424" type="line"/>
      <point x="276" y="438"/>
      <point x="293" y="438" type="qcurve"/>
      <point x="304" y="438"/>
      <point x="320" y="422"/>
      <point x="320" y="411" type="qcurve"/>
      <point x="320" y="27" type="line"/>
      <point x="397" y="27" type="line"/>
      <point x="408" y="27"/>
    </contour>
  </outline>
</glyph>
<glyph name="seven" format="2">
  <advance width="338"/>
  <unicode hex="0037"/>
  <outline>
    <contour>
      <point x="55" y="420"/>
      <point x="55" y="402"/>
      <point x="68" y="389"/>
      <point x="77" y="389" type="qcurve"/>
      <point x="227" y="389" type="line"/>
      <point x="230" y="389"/>
      <point x="230" y="386" type="qcurve"/>
      <point x="230" y="385" type="line"/>
      <point x="55" y="-191" type="line"/>
      <point x="55" y="-198" type="line"/>
      <point x="55" y="-207"/>
      <point x="68" y="-220"/>
      <point x="77" y="-220" type="qcurve"/>
      <point x="94" y="-220"/>
      <point x="99" y="-205" type="qcurve"/>
      <point x="283" y="404" type="line"/>
      <point x="283" y="411" type="line"/>
      <point x="283" y="420"/>
      <point x="270" y="433"/>
      <point x="261" y="433" type="qcurve"/>
      <point x="77" y="433" type="line"/>
      <point x="68" y="433"/>
    </contour>
    <contour>
      <point x="77" y="-225" type="qcurve"/>
      <point x="66" y="-225"/>
      <point x="50" y="-209"/>
      <point x="50" y="-198" type="qcurve"/>
      <point x="50" y="-193"/>
      <point x="51" y="-190" type="qcurve"/>
      <point x="224" y="384" type="line"/>
      <point x="77" y="384" type="line"/>
      <point x="66" y="384"/>
      <point x="50" y="400"/>
      <point x="50" y="422"/>
      <point x="66" y="438"/>
      <point x="77" y="438" type="qcurve"/>
      <point x="261" y="438" type="line"/>
      <point x="272" y="438"/>
      <point x="288" y="422"/>
      <point x="288" y="411" type="qcurve"/>
      <point x="288" y="406"/>
      <point x="287" y="403" type="qcurve"/>
      <point x="103" y="-206" type="line"/>
      <point x="98" y="-225"/>
    </contour>
  </outline>
</glyph>
<glyph name="bracketleft" format="2">
  <advance width="256"/>
  <unicode hex="005B"/>
  <outline>
    <contour>
      <point x="201" y="-211"/>
      <point x="201" y="-193"/>
      <point x="188" y="-180"/>
      <point x="179" y="-180" type="qcurve"/>
      <point x="102" y="-180" type="line"/>
      <point x="99" y="-180"/>
      <point x="99" y="-177" type="qcurve"/>
      <point x="99" y="793" type="line"/>
      <point x="99" y="796"/>
      <point x="102" y="796" type="qcurve"/>
      <point x="179" y="796" type="line"/>
      <point x="188" y="796"/>
      <point x="201" y="809"/>
      <point x="201" y="827"/>
      <point x="188" y="840"/>
      <point x="179" y="840" type="qcurve"/>
      <point x="77" y="840" type="line"/>
      <point x="68" y="840"/>
      <point x="55" y="827"/>
      <point x="55" y="818" type="qcurve"/>
      <point x="55" y="-202" type="line"/>
      <point x="55" y="-211"/>
      <point x="68" y="-224"/>
      <point x="77" y="-224" type="qcurve"/>
      <point x="179" y="-224" type="line"/>
      <point x="188" y="-224"/>
    </contour>
    <contour>
      <point x="206" y="829"/>
      <point x="206" y="807"/>
      <point x="190" y="791"/>
      <point x="179" y="791" type="qcurve"/>
      <point x="104" y="791" type="line"/>
      <point x="104" y="-175" type="line"/>
      <point x="179" y="-175" type="line"/>
      <point x="190" y="-175"/>
      <point x="206" y="-191"/>
      <point x="206" y="-213"/>
      <point x="190" y="-229"/>
      <point x="179" y="-229" type="qcurve"/>
      <point x="77" y="-229" type="line"/>
      <point x="66" y="-229"/>
      <point x="50" y="-213"/>
      <point x="50" y="-202" type="qcurve"/>
      <point x="50" y="818" type="line"/>
      <point x="50" y="829"/>
      <point x="66" y="845"/>
      <point x="77" y="845" type="qcurve"/>
      <point x="179" y="845" type="line"/>
      <point x="190" y="845"/>
    </contour>
  </outline>
</glyph>
<glyph name="underscore" format="2">
  <advance width="698"/>
  <unicode hex="005F"/>
  <outline>
    <contour>
      <point x="77" y="-179" type="line"/>
      <point x="68" y="-179"/>
      <point x="55" y="-192"/>
      <point x="55" y="-210"/>
      <point x="68" y="-223"/>
      <point x="77" y="-223" type="qcurve"/>
      <point x="621" y="-229" type="line"/>
      <point x="630" y="-229"/>
      <point x="643" y="-216"/>
      <point x="643" y="-198"/>
      <point x="630" y="-185"/>
      <point x="621" y="-185" type="qcurve"/>
    </contour>
    <contour>
      <point x="648" y="-196"/>
      <point x="648" y="-218"/>
      <point x="632" y="-234"/>
      <point x="621" y="-234" type="qcurve"/>
      <point x="77" y="-228" type="line"/>
      <point x="66" y="-228"/>
      <point x="50" y="-212"/>
      <point x="50" y="-190"/>
      <point x="66" y="-174"/>
      <point x="77" y="-174" type="qcurve"/>
      <point x="621" y="-180" type="line"/>
      <point x="632" y="-180"/>
    </contour>
  </outline>
</glyph>
<glyph name="c" format="2">
  <advance width="549"/>
  <unicode hex="0063"/>
  <outline>
    <contour>
      <point x="349" y="369" type="qcurve"/>
      <point x="349" y="367"/>
      <point x="350" y="362"/>
      <point x="350" y="361" type="qcurve"/>
      <point x="351" y="361" type="line"/>
      <point x="351" y="362" type="line"/>
      <point x="351" y="363"/>
    </contour>
    <contour>
      <point x="348" y="355" type="qcurve"/>
      <point x="344" y="355"/>
      <point x="344" y="374" type="qcurve"/>
      <point x="344" y="385"/>
      <point x="347" y="385" type="qcurve"/>
      <point x="349" y="385"/>
      <point x="354" y="373"/>
      <point x="355" y="368" type="qcurve"/>
      <point x="356" y="362" type="line"/>
      <point x="356" y="355"/>
    </contour>
    <contour>
      <point x="289" y="410" type="line"/>
      <point x="242" y="399"/>
      <point x="207" y="339"/>
      <point x="207" y="278" type="qcurve"/>
      <point x="207" y="256"/>
      <point x="209" y="212" type="qcurve"/>
      <point x="265" y="232"/>
      <point x="326" y="270"/>
      <point x="341" y="305" type="qcurve"/>
      <point x="294" y="309"/>
      <point x="294" y="374" type="qcurve"/>
      <point x="294" y="398"/>
      <point x="299" y="410" type="qcurve"/>
    </contour>
    <contour>
      <point x="207" y="206" type="qcurve"/>
      <point x="202" y="206"/>
      <point x="202" y="278" type="qcurve"/>
      <point x="202" y="415"/>
      <point x="288" y="415" type="qcurve"/>
      <point x="303" y="415" type="line"/>
      <point x="306" y="415"/>
      <point x="306" y="412" type="qcurve"/>
      <point x="306" y="408"/>
      <point x="299" y="380"/>
      <point x="299" y="374" type="qcurve"/>
      <point x="299" y="311"/>
      <point x="344" y="310" type="qcurve"/>
      <point x="347" y="310"/>
      <point x="347" y="307" type="qcurve"/>
      <point x="347" y="278"/>
      <point x="244" y="206"/>
    </contour>
    <contour>
      <point x="327" y="-12" type="line"/>
      <point x="335" y="-12"/>
      <point x="365" y="-14"/>
      <point x="375" y="-14" type="qcurve"/>
      <point x="381" y="-14"/>
      <point x="387" y="-11" type="qcurve"/>
      <point x="534" y="76" type="line"/>
      <point x="545" y="83"/>
      <point x="545" y="95" type="qcurve"/>
      <point x="545" y="104"/>
      <point x="531" y="117"/>
      <point x="522" y="117" type="qcurve"/>
      <point x="517" y="117"/>
      <point x="511" y="114" type="qcurve"/>
      <point x="370" y="31" type="line"/>
      <point x="363" y="29"/>
      <point x="351" y="30"/>
      <point x="330" y="33"/>
      <point x="327" y="33" type="qcurve"/>
      <point x="319" y="33" type="line"/>
      <point x="287" y="33"/>
      <point x="234" y="55"/>
      <point x="228" y="76" type="qcurve"/>
      <point x="206" y="149" type="line"/>
      <point x="206" y="150" type="line"/>
      <point x="206" y="155" type="line"/>
      <point x="206" y="156" type="line"/>
      <point x="240" y="174" type="line"/>
      <point x="274" y="191"/>
      <point x="347" y="230"/>
      <point x="357" y="240"/>
      <point x="395" y="320"/>
      <point x="399" y="322" type="qcurve"/>
      <point x="441" y="338"/>
      <point x="441" y="374" type="qcurve"/>
      <point x="441" y="415"/>
      <point x="393" y="461"/>
      <point x="353" y="461" type="qcurve"/>
      <point x="341" y="461"/>
      <point x="297" y="459"/>
      <point x="285" y="459" type="qcurve"/>
      <point x="221" y="459"/>
      <point x="156" y="354"/>
      <point x="156" y="278" type="qcurve"/>
      <point x="156" y="264"/>
      <point x="160" y="205"/>
      <point x="160" y="191" type="qcurve"/>
      <point x="160" y="181"/>
      <point x="82" y="155"/>
      <point x="5" y="117"/>
      <point x="5" y="92" type="qcurve"/>
      <point x="5" y="83"/>
      <point x="18" y="70"/>
      <point x="27" y="70" type="qcurve"/>
      <point x="47" y="70"/>
      <point x="133" y="141"/>
      <point x="160" y="141" type="qcurve"/>
      <point x="162" y="141"/>
      <point x="162" y="139" type="qcurve"/>
      <point x="186" y="59" type="line"/>
      <point x="195" y="28"/>
      <point x="274" y="-12"/>
      <point x="319" y="-12" type="qcurve"/>
    </contour>
    <contour>
      <point x="353" y="466" type="qcurve"/>
      <point x="395" y="466"/>
      <point x="446" y="416"/>
      <point x="446" y="374" type="qcurve"/>
      <point x="446" y="334"/>
      <point x="402" y="317" type="qcurve"/>
      <point x="396" y="289"/>
      <point x="367" y="242"/>
      <point x="335" y="211"/>
      <point x="282" y="181"/>
      <point x="242" y="165"/>
      <point x="211" y="154" type="qcurve"/>
      <point x="211" y="150" type="line"/>
      <point x="232" y="78" type="line"/>
      <point x="250" y="56"/>
      <point x="285" y="38"/>
      <point x="319" y="38" type="qcurve"/>
      <point x="327" y="38" type="line"/>
      <point x="334" y="38"/>
      <point x="361" y="36"/>
      <point x="368" y="36" type="qcurve"/>
      <point x="508" y="119" type="line"/>
      <point x="512" y="122"/>
      <point x="522" y="122" type="qcurve"/>
      <point x="533" y="122"/>
      <point x="550" y="106"/>
      <point x="550" y="95" type="qcurve"/>
      <point x="550" y="80"/>
      <point x="536" y="71" type="qcurve"/>
      <point x="389" y="-16" type="line"/>
      <point x="385" y="-19"/>
      <point x="375" y="-19" type="qcurve"/>
      <point x="359" y="-19"/>
      <point x="327" y="-17" type="qcurve"/>
      <point x="319" y="-17" type="line"/>
      <point x="272" y="-17"/>
      <point x="190" y="25"/>
      <point x="181" y="57" type="qcurve"/>
      <point x="158" y="135" type="line"/>
      <point x="85" y="107"/>
      <point x="46" y="72" type="qcurve"/>
      <point x="39" y="65"/>
      <point x="27" y="65" type="qcurve"/>
      <point x="16" y="65"/>
      <point x="0" y="81"/>
      <point x="0" y="92" type="qcurve"/>
      <point x="0" y="104"/>
      <point x="20" y="128"/>
      <point x="46" y="146"/>
      <point x="87" y="167"/>
      <point x="113" y="177"/>
      <point x="153" y="191"/>
      <point x="155" y="192" type="qcurve"/>
      <point x="155" y="201"/>
      <point x="151" y="262"/>
      <point x="151" y="278" type="qcurve"/>
      <point x="151" y="356"/>
      <point x="218" y="464"/>
      <point x="285" y="464" type="qcurve"/>
      <point x="297" y="464"/>
      <point x="341" y="466"/>
    </contour>
  </outline>
</glyph>
<glyph name="o" format="2">
  <advance width="369"/>
  <unicode hex="006F"/>
  <outline>
    <contour>
      <point x="0" y="83"/>
      <point x="0" y="105"/>
      <point x="16" y="121"/>
      <point x="27" y="121" type="qcurve"/>
      <point x="32" y="121" type="line"/>
      <point x="47" y="126"/>
      <point x="62" y="133" type="qcurve"/>
      <point x="61" y="140"/>
      <point x="44" y="208"/>
      <point x="44" y="230" type="qcurve"/>
      <point x="44" y="314"/>
      <point x="130" y="445"/>
      <point x="207" y="447" type="qcurve"/>
      <point x="236" y="447"/>
      <point x="278" y="418"/>
      <point x="286" y="394" type="qcurve"/>
      <point x="316" y="366"/>
      <point x="362" y="243"/>
      <point x="365" y="190" type="qcurve"/>
      <point x="370" y="93" type="line"/>
      <point x="370" y="92" type="line"/>
      <point x="370" y="81"/>
      <point x="353" y="65"/>
      <point x="342" y="65" type="qcurve"/>
      <point x="322" y="65"/>
      <point x="316" y="86" type="qcurve"/>
      <point x="306" y="43"/>
      <point x="251" y="-31"/>
      <point x="211" y="-31" type="qcurve"/>
      <point x="157" y="-31"/>
      <point x="84" y="29"/>
      <point x="70" y="76" type="qcurve"/>
      <point x="48" y="67"/>
      <point x="35" y="67" type="qcurve"/>
      <point x="27" y="67" type="line"/>
      <point x="16" y="67"/>
    </contour>
    <contour>
      <point x="207" y="442" type="qcurve"/>
      <point x="133" y="442"/>
      <point x="49" y="311"/>
      <point x="49" y="230" type="qcurve"/>
      <point x="49" y="208"/>
      <point x="66" y="139"/>
      <point x="67" y="132" type="qcurve"/>
      <point x="67" y="128"/>
      <point x="38" y="116"/>
      <point x="33" y="116" type="qcurve"/>
      <point x="27" y="116" type="line"/>
      <point x="18" y="116"/>
      <point x="5" y="103"/>
      <point x="5" y="85"/>
      <point x="18" y="72"/>
      <point x="27" y="72" type="qcurve"/>
      <point x="35" y="72" type="line"/>
      <point x="42" y="72"/>
      <point x="66" y="82"/>
      <point x="72" y="82" type="qcurve"/>
      <point x="75" y="82"/>
      <point x="75" y="80" type="qcurve"/>
      <point x="88" y="34"/>
      <point x="158" y="-26"/>
      <point x="211" y="-26" type="qcurve"/>
      <point x="253" y="-26"/>
      <point x="304" y="53"/>
      <point x="314" y="103" type="qcurve"/>
      <point x="314" y="105"/>
      <point x="317" y="105" type="qcurve"/>
      <point x="324" y="88" type="line"/>
      <point x="330" y="70"/>
      <point x="342" y="70" type="qcurve"/>
      <point x="351" y="70"/>
      <point x="365" y="83"/>
      <point x="365" y="92" type="qcurve"/>
      <point x="365" y="93" type="line"/>
      <point x="360" y="190" type="line"/>
      <point x="357" y="240"/>
      <point x="321" y="352"/>
      <point x="250" y="442"/>
    </contour>
    <contour>
      <point x="306" y="211" type="qcurve"/>
      <point x="306" y="162"/>
      <point x="241" y="4"/>
      <point x="204" y="4" type="qcurve"/>
      <point x="171" y="4"/>
      <point x="100" y="118"/>
      <point x="100" y="173" type="qcurve"/>
      <point x="100" y="226"/>
      <point x="156" y="402"/>
      <point x="191" y="402" type="qcurve"/>
      <point x="223" y="402"/>
      <point x="306" y="266"/>
    </contour>
    <contour>
      <point x="191" y="398" type="qcurve"/>
      <point x="159" y="398"/>
      <point x="106" y="222"/>
      <point x="106" y="173" type="qcurve"/>
      <point x="106" y="121"/>
      <point x="175" y="10"/>
      <point x="204" y="10" type="qcurve"/>
      <point x="238" y="10"/>
      <point x="302" y="165"/>
      <point x="302" y="211" type="qcurve"/>
      <point x="302" y="264"/>
      <point x="220" y="398"/>
    </contour>
  </outline>
</glyph>
<glyph name="uni0983" format="2">
  <advance width="1024"/>
  <unicode hex="0983"/>
  <outline>
    <contour>
      <point x="349" y="295"/>
      <point x="379" y="295"/>
      <point x="389" y="284" type="qcurve"/>
      <point x="424" y="249" type="line"/>
      <point x="435" y="239"/>
      <point x="435" y="209"/>
      <point x="424" y="199" type="qcurve"/>
      <point x="389" y="164" type="line"/>
      <point x="379" y="153"/>
      <point x="364" y="153" type="qcurve"/>
      <point x="345" y="153"/>
      <point x="332" y="166" type="qcurve"/>
      <point x="297" y="201" type="line"/>
      <point x="287" y="211"/>
      <point x="287" y="223" type="qcurve"/>
      <point x="287" y="224"/>
      <point x="288" y="224" type="qcurve"/>
      <point x="294" y="230" type="line"/>
      <point x="296" y="241"/>
      <point x="304" y="249" type="qcurve"/>
      <point x="339" y="284" type="line"/>
    </contour>
    <contour>
      <point x="376" y="290"/>
      <point x="352" y="290"/>
      <point x="343" y="281" type="qcurve"/>
      <point x="307" y="245" type="line"/>
      <point x="300" y="238"/>
      <point x="298" y="228" type="qcurve"/>
      <point x="298" y="228"/>
      <point x="298" y="227" type="qcurve"/>
      <point x="292" y="222" type="line"/>
      <point x="293" y="212"/>
      <point x="301" y="205" type="qcurve"/>
      <point x="336" y="169" type="line"/>
      <point x="347" y="158"/>
      <point x="364" y="158" type="qcurve"/>
      <point x="376" y="158"/>
      <point x="385" y="167" type="qcurve"/>
      <point x="421" y="203" type="line"/>
      <point x="430" y="212"/>
      <point x="430" y="236"/>
      <point x="421" y="245" type="qcurve"/>
      <point x="385" y="281" type="line"/>
    </contour>
    <contour>
      <point x="379" y="649" type="qcurve"/>
      <point x="390" y="649"/>
      <point x="398" y="640" type="qcurve"/>
      <point x="434" y="605" type="line"/>
      <point x="447" y="592"/>
      <point x="447" y="546"/>
      <point x="434" y="533" type="qcurve"/>
      <point x="398" y="498" type="line"/>
      <point x="390" y="489"/>
      <point x="368" y="489"/>
      <point x="360" y="498" type="qcurve"/>
      <point x="324" y="533" type="line"/>
      <point x="314" y="543"/>
      <point x="312" y="560" type="qcurve"/>
      <point x="302" y="570" type="line"/>
      <point x="301" y="571"/>
      <point x="301" y="572" type="qcurve"/>
      <point x="303" y="590"/>
      <point x="315" y="601" type="qcurve"/>
      <point x="350" y="637" type="line"/>
      <point x="362" y="649"/>
    </contour>
    <contour>
      <point x="379" y="644" type="qcurve"/>
      <point x="364" y="644"/>
      <point x="354" y="633" type="qcurve"/>
      <point x="318" y="598" type="line"/>
      <point x="308" y="588"/>
      <point x="306" y="573" type="qcurve"/>
      <point x="316" y="563" type="line"/>
      <point x="316" y="563"/>
      <point x="317" y="562" type="qcurve"/>
      <point x="319" y="546"/>
      <point x="328" y="537" type="qcurve"/>
      <point x="363" y="501" type="line"/>
      <point x="370" y="494"/>
      <point x="388" y="494"/>
      <point x="395" y="501" type="qcurve"/>
      <point x="430" y="537" type="line"/>
      <point x="442" y="548"/>
      <point x="442" y="590"/>
      <point x="430" y="601" type="qcurve"/>
      <point x="395" y="637" type="line"/>
      <point x="388" y="644"/>
    </contour>
  </outline>
</glyph>
<glyph name="uni0988" format="2">
  <advance width="896"/>
  <unicode hex="0988"/>
  <outline>
    <contour>
      <point x="742" y="754" type="line"/>
      <point x="723" y="750"/>
      <point x="645" y="728"/>
      <point x="579" y="714"/>
      <point x="550" y="714" type="qcurve"/>
      <point x="549" y="714"/>
      <point x="546" y="714"/>
      <point x="545" y="714" type="qcurve"/>
      <point x="530" y="714"/>
      <point x="524" y="720" type="qcurve"/>
      <point x="489" y="755" type="line"/>
      <point x="484" y="760"/>
      <point x="484" y="768" type="qcurve"/>
      <point x="484" y="782"/>
      <point x="498" y="813"/>
      <point x="511" y="831"/>
      <point x="524" y="849" type="qcurve"/>
      <point x="564" y="899"/>
      <point x="568" y="930" type="qcurve"/>
      <point x="545" y="935"/>
      <point x="509" y="935" type="qcurve"/>
      <point x="459" y="935"/>
      <point x="343" y="919"/>
      <point x="319" y="910" type="qcurve"/>
      <point x="313" y="908"/>
      <point x="280" y="896"/>
      <point x="262" y="890"/>
      <point x="234" y="882"/>
      <point x="208" y="878"/>
      <point x="196" y="878" type="qcurve"/>
      <point x="194" y="878"/>
      <point x="194" y="878" type="qcurve"/>
      <point x="168" y="882"/>
      <point x="149" y="901" type="qcurve"/>
      <point x="114" y="936" type="line"/>
      <point x="100" y="950"/>
      <point x="78" y="999"/>
      <point x="69" y="1034"/>
      <point x="62" y="1065" type="qcurve"/>
      <point x="53" y="1102"/>
      <point x="48" y="1115" type="qcurve"/>
      <point x="48" y="1116"/>
      <point x="48" y="1116" type="qcurve"/>
      <point x="48" y="1117"/>
      <point x="49" y="1118" type="qcurve"/>
      <point x="84" y="1153" type="line"/>
      <point x="85" y="1154"/>
      <point x="87" y="1154"/>
      <point x="88" y="1153" type="qcurve"/>
      <point x="123" y="1118" type="line"/>
      <point x="124" y="1117"/>
      <point x="124" y="1117" type="qcurve"/>
      <point x="129" y="1103"/>
      <point x="137" y="1066" type="qcurve"/>
      <point x="154" y="991"/>
      <point x="172" y="961" type="qcurve"/>
      <point x="182" y="956"/>
      <point x="194" y="954" type="qcurve"/>
      <point x="196" y="954" type="line"/>
      <point x="208" y="954"/>
      <point x="233" y="957"/>
      <point x="261" y="966"/>
      <point x="279" y="972"/>
      <point x="312" y="984"/>
      <point x="317" y="986" type="qcurve"/>
      <point x="342" y="994"/>
      <point x="458" y="1011"/>
      <point x="509" y="1011" type="qcurve"/>
      <point x="582" y="1011"/>
      <point x="602" y="991" type="qcurve"/>
      <point x="637" y="956" type="line"/>
      <point x="644" y="949"/>
      <point x="644" y="940" type="qcurve"/>
      <point x="644" y="913"/>
      <point x="612" y="860"/>
      <point x="570" y="809"/>
      <point x="564" y="790" type="qcurve"/>
      <point x="599" y="792"/>
      <point x="734" y="828"/>
      <point x="741" y="830" type="qcurve"/>
      <point x="742" y="830" type="line"/>
      <point x="906" y="814" type="line"/>
      <point x="907" y="814"/>
      <point x="908" y="813" type="qcurve"/>
      <point x="943" y="778" type="line"/>
      <point x="944" y="777"/>
      <point x="944" y="775"/>
      <point x="943" y="774" type="qcurve"/>
      <point x="908" y="739" type="line"/>
      <point x="907" y="738"/>
      <point x="906" y="738" type="qcurve"/>
    </contour>
    <contour>
      <point x="545" y="719" type="qcurve"/>
      <point x="546" y="719"/>
      <point x="549" y="719"/>
      <point x="550" y="719" type="qcurve"/>
      <point x="578" y="719"/>
      <point x="644" y="733"/>
      <point x="723" y="755"/>
      <point x="741" y="759" type="qcurve"/>
      <point x="742" y="759" type="line"/>
      <point x="905" y="743" type="line"/>
      <point x="938" y="776" type="line"/>
      <point x="905" y="809" type="line"/>
      <point x="742" y="825" type="line"/>
      <point x="738" y="824"/>
      <point x="597" y="787"/>
      <point x="560" y="785" type="qcurve"/>
      <point x="558" y="785"/>
      <point x="558" y="788" type="qcurve"/>
      <point x="564" y="808"/>
      <point x="605" y="861"/>
      <point x="639" y="913"/>
      <point x="639" y="940" type="qcurve"/>
      <point x="639" y="947"/>
      <point x="633" y="953" type="qcurve"/>
      <point x="598" y="988" type="line"/>
      <point x="580" y="1006"/>
      <point x="509" y="1006" type="qcurve"/>
      <point x="459" y="1006"/>
      <point x="343" y="989"/>
      <point x="319" y="981" type="qcurve"/>
      <point x="313" y="979"/>
      <point x="280" y="967"/>
      <point x="262" y="961"/>
      <point x="234" y="952"/>
      <point x="208" y="949"/>
      <point x="196" y="949" type="qcurve"/>
      <point x="194" y="949"/>
      <point x="194" y="949" type="qcurve"/>
      <point x="180" y="951"/>
      <point x="169" y="957" type="qcurve"/>
      <point x="168" y="957"/>
      <point x="168" y="958" type="qcurve"/>
      <point x="150" y="988"/>
      <point x="132" y="1065" type="qcurve"/>
      <point x="124" y="1101"/>
      <point x="119" y="1115" type="qcurve"/>
      <point x="86" y="1148" type="line"/>
      <point x="54" y="1115" type="line"/>
      <point x="58" y="1102"/>
      <point x="66" y="1066" type="qcurve"/>
      <point x="73" y="1035"/>
      <point x="83" y="1001"/>
      <point x="104" y="953"/>
      <point x="117" y="940" type="qcurve"/>
      <point x="153" y="904" type="line"/>
      <point x="170" y="887"/>
      <point x="194" y="883" type="qcurve"/>
      <point x="195" y="883"/>
      <point x="196" y="883" type="qcurve"/>
      <point x="208" y="883"/>
      <point x="233" y="887"/>
      <point x="261" y="895"/>
      <point x="279" y="901"/>
      <point x="312" y="913"/>
      <point x="317" y="915" type="qcurve"/>
      <point x="342" y="924"/>
      <point x="458" y="940"/>
      <point x="509" y="940" type="qcurve"/>
      <point x="547" y="940"/>
      <point x="571" y="935" type="qcurve"/>
      <point x="573" y="934"/>
      <point x="573" y="932" type="qcurve"/>
      <point x="571" y="916"/>
      <point x="556" y="882"/>
      <point x="542" y="863"/>
      <point x="528" y="845" type="qcurve"/>
      <point x="515" y="829"/>
      <point x="502" y="810"/>
      <point x="489" y="781"/>
      <point x="489" y="768" type="qcurve"/>
      <point x="489" y="762"/>
      <point x="492" y="759" type="qcurve"/>
      <point x="528" y="723" type="line"/>
      <point x="532" y="719"/>
    </contour>
    <contour>
      <point x="720" y="128" type="qcurve"/>
      <point x="747" y="128"/>
      <point x="766" y="138" type="qcurve"/>
      <point x="789" y="165" type="line"/>
      <point x="824" y="200" type="line"/>
      <point x="825" y="201"/>
      <point x="827" y="201"/>
      <point x="828" y="200" type="qcurve"/>
      <point x="863" y="165" type="line"/>
      <point x="864" y="164"/>
      <point x="864" y="162"/>
      <point x="863" y="161" type="qcurve"/>
      <point x="819" y="109" type="line"/>
      <point x="784" y="74" type="line"/>
      <point x="762" y="52"/>
      <point x="720" y="52" type="qcurve"/>
      <point x="689" y="52"/>
      <point x="589" y="92"/>
      <point x="562" y="93" type="qcurve"/>
      <point x="541" y="95"/>
      <point x="526" y="110" type="qcurve"/>
      <point x="491" y="145" type="line"/>
      <point x="456" y="180"/>
      <point x="456" y="287" type="qcurve"/>
      <point x="457" y="365"/>
      <point x="479" y="419" type="qcurve"/>
      <point x="361" y="310"/>
      <point x="126" y="102"/>
      <point x="72" y="59" type="qcurve"/>
      <point x="50" y="37"/>
      <point x="38" y="37" type="qcurve"/>
      <point x="37" y="37"/>
      <point x="36" y="38" type="qcurve"/>
      <point x="1" y="73" type="line"/>
      <point x="0" y="74"/>
      <point x="0" y="76"/>
      <point x="1" y="77" type="qcurve"/>
      <point x="36" y="112" type="line"/>
      <point x="37" y="113"/>
      <point x="38" y="113" type="qcurve"/>
      <point x="42" y="114"/>
      <point x="57" y="125" type="qcurve"/>
      <point x="119" y="199"/>
      <point x="284" y="474"/>
      <point x="284" y="495" type="qcurve"/>
      <point x="284" y="617"/>
      <point x="257" y="661" type="qcurve"/>
      <point x="235" y="675"/>
      <point x="203" y="682" type="qcurve"/>
      <point x="200" y="659"/>
      <point x="196" y="638" type="qcurve"/>
      <point x="191" y="614"/>
      <point x="188" y="611" type="qcurve"/>
      <point x="152" y="575" type="line"/>
      <point x="151" y="574"/>
      <point x="150" y="574" type="qcurve"/>
      <point x="139" y="574"/>
      <point x="101" y="581"/>
      <point x="94" y="587" type="qcurve"/>
      <point x="59" y="622" type="line"/>
      <point x="56" y="625"/>
      <point x="56" y="628" type="qcurve"/>
      <point x="56" y="644"/>
      <point x="75" y="710"/>
      <point x="89" y="724" type="qcurve"/>
      <point x="94" y="729" type="line"/>
      <point x="88" y="731"/>
      <point x="43" y="738" type="qcurve"/>
      <point x="21" y="741"/>
      <point x="10" y="742" type="qcurve"/>
      <point x="9" y="742"/>
      <point x="8" y="743" type="qcurve"/>
      <point x="-27" y="778" type="line"/>
      <point x="-28" y="779"/>
      <point x="-28" y="781"/>
      <point x="-27" y="782" type="qcurve"/>
      <point x="8" y="817" type="line"/>
      <point x="9" y="818"/>
      <point x="10" y="818" type="qcurve"/>
      <point x="21" y="817"/>
      <point x="62" y="811"/>
      <point x="70" y="810" type="qcurve"/>
      <point x="120" y="804"/>
      <point x="148" y="777" type="qcurve"/>
      <point x="159" y="765" type="line"/>
      <point x="166" y="764"/>
      <point x="182" y="762" type="qcurve"/>
      <point x="249" y="751"/>
      <point x="281" y="720" type="qcurve"/>
      <point x="316" y="684" type="line"/>
      <point x="342" y="658"/>
      <point x="360" y="570"/>
      <point x="360" y="495" type="qcurve"/>
      <point x="360" y="493"/>
      <point x="330" y="431"/>
      <point x="274" y="329"/>
      <point x="247" y="286" type="qcurve"/>
      <point x="411" y="431"/>
      <point x="554" y="568" type="qcurve"/>
      <point x="591" y="627"/>
      <point x="635" y="671" type="qcurve"/>
      <point x="670" y="706" type="line"/>
      <point x="701" y="738"/>
      <point x="737" y="761" type="qcurve"/>
      <point x="737" y="762"/>
      <point x="738" y="762" type="qcurve"/>
      <point x="739" y="762"/>
      <point x="740" y="761" type="qcurve"/>
      <point x="775" y="726" type="line"/>
      <point x="776" y="725"/>
      <point x="776" y="724" type="qcurve"/>
      <point x="776" y="717"/>
      <point x="755" y="693" type="qcurve"/>
      <point x="732" y="665"/>
      <point x="682" y="616" type="qcurve"/>
      <point x="637" y="570"/>
      <point x="625" y="559" type="qcurve"/>
      <point x="595" y="510"/>
      <point x="568" y="446" type="qcurve"/>
      <point x="533" y="386"/>
      <point x="532" y="287" type="qcurve"/>
      <point x="532" y="209"/>
      <point x="550" y="171" type="qcurve"/>
      <point x="556" y="169"/>
      <point x="562" y="169" type="qcurve"/>
      <point x="590" y="167"/>
      <point x="689" y="128"/>
    </contour>
    <contour>
      <point x="236" y="270" type="qcurve"/>
      <point x="233" y="270"/>
      <point x="233" y="272" type="qcurve"/>
      <point x="233" y="273"/>
      <point x="233" y="274" type="qcurve"/>
      <point x="297" y="374"/>
      <point x="353" y="492" type="qcurve"/>
      <point x="355" y="495" type="line"/>
      <point x="355" y="570"/>
      <point x="338" y="656"/>
      <point x="312" y="681" type="qcurve"/>
      <point x="277" y="716" type="line"/>
      <point x="247" y="747"/>
      <point x="179" y="757" type="qcurve"/>
      <point x="165" y="759"/>
      <point x="158" y="760" type="qcurve"/>
      <point x="157" y="760"/>
      <point x="157" y="761" type="qcurve"/>
      <point x="144" y="773" type="line"/>
      <point x="118" y="799"/>
      <point x="70" y="805" type="qcurve"/>
      <point x="61" y="806"/>
      <point x="22" y="812"/>
      <point x="11" y="813" type="qcurve"/>
      <point x="-22" y="780" type="line"/>
      <point x="11" y="747" type="line"/>
      <point x="21" y="746"/>
      <point x="55" y="741"/>
      <point x="59" y="741" type="qcurve"/>
      <point x="86" y="737"/>
      <point x="100" y="733" type="qcurve"/>
      <point x="102" y="732"/>
      <point x="102" y="731" type="qcurve"/>
      <point x="102" y="730"/>
      <point x="101" y="729" type="qcurve"/>
      <point x="92" y="720" type="line"/>
      <point x="80" y="708"/>
      <point x="61" y="642"/>
      <point x="61" y="628" type="qcurve"/>
      <point x="61" y="627"/>
      <point x="62" y="626" type="qcurve"/>
      <point x="98" y="591" type="line"/>
      <point x="102" y="586"/>
      <point x="139" y="579"/>
      <point x="149" y="579" type="qcurve"/>
      <point x="184" y="614" type="line"/>
      <point x="187" y="616"/>
      <point x="191" y="639" type="qcurve"/>
      <point x="195" y="663"/>
      <point x="198" y="685" type="qcurve"/>
      <point x="198" y="688"/>
      <point x="201" y="688" type="qcurve"/>
      <point x="237" y="680"/>
      <point x="260" y="665" type="qcurve"/>
      <point x="261" y="665"/>
      <point x="261" y="664" type="qcurve"/>
      <point x="278" y="638"/>
      <point x="289" y="558"/>
      <point x="289" y="495" type="qcurve"/>
      <point x="289" y="471"/>
      <point x="124" y="197"/>
      <point x="61" y="122" type="qcurve"/>
      <point x="61" y="122"/>
      <point x="61" y="121" type="qcurve"/>
      <point x="44" y="109"/>
      <point x="39" y="108" type="qcurve"/>
      <point x="6" y="75" type="line"/>
      <point x="39" y="42" type="line"/>
      <point x="49" y="43"/>
      <point x="69" y="63" type="qcurve"/>
      <point x="124" y="106"/>
      <point x="365" y="320"/>
      <point x="484" y="431" type="qcurve"/>
      <point x="484" y="431"/>
      <point x="485" y="431" type="qcurve"/>
      <point x="488" y="431"/>
      <point x="488" y="429" type="qcurve"/>
      <point x="488" y="428"/>
      <point x="488" y="428" type="qcurve"/>
      <point x="463" y="372"/>
      <point x="461" y="287" type="qcurve"/>
      <point x="461" y="182"/>
      <point x="494" y="149" type="qcurve"/>
      <point x="530" y="113" type="line"/>
      <point x="543" y="100"/>
      <point x="562" y="98" type="qcurve"/>
      <point x="590" y="97"/>
      <point x="689" y="57"/>
      <point x="720" y="57" type="qcurve"/>
      <point x="760" y="57"/>
      <point x="780" y="77" type="qcurve"/>
      <point x="816" y="113" type="line"/>
      <point x="858" y="163" type="line"/>
      <point x="826" y="195" type="line"/>
      <point x="792" y="161" type="line"/>
      <point x="770" y="134" type="line"/>
      <point x="769" y="134"/>
      <point x="769" y="134" type="qcurve"/>
      <point x="749" y="123"/>
      <point x="720" y="123" type="qcurve"/>
      <point x="689" y="123"/>
      <point x="589" y="162"/>
      <point x="562" y="164" type="qcurve"/>
      <point x="554" y="165"/>
      <point x="547" y="167" type="qcurve"/>
      <point x="546" y="167"/>
      <point x="546" y="168" type="qcurve"/>
      <point x="527" y="207"/>
      <point x="527" y="287" type="qcurve"/>
      <point x="528" y="387"/>
      <point x="563" y="448" type="qcurve"/>
      <point x="591" y="512"/>
      <point x="621" y="562" type="qcurve"/>
      <point x="720" y="659"/>
      <point x="751" y="696" type="qcurve"/>
      <point x="769" y="716"/>
      <point x="771" y="723" type="qcurve"/>
      <point x="738" y="756" type="line"/>
      <point x="704" y="733"/>
      <point x="673" y="703" type="qcurve"/>
      <point x="638" y="667" type="line"/>
      <point x="595" y="624"/>
      <point x="558" y="565" type="qcurve"/>
      <point x="558" y="564"/>
      <point x="558" y="564" type="qcurve"/>
      <point x="407" y="421"/>
      <point x="237" y="271" type="qcurve"/>
      <point x="237" y="270"/>
    </contour>
  </outline>
</glyph>
<glyph name="uni098B" format="2">
  <advance width="614"/>
  <unicode hex="098B"/>
  <outline>
    <contour>
      <point x="461" y="49" type="qcurve"/>
      <point x="458" y="49"/>
      <point x="445" y="50"/>
      <point x="442" y="50" type="qcurve"/>
      <point x="421" y="50"/>
      <point x="409" y="62" type="qcurve"/>
      <point x="374" y="97" type="line"/>
      <point x="358" y="114"/>
      <point x="358" y="158" type="qcurve"/>
      <point x="358" y="167"/>
      <point x="359" y="203"/>
      <point x="359" y="211" type="qcurve"/>
      <point x="359" y="214"/>
      <point x="359" y="216" type="qcurve"/>
      <point x="331" y="229"/>
      <point x="295" y="240" type="qcurve"/>
      <point x="295" y="240"/>
      <point x="294" y="241" type="qcurve"/>
      <point x="259" y="276" type="line"/>
      <point x="258" y="277"/>
      <point x="258" y="279"/>
      <point x="259" y="280" type="qcurve"/>
      <point x="294" y="315" type="line"/>
      <point x="295" y="316"/>
      <point x="296" y="316" type="qcurve"/>
      <point x="296" y="316"/>
      <point x="297" y="316" type="qcurve"/>
      <point x="330" y="306"/>
      <point x="357" y="293" type="qcurve"/>
      <point x="362" y="481"/>
      <point x="458" y="687" type="qcurve"/>
      <point x="484" y="742"/>
      <point x="512" y="770" type="qcurve"/>
      <point x="548" y="805" type="line"/>
      <point x="570" y="828"/>
      <point x="591" y="828" type="qcurve"/>
      <point x="605" y="828"/>
      <point x="618" y="817" type="qcurve"/>
      <point x="653" y="782" type="line"/>
      <point x="654" y="781"/>
      <point x="654" y="779"/>
      <point x="653" y="778" type="qcurve"/>
      <point x="618" y="743" type="line"/>
      <point x="617" y="742"/>
      <point x="615" y="742"/>
      <point x="614" y="743" type="qcurve"/>
      <point x="603" y="752"/>
      <point x="591" y="752" type="qcurve"/>
      <point x="580" y="752"/>
      <point x="569" y="745" type="qcurve"/>
      <point x="550" y="720"/>
      <point x="534" y="685" type="qcurve"/>
      <point x="432" y="470"/>
      <point x="432" y="275" type="qcurve"/>
      <point x="432" y="261"/>
      <point x="433" y="246" type="qcurve"/>
      <point x="437" y="243"/>
      <point x="441" y="239" type="qcurve"/>
      <point x="476" y="204" type="line"/>
      <point x="518" y="161"/>
      <point x="518" y="107" type="qcurve"/>
      <point x="518" y="92"/>
      <point x="515" y="89" type="qcurve"/>
      <point x="480" y="54" type="line"/>
      <point x="475" y="49"/>
    </contour>
    <contour>
      <point x="364" y="211" type="qcurve"/>
      <point x="364" y="203"/>
      <point x="363" y="166"/>
      <point x="363" y="158" type="qcurve"/>
      <point x="363" y="116"/>
      <point x="377" y="101" type="qcurve"/>
      <point x="413" y="66" type="line"/>
      <point x="423" y="55"/>
      <point x="442" y="55" type="qcurve"/>
      <point x="445" y="55"/>
      <point x="458" y="54"/>
      <point x="461" y="54" type="qcurve"/>
      <point x="473" y="54"/>
      <point x="476" y="57" type="qcurve"/>
      <point x="512" y="93" type="line"/>
      <point x="513" y="94"/>
      <point x="513" y="98"/>
      <point x="513" y="105"/>
      <point x="513" y="107" type="qcurve"/>
      <point x="513" y="159"/>
      <point x="473" y="200" type="qcurve"/>
      <point x="437" y="235" type="line"/>
      <point x="433" y="239"/>
      <point x="429" y="243" type="qcurve"/>
      <point x="428" y="244"/>
      <point x="428" y="245" type="qcurve"/>
      <point x="427" y="260"/>
      <point x="427" y="275" type="qcurve"/>
      <point x="427" y="471"/>
      <point x="529" y="687" type="qcurve"/>
      <point x="546" y="723"/>
      <point x="565" y="748" type="qcurve"/>
      <point x="565" y="749"/>
      <point x="565" y="749" type="qcurve"/>
      <point x="579" y="757"/>
      <point x="591" y="757" type="qcurve"/>
      <point x="604" y="757"/>
      <point x="616" y="748" type="qcurve"/>
      <point x="648" y="780" type="line"/>
      <point x="614" y="814" type="line"/>
      <point x="603" y="823"/>
      <point x="591" y="823" type="qcurve"/>
      <point x="572" y="823"/>
      <point x="551" y="802" type="qcurve"/>
      <point x="516" y="766" type="line"/>
      <point x="488" y="739"/>
      <point x="463" y="685" type="qcurve"/>
      <point x="366" y="478"/>
      <point x="362" y="290" type="qcurve"/>
      <point x="362" y="287"/>
      <point x="359" y="287" type="qcurve"/>
      <point x="359" y="287"/>
      <point x="358" y="287" type="qcurve"/>
      <point x="331" y="300"/>
      <point x="297" y="311" type="qcurve"/>
      <point x="264" y="278" type="line"/>
      <point x="297" y="245" type="line"/>
      <point x="334" y="234"/>
      <point x="363" y="220" type="qcurve"/>
      <point x="364" y="219"/>
    </contour>
    <contour>
      <point x="428" y="158" type="qcurve"/>
      <point x="428" y="168"/>
      <point x="431" y="168" type="qcurve"/>
      <point x="432" y="168"/>
      <point x="433" y="167" type="qcurve"/>
      <point x="444" y="146"/>
      <point x="447" y="124" type="qcurve"/>
      <point x="447" y="123"/>
      <point x="447" y="123" type="qcurve"/>
      <point x="447" y="121"/>
      <point x="444" y="121" type="qcurve"/>
      <point x="432" y="121"/>
      <point x="431" y="123" type="qcurve"/>
      <point x="428" y="137"/>
    </contour>
    <contour>
      <point x="441" y="126" type="qcurve"/>
      <point x="439" y="141"/>
      <point x="433" y="154" type="qcurve"/>
      <point x="434" y="138"/>
      <point x="436" y="126" type="qcurve"/>
      <point x="438" y="126"/>
    </contour>
    <contour>
      <point x="228" y="671" type="qcurve"/>
      <point x="225" y="669"/>
      <point x="209" y="661"/>
      <point x="198" y="656"/>
      <point x="183" y="652"/>
      <point x="176" y="652" type="qcurve"/>
      <point x="175" y="652"/>
      <point x="173" y="652"/>
      <point x="168" y="652"/>
      <point x="167" y="652" type="qcurve"/>
      <point x="158" y="652"/>
      <point x="155" y="656" type="qcurve"/>
      <point x="136" y="674" type="line"/>
      <point x="110" y="664"/>
      <point x="96" y="664" type="qcurve"/>
      <point x="95" y="664"/>
      <point x="88" y="665" type="qcurve"/>
      <point x="62" y="667"/>
      <point x="54" y="675" type="qcurve"/>
      <point x="19" y="711" type="line"/>
      <point x="13" y="716"/>
      <point x="13" y="724" type="qcurve"/>
      <point x="13" y="726"/>
      <point x="14" y="729" type="qcurve"/>
      <point x="13" y="730"/>
      <point x="13" y="730" type="qcurve"/>
      <point x="-23" y="766" type="line"/>
      <point x="-25" y="768"/>
      <point x="-28" y="773" type="qcurve"/>
      <point x="-37" y="782" type="line"/>
      <point x="-38" y="783"/>
      <point x="-38" y="785"/>
      <point x="-37" y="786" type="qcurve"/>
      <point x="-2" y="821" type="line"/>
      <point x="-1" y="822"/>
      <point x="0" y="822" type="qcurve"/>
      <point x="3" y="822"/>
      <point x="7" y="818" type="qcurve"/>
      <point x="42" y="784" type="line"/>
      <point x="42" y="784"/>
      <point x="42" y="783" type="qcurve"/>
      <point x="58" y="800" type="line"/>
      <point x="60" y="802"/>
      <point x="62" y="802" type="qcurve"/>
      <point x="65" y="802"/>
      <point x="86" y="797" type="qcurve"/>
      <point x="89" y="796"/>
      <point x="90" y="795" type="qcurve"/>
      <point x="125" y="760" type="line"/>
      <point x="126" y="759"/>
      <point x="126" y="758" type="qcurve"/>
      <point x="126" y="751"/>
      <point x="119" y="744" type="qcurve"/>
      <point x="128" y="747"/>
      <point x="137" y="751" type="qcurve"/>
      <point x="138" y="752"/>
      <point x="140" y="754" type="qcurve"/>
      <point x="175" y="789" type="line"/>
      <point x="182" y="796"/>
      <point x="188" y="796" type="qcurve"/>
      <point x="189" y="796"/>
      <point x="189" y="796" type="qcurve"/>
      <point x="192" y="796"/>
      <point x="193" y="794" type="qcurve"/>
      <point x="229" y="759" type="line"/>
      <point x="230" y="758"/>
      <point x="230" y="756" type="qcurve"/>
      <point x="230" y="752"/>
      <point x="227" y="747" type="qcurve"/>
      <point x="229" y="748"/>
      <point x="229" y="748" type="qcurve"/>
      <point x="241" y="752"/>
      <point x="252" y="760" type="qcurve"/>
      <point x="258" y="767"/>
      <point x="263" y="771" type="qcurve"/>
      <point x="266" y="777"/>
      <point x="267" y="778" type="qcurve"/>
      <point x="302" y="814" type="line"/>
      <point x="303" y="814"/>
      <point x="304" y="814" type="qcurve"/>
      <point x="306" y="814"/>
      <point x="306" y="814" type="qcurve"/>
      <point x="306" y="814"/>
      <point x="311" y="809"/>
      <point x="341" y="778" type="qcurve"/>
      <point x="342" y="778"/>
      <point x="342" y="777" type="qcurve"/>
      <point x="342" y="775"/>
      <point x="338" y="765" type="qcurve"/>
      <point x="326" y="732"/>
      <point x="326" y="724" type="qcurve"/>
      <point x="326" y="723"/>
      <point x="326" y="722"/>
      <point x="326" y="722" type="qcurve"/>
      <point x="326" y="721"/>
      <point x="326" y="721" type="qcurve"/>
      <point x="322" y="713"/>
      <point x="294" y="643" type="qcurve"/>
      <point x="289" y="583"/>
      <point x="218" y="511" type="qcurve"/>
      <point x="183" y="476" type="line"/>
      <point x="161" y="455"/>
      <point x="127" y="426" type="qcurve"/>
      <point x="161" y="408"/>
      <point x="192" y="377" type="qcurve"/>
      <point x="237" y="332"/>
      <point x="248" y="319" type="qcurve"/>
      <point x="302" y="689"/>
      <point x="364" y="750" type="qcurve"/>
      <point x="399" y="786" type="line"/>
      <point x="412" y="798"/>
      <point x="424" y="798" type="qcurve"/>
      <point x="424" y="798"/>
      <point x="425" y="798" type="qcurve"/>
      <point x="431" y="796"/>
      <point x="437" y="790" type="qcurve"/>
      <point x="473" y="755" type="line"/>
      <point x="474" y="753"/>
      <point x="487" y="736" type="qcurve"/>
      <point x="499" y="724" type="line"/>
      <point x="500" y="723"/>
      <point x="500" y="721"/>
      <point x="499" y="720" type="qcurve"/>
      <point x="464" y="685" type="line"/>
      <point x="463" y="684"/>
      <point x="462" y="684" type="qcurve"/>
      <point x="461" y="684"/>
      <point x="461" y="685" type="qcurve"/>
      <point x="457" y="687"/>
      <point x="454" y="690" type="qcurve"/>
      <point x="422" y="722" type="line"/>
      <point x="421" y="722"/>
      <point x="421" y="722" type="qcurve"/>
      <point x="362" y="615"/>
      <point x="311" y="225" type="qcurve"/>
      <point x="328" y="195"/>
      <point x="346" y="157" type="qcurve"/>
      <point x="349" y="149"/>
      <point x="349" y="136" type="qcurve"/>
      <point x="349" y="99"/>
      <point x="333" y="83" type="qcurve"/>
      <point x="298" y="48" type="line"/>
      <point x="292" y="42"/>
      <point x="286" y="42" type="qcurve"/>
      <point x="285" y="42"/>
      <point x="284" y="43" type="qcurve"/>
      <point x="249" y="78" type="line"/>
      <point x="225" y="103"/>
      <point x="225" y="138" type="qcurve"/>
      <point x="225" y="144"/>
      <point x="229" y="170" type="qcurve"/>
      <point x="233" y="202"/>
      <point x="235" y="224" type="qcurve"/>
      <point x="204" y="281"/>
      <point x="170" y="320" type="qcurve"/>
      <point x="122" y="361"/>
      <point x="67" y="372" type="qcurve"/>
      <point x="67" y="372"/>
      <point x="66" y="373" type="qcurve"/>
      <point x="31" y="408" type="line"/>
      <point x="30" y="409"/>
      <point x="30" y="410" type="qcurve"/>
      <point x="30" y="411"/>
      <point x="30" y="411" type="qcurve"/>
      <point x="33" y="416"/>
      <point x="41" y="424" type="qcurve"/>
      <point x="76" y="459" type="line"/>
      <point x="85" y="468"/>
      <point x="112" y="491" type="qcurve"/>
      <point x="144" y="517"/>
      <point x="160" y="532" type="qcurve"/>
      <point x="215" y="592"/>
      <point x="218" y="644" type="qcurve"/>
      <point x="218" y="645"/>
      <point x="218" y="645" type="qcurve"/>
      <point x="221" y="652"/>
    </contour>
    <contour>
      <point x="167" y="657" type="qcurve"/>
      <point x="168" y="657"/>
      <point x="173" y="657"/>
      <point x="174" y="657" type="qcurve"/>
      <point x="174" y="657"/>
      <point x="176" y="657"/>
      <point x="176" y="657" type="qcurve"/>
      <point x="185" y="657"/>
      <point x="204" y="664"/>
      <point x="227" y="676"/>
      <point x="232" y="678" type="qcurve"/>
      <point x="232" y="678"/>
      <point x="233" y="678" type="qcurve"/>
      <point x="235" y="678"/>
      <point x="235" y="676" type="qcurve"/>
      <point x="235" y="675"/>
      <point x="235" y="675" type="qcurve"/>
      <point x="225" y="647"/>
      <point x="223" y="643" type="qcurve"/>
      <point x="219" y="590"/>
      <point x="164" y="529" type="qcurve"/>
      <point x="147" y="513"/>
      <point x="115" y="487" type="qcurve"/>
      <point x="88" y="464"/>
      <point x="80" y="456" type="qcurve"/>
      <point x="44" y="420" type="line"/>
      <point x="39" y="414"/>
      <point x="36" y="410" type="qcurve"/>
      <point x="69" y="377" type="line"/>
      <point x="125" y="365"/>
      <point x="174" y="323" type="qcurve"/>
      <point x="208" y="284"/>
      <point x="240" y="226" type="qcurve"/>
      <point x="240" y="225"/>
      <point x="240" y="225" type="qcurve"/>
      <point x="240" y="225"/>
      <point x="240" y="224" type="qcurve"/>
      <point x="239" y="215"/>
      <point x="234" y="171"/>
      <point x="232" y="159" type="qcurve"/>
      <point x="230" y="146"/>
      <point x="230" y="138" type="qcurve"/>
      <point x="230" y="105"/>
      <point x="252" y="82" type="qcurve"/>
      <point x="287" y="47" type="line"/>
      <point x="291" y="48"/>
      <point x="294" y="51" type="qcurve"/>
      <point x="330" y="86" type="line"/>
      <point x="344" y="101"/>
      <point x="344" y="136" type="qcurve"/>
      <point x="344" y="148"/>
      <point x="341" y="155" type="qcurve"/>
      <point x="323" y="194"/>
      <point x="307" y="224" type="qcurve"/>
      <point x="306" y="224"/>
      <point x="306" y="225" type="qcurve"/>
      <point x="357" y="618"/>
      <point x="417" y="725" type="qcurve"/>
      <point x="418" y="727"/>
      <point x="423" y="727" type="qcurve"/>
      <point x="424" y="727"/>
      <point x="425" y="726" type="qcurve"/>
      <point x="458" y="693" type="line"/>
      <point x="460" y="691"/>
      <point x="462" y="690" type="qcurve"/>
      <point x="494" y="722" type="line"/>
      <point x="483" y="733" type="line"/>
      <point x="483" y="733"/>
      <point x="479" y="739" type="qcurve"/>
      <point x="473" y="748"/>
      <point x="469" y="751" type="qcurve"/>
      <point x="434" y="786" type="line"/>
      <point x="429" y="791"/>
      <point x="424" y="793" type="qcurve"/>
      <point x="413" y="793"/>
      <point x="403" y="782" type="qcurve"/>
      <point x="368" y="747" type="line"/>
      <point x="307" y="686"/>
      <point x="252" y="313" type="qcurve"/>
      <point x="252" y="310"/>
      <point x="250" y="310" type="qcurve"/>
      <point x="249" y="310"/>
      <point x="248" y="311" type="qcurve"/>
      <point x="236" y="326"/>
      <point x="188" y="374" type="qcurve"/>
      <point x="156" y="405"/>
      <point x="122" y="423" type="qcurve"/>
      <point x="120" y="424"/>
      <point x="120" y="426" type="qcurve"/>
      <point x="120" y="427"/>
      <point x="121" y="428" type="qcurve"/>
      <point x="157" y="458"/>
      <point x="179" y="480" type="qcurve"/>
      <point x="214" y="515" type="line"/>
      <point x="285" y="585"/>
      <point x="289" y="644" type="qcurve"/>
      <point x="289" y="645"/>
      <point x="289" y="645" type="qcurve"/>
      <point x="317" y="715"/>
      <point x="321" y="722" type="qcurve"/>
      <point x="321" y="723"/>
      <point x="321" y="724" type="qcurve"/>
      <point x="321" y="730"/>
      <point x="326" y="748"/>
      <point x="335" y="772"/>
      <point x="337" y="776" type="qcurve"/>
      <point x="309" y="803"/>
      <point x="304" y="808" type="qcurve"/>
      <point x="270" y="775" type="line"/>
      <point x="269" y="773"/>
      <point x="267" y="769" type="qcurve"/>
      <point x="267" y="769"/>
      <point x="266" y="768" type="qcurve"/>
      <point x="262" y="764"/>
      <point x="256" y="757" type="qcurve"/>
      <point x="243" y="747"/>
      <point x="231" y="743" type="qcurve"/>
      <point x="227" y="741"/>
      <point x="219" y="737" type="qcurve"/>
      <point x="219" y="737"/>
      <point x="218" y="737" type="qcurve"/>
      <point x="216" y="737"/>
      <point x="216" y="740" type="qcurve"/>
      <point x="216" y="741"/>
      <point x="216" y="741" type="qcurve"/>
      <point x="225" y="750"/>
      <point x="225" y="756" type="qcurve"/>
      <point x="190" y="791" type="line"/>
      <point x="189" y="791"/>
      <point x="189" y="791" type="qcurve"/>
      <point x="189" y="791"/>
      <point x="188" y="791" type="qcurve"/>
      <point x="184" y="791"/>
      <point x="179" y="786" type="qcurve"/>
      <point x="143" y="750" type="line"/>
      <point x="143" y="750"/>
      <point x="142" y="749" type="qcurve"/>
      <point x="140" y="747"/>
      <point x="139" y="746" type="qcurve"/>
      <point x="124" y="740"/>
      <point x="112" y="737" type="qcurve"/>
      <point x="111" y="737"/>
      <point x="111" y="737" type="qcurve"/>
      <point x="108" y="737"/>
      <point x="108" y="739" type="qcurve"/>
      <point x="108" y="740"/>
      <point x="109" y="741" type="qcurve"/>
      <point x="118" y="750" type="line"/>
      <point x="121" y="752"/>
      <point x="121" y="757" type="qcurve"/>
      <point x="87" y="791" type="line"/>
      <point x="74" y="795"/>
      <point x="62" y="797" type="qcurve"/>
      <point x="44" y="779" type="line"/>
      <point x="43" y="778"/>
      <point x="42" y="778" type="qcurve"/>
      <point x="40" y="778"/>
      <point x="38" y="780" type="qcurve"/>
      <point x="3" y="815" type="line"/>
      <point x="2" y="816"/>
      <point x="1" y="817" type="qcurve"/>
      <point x="-32" y="784" type="line"/>
      <point x="-24" y="776" type="line"/>
      <point x="-24" y="776"/>
      <point x="-23" y="776" type="qcurve"/>
      <point x="-21" y="771"/>
      <point x="-19" y="769" type="qcurve"/>
      <point x="16" y="734" type="line"/>
      <point x="19" y="731"/>
      <point x="19" y="730" type="qcurve"/>
      <point x="19" y="729"/>
      <point x="18" y="725"/>
      <point x="18" y="724" type="qcurve"/>
      <point x="18" y="718"/>
      <point x="22" y="714" type="qcurve"/>
      <point x="58" y="679" type="line"/>
      <point x="64" y="673"/>
      <point x="91" y="669" type="qcurve"/>
      <point x="95" y="669"/>
      <point x="96" y="669" type="qcurve"/>
      <point x="110" y="669"/>
      <point x="136" y="679" type="qcurve"/>
      <point x="136" y="680"/>
      <point x="137" y="680" type="qcurve"/>
      <point x="138" y="680"/>
      <point x="138" y="679" type="qcurve"/>
      <point x="158" y="659" type="line"/>
      <point x="160" y="657"/>
    </contour>
  </outline>
</glyph>
<glyph name="uni0994" format="2">
  <advance width="368"/>
  <unicode hex="0994"/>
  <outline>
    <contour>
      <point x="139" y="975" type="qcurve"/>
      <point x="151" y="975"/>
      <point x="196" y="984"/>
      <point x="208" y="984" type="qcurve"/>
      <point x="226" y="984"/>
      <point x="234" y="976" type="qcurve"/>
      <point x="270" y="941" type="line"/>
      <point x="276" y="934"/>
      <point x="276" y="924" type="qcurve"/>
      <point x="276" y="909"/>
      <point x="263" y="880"/>
      <point x="251" y="864"/>
      <point x="239" y="850" type="qcurve"/>
      <point x="212" y="818"/>
      <point x="212" y="800" type="qcurve"/>
      <point x="212" y="796"/>
      <point x="221" y="784" type="qcurve"/>
      <point x="226" y="782" type="line"/>
      <point x="234" y="782"/>
      <point x="256" y="790" type="qcurve"/>
      <point x="273" y="797"/>
      <point x="282" y="798" type="qcurve"/>
      <point x="289" y="799"/>
      <point x="319" y="800"/>
      <point x="355" y="802"/>
      <point x="363" y="802" type="qcurve"/>
      <point x="368" y="807" type="line"/>
      <point x="369" y="808"/>
      <point x="370" y="808" type="qcurve"/>
      <point x="381" y="806"/>
      <point x="383" y="804" type="qcurve"/>
      <point x="418" y="769" type="line"/>
      <point x="419" y="768"/>
      <point x="419" y="766"/>
      <point x="418" y="765" type="qcurve"/>
      <point x="383" y="729" type="line"/>
      <point x="381" y="728"/>
      <point x="368" y="727" type="qcurve"/>
      <point x="361" y="726"/>
      <point x="293" y="724"/>
      <point x="282" y="722" type="qcurve"/>
      <point x="274" y="721"/>
      <point x="237" y="707"/>
      <point x="226" y="706" type="qcurve"/>
      <point x="218" y="706"/>
      <point x="200" y="724" type="qcurve"/>
      <point x="165" y="759" type="line"/>
      <point x="136" y="788"/>
      <point x="136" y="800" type="qcurve"/>
      <point x="136" y="820"/>
      <point x="165" y="853" type="qcurve"/>
      <point x="193" y="886"/>
      <point x="198" y="908" type="qcurve"/>
      <point x="191" y="907"/>
      <point x="151" y="899"/>
      <point x="139" y="899" type="qcurve"/>
      <point x="87" y="899"/>
      <point x="52" y="934" type="qcurve"/>
      <point x="16" y="969" type="line"/>
      <point x="-13" y="999"/>
      <point x="-13" y="1041" type="qcurve"/>
      <point x="-13" y="1051"/>
      <point x="-9" y="1074" type="qcurve"/>
      <point x="-3" y="1112"/>
      <point x="-3" y="1130" type="qcurve"/>
      <point x="-3" y="1139"/>
      <point x="-4" y="1148" type="qcurve"/>
      <point x="-4" y="1149"/>
      <point x="-3" y="1150" type="qcurve"/>
      <point x="32" y="1185" type="line"/>
      <point x="33" y="1186"/>
      <point x="35" y="1186"/>
      <point x="36" y="1185" type="qcurve"/>
      <point x="71" y="1150" type="line"/>
      <point x="72" y="1149"/>
      <point x="72" y="1148" type="qcurve"/>
      <point x="73" y="1139"/>
      <point x="73" y="1130" type="qcurve"/>
      <point x="73" y="1113"/>
      <point x="64" y="1060" type="qcurve"/>
      <point x="62" y="1050"/>
      <point x="62" y="1041" type="qcurve"/>
      <point x="62" y="1015"/>
      <point x="75" y="993" type="qcurve"/>
      <point x="104" y="975"/>
    </contour>
    <contour>
      <point x="139" y="904" type="qcurve"/>
      <point x="151" y="904"/>
      <point x="192" y="912"/>
      <point x="201" y="913" type="qcurve"/>
      <point x="204" y="913"/>
      <point x="204" y="910" type="qcurve"/>
      <point x="199" y="886"/>
      <point x="169" y="850" type="qcurve"/>
      <point x="141" y="818"/>
      <point x="141" y="800" type="qcurve"/>
      <point x="141" y="790"/>
      <point x="168" y="763" type="qcurve"/>
      <point x="204" y="727" type="line"/>
      <point x="220" y="711"/>
      <point x="226" y="711" type="qcurve"/>
      <point x="236" y="712"/>
      <point x="273" y="726"/>
      <point x="282" y="727" type="qcurve"/>
      <point x="293" y="729"/>
      <point x="374" y="731"/>
      <point x="379" y="733" type="qcurve"/>
      <point x="413" y="767" type="line"/>
      <point x="379" y="801" type="line"/>
      <point x="377" y="802"/>
      <point x="371" y="803" type="qcurve"/>
      <point x="366" y="798" type="line"/>
      <point x="365" y="797"/>
      <point x="364" y="797" type="qcurve"/>
      <point x="360" y="797"/>
      <point x="292" y="794"/>
      <point x="282" y="793" type="qcurve"/>
      <point x="274" y="792"/>
      <point x="236" y="777"/>
      <point x="226" y="777" type="qcurve"/>
      <point x="223" y="777"/>
      <point x="218" y="780" type="qcurve"/>
      <point x="217" y="780"/>
      <point x="217" y="781" type="qcurve"/>
      <point x="207" y="794"/>
      <point x="207" y="800" type="qcurve"/>
      <point x="207" y="820"/>
      <point x="236" y="853" type="qcurve"/>
      <point x="247" y="867"/>
      <point x="259" y="882"/>
      <point x="271" y="910"/>
      <point x="271" y="924" type="qcurve"/>
      <point x="271" y="932"/>
      <point x="266" y="937" type="qcurve"/>
      <point x="231" y="972" type="line"/>
      <point x="224" y="979"/>
      <point x="208" y="979" type="qcurve"/>
      <point x="196" y="979"/>
      <point x="151" y="970"/>
      <point x="139" y="970" type="qcurve"/>
      <point x="102" y="970"/>
      <point x="72" y="989" type="qcurve"/>
      <point x="57" y="1013"/>
      <point x="57" y="1041" type="qcurve"/>
      <point x="57" y="1051"/>
      <point x="61" y="1072" type="qcurve"/>
      <point x="68" y="1112"/>
      <point x="68" y="1130" type="qcurve"/>
      <point x="68" y="1139"/>
      <point x="67" y="1147" type="qcurve"/>
      <point x="34" y="1180" type="line"/>
      <point x="1" y="1147" type="line"/>
      <point x="2" y="1139"/>
      <point x="2" y="1130" type="qcurve"/>
      <point x="2" y="1111"/>
      <point x="-5" y="1071" type="qcurve"/>
      <point x="-8" y="1051"/>
      <point x="-8" y="1041" type="qcurve"/>
      <point x="-8" y="1001"/>
      <point x="20" y="973" type="qcurve"/>
      <point x="55" y="938" type="line"/>
      <point x="89" y="904"/>
    </contour>
    <contour>
      <point x="235" y="318" type="qcurve"/>
      <point x="235" y="320"/>
      <point x="236" y="330"/>
      <point x="236" y="332" type="qcurve"/>
      <point x="236" y="405"/>
      <point x="197" y="458" type="qcurve"/>
      <point x="191" y="462"/>
      <point x="185" y="466" type="qcurve"/>
      <point x="179" y="459" type="line"/>
      <point x="140" y="420"/>
      <point x="93" y="420" type="qcurve"/>
      <point x="89" y="420"/>
      <point x="85" y="424" type="qcurve"/>
      <point x="50" y="460" type="line"/>
      <point x="43" y="466"/>
      <point x="31" y="495"/>
      <point x="31" y="504" type="qcurve"/>
      <point x="31" y="509"/>
      <point x="35" y="513" type="qcurve"/>
      <point x="71" y="548" type="line"/>
      <point x="82" y="560"/>
      <point x="109" y="560" type="qcurve"/>
      <point x="111" y="560"/>
      <point x="113" y="560" type="qcurve"/>
      <point x="146" y="560"/>
      <point x="174" y="548" type="qcurve"/>
      <point x="187" y="577"/>
      <point x="187" y="605" type="qcurve"/>
      <point x="187" y="615"/>
      <point x="185" y="624" type="qcurve"/>
      <point x="175" y="683"/>
      <point x="156" y="715" type="qcurve"/>
      <point x="149" y="719"/>
      <point x="142" y="721" type="qcurve"/>
      <point x="108" y="687" type="line"/>
      <point x="96" y="675"/>
      <point x="75" y="674" type="qcurve"/>
      <point x="74" y="674"/>
      <point x="73" y="675" type="qcurve"/>
      <point x="38" y="710" type="line"/>
      <point x="37" y="711"/>
      <point x="37" y="713" type="qcurve"/>
      <point x="37" y="730"/>
      <point x="49" y="745" type="qcurve"/>
      <point x="36" y="746"/>
      <point x="25" y="746" type="qcurve"/>
      <point x="11" y="744"/>
      <point x="8" y="743" type="qcurve"/>
      <point x="8" y="742"/>
      <point x="7" y="742" type="qcurve"/>
      <point x="6" y="742"/>
      <point x="5" y="743" type="qcurve"/>
      <point x="-30" y="778" type="line"/>
      <point x="-31" y="779"/>
      <point x="-31" y="781"/>
      <point x="-30" y="782" type="qcurve"/>
      <point x="5" y="817" type="line"/>
      <point x="7" y="819"/>
      <point x="25" y="822" type="qcurve"/>
      <point x="87" y="822"/>
      <point x="110" y="799" type="qcurve"/>
      <point x="112" y="797" type="line"/>
      <point x="117" y="798"/>
      <point x="121" y="798" type="qcurve"/>
      <point x="124" y="798"/>
      <point x="127" y="798" type="qcurve"/>
      <point x="157" y="798"/>
      <point x="179" y="776" type="qcurve"/>
      <point x="214" y="740" type="line"/>
      <point x="247" y="708"/>
      <point x="261" y="624" type="qcurve"/>
      <point x="262" y="615"/>
      <point x="262" y="605" type="qcurve"/>
      <point x="262" y="554"/>
      <point x="227" y="509" type="qcurve"/>
      <point x="255" y="481" type="line"/>
      <point x="311" y="425"/>
      <point x="311" y="332" type="qcurve"/>
      <point x="311" y="325"/>
      <point x="311" y="318" type="qcurve"/>
      <point x="313" y="306"/>
      <point x="313" y="295" type="qcurve"/>
      <point x="313" y="223"/>
      <point x="246" y="156" type="qcurve"/>
      <point x="211" y="121" type="line"/>
      <point x="189" y="99"/>
      <point x="160" y="79" type="qcurve"/>
      <point x="131" y="57"/>
      <point x="100" y="57" type="qcurve"/>
      <point x="73" y="57"/>
      <point x="57" y="74" type="qcurve"/>
      <point x="21" y="109" type="line"/>
      <point x="3" y="127"/>
      <point x="3" y="162" type="qcurve"/>
      <point x="3" y="174" type="line"/>
      <point x="-15" y="270" type="line"/>
      <point x="-15" y="271"/>
      <point x="-14" y="272" type="qcurve"/>
      <point x="21" y="307" type="line"/>
      <point x="22" y="308"/>
      <point x="24" y="308"/>
      <point x="25" y="307" type="qcurve"/>
      <point x="60" y="272" type="line"/>
      <point x="61" y="271"/>
      <point x="61" y="270" type="qcurve"/>
      <point x="79" y="174" type="line"/>
      <point x="79" y="162" type="line"/>
      <point x="79" y="147"/>
      <point x="82" y="135" type="qcurve"/>
      <point x="91" y="133"/>
      <point x="100" y="133" type="qcurve"/>
      <point x="129" y="133"/>
      <point x="158" y="153" type="qcurve"/>
      <point x="174" y="165"/>
      <point x="189" y="178" type="qcurve"/>
      <point x="237" y="235"/>
      <point x="237" y="295" type="qcurve"/>
      <point x="237" y="306"/>
    </contour>
    <contour>
      <point x="7" y="748" type="line"/>
      <point x="10" y="749"/>
      <point x="25" y="751" type="qcurve"/>
      <point x="38" y="751"/>
      <point x="54" y="749" type="qcurve"/>
      <point x="57" y="749"/>
      <point x="57" y="746" type="qcurve"/>
      <point x="57" y="745"/>
      <point x="56" y="745" type="qcurve"/>
      <point x="42" y="731"/>
      <point x="42" y="713" type="qcurve"/>
      <point x="76" y="679" type="line"/>
      <point x="95" y="681"/>
      <point x="105" y="691" type="qcurve"/>
      <point x="139" y="725" type="line"/>
      <point x="140" y="726"/>
      <point x="141" y="726" type="qcurve"/>
      <point x="151" y="724"/>
      <point x="159" y="720" type="qcurve"/>
      <point x="160" y="719"/>
      <point x="160" y="719" type="qcurve"/>
      <point x="180" y="686"/>
      <point x="190" y="624" type="qcurve"/>
      <point x="192" y="615"/>
      <point x="192" y="605" type="qcurve"/>
      <point x="192" y="574"/>
      <point x="177" y="543" type="qcurve"/>
      <point x="177" y="542"/>
      <point x="175" y="542" type="qcurve"/>
      <point x="175" y="542"/>
      <point x="174" y="542" type="qcurve"/>
      <point x="146" y="555"/>
      <point x="113" y="555" type="qcurve"/>
      <point x="111" y="555"/>
      <point x="109" y="555" type="qcurve"/>
      <point x="84" y="555"/>
      <point x="74" y="545" type="qcurve"/>
      <point x="39" y="510" type="line"/>
      <point x="36" y="507"/>
      <point x="36" y="504" type="qcurve"/>
      <point x="36" y="497"/>
      <point x="47" y="469"/>
      <point x="53" y="463" type="qcurve"/>
      <point x="89" y="428" type="line"/>
      <point x="91" y="425"/>
      <point x="93" y="425" type="qcurve"/>
      <point x="138" y="425"/>
      <point x="175" y="463" type="qcurve"/>
      <point x="183" y="470" type="line"/>
      <point x="184" y="471"/>
      <point x="185" y="471" type="qcurve"/>
      <point x="186" y="471"/>
      <point x="186" y="471" type="qcurve"/>
      <point x="194" y="467"/>
      <point x="200" y="462" type="qcurve"/>
      <point x="201" y="462"/>
      <point x="201" y="461" type="qcurve"/>
      <point x="241" y="407"/>
      <point x="241" y="332" type="qcurve"/>
      <point x="241" y="325"/>
      <point x="240" y="318" type="qcurve"/>
      <point x="242" y="306"/>
      <point x="242" y="295" type="qcurve"/>
      <point x="242" y="233"/>
      <point x="192" y="174" type="qcurve"/>
      <point x="177" y="161"/>
      <point x="160" y="149" type="qcurve"/>
      <point x="131" y="128"/>
      <point x="100" y="128" type="qcurve"/>
      <point x="89" y="128"/>
      <point x="80" y="131" type="qcurve"/>
      <point x="79" y="131"/>
      <point x="78" y="133" type="qcurve"/>
      <point x="74" y="146"/>
      <point x="74" y="162" type="qcurve"/>
      <point x="74" y="174" type="line"/>
      <point x="56" y="269" type="line"/>
      <point x="23" y="302" type="line"/>
      <point x="-10" y="269" type="line"/>
      <point x="8" y="174" type="line"/>
      <point x="8" y="162" type="line"/>
      <point x="8" y="130"/>
      <point x="25" y="113" type="qcurve"/>
      <point x="60" y="77" type="line"/>
      <point x="75" y="62"/>
      <point x="100" y="62" type="qcurve"/>
      <point x="129" y="62"/>
      <point x="186" y="103"/>
      <point x="208" y="125" type="qcurve"/>
      <point x="243" y="160" type="line"/>
      <point x="308" y="225"/>
      <point x="308" y="295" type="qcurve"/>
      <point x="308" y="306"/>
      <point x="306" y="318" type="qcurve"/>
      <point x="306" y="320"/>
      <point x="306" y="330"/>
      <point x="306" y="332" type="qcurve"/>
      <point x="306" y="423"/>
      <point x="251" y="477" type="qcurve"/>
      <point x="222" y="507" type="line"/>
      <point x="221" y="508"/>
      <point x="221" y="510"/>
      <point x="222" y="510" type="qcurve"/>
      <point x="257" y="554"/>
      <point x="257" y="605" type="qcurve"/>
      <point x="257" y="615"/>
      <point x="256" y="624" type="qcurve"/>
      <point x="242" y="706"/>
      <point x="211" y="737" type="qcurve"/>
      <point x="175" y="772" type="line"/>
      <point x="155" y="793"/>
      <point x="127" y="793" type="qcurve"/>
      <point x="126" y="793"/>
      <point x="122" y="793"/>
      <point x="121" y="793" type="qcurve"/>
      <point x="116" y="793"/>
      <point x="112" y="792" type="qcurve"/>
      <point x="111" y="792"/>
      <point x="111" y="792" type="qcurve"/>
      <point x="110" y="792"/>
      <point x="106" y="796" type="qcurve"/>
      <point x="95" y="807"/>
      <point x="44" y="817"/>
      <point x="25" y="817" type="qcurve"/>
      <point x="11" y="815"/>
      <point x="9" y="813" type="qcurve"/>
      <point x="-25" y="780" type="line"/>
    </contour>
  </outline>
</glyph>
<glyph name="uni0996" format="2">
  <advance width="524"/>
  <unicode hex="0996"/>
  <outline>
    <contour>
      <point x="403" y="142" type="qcurve"/>
      <point x="403" y="140"/>
      <point x="402" y="130"/>
      <point x="402" y="128" type="qcurve"/>
      <point x="402" y="98"/>
      <point x="395" y="91" type="qcurve"/>
      <point x="359" y="56" type="line"/>
      <point x="358" y="54"/>
      <point x="356" y="54" type="qcurve"/>
      <point x="353" y="54"/>
      <point x="350" y="57" type="qcurve"/>
      <point x="315" y="92" type="line"/>
      <point x="311" y="96"/>
      <point x="311" y="110" type="qcurve"/>
      <point x="311" y="111"/>
      <point x="311" y="116"/>
      <point x="311" y="117" type="qcurve"/>
      <point x="311" y="134"/>
      <point x="307" y="141" type="qcurve"/>
      <point x="293" y="162"/>
      <point x="287" y="216" type="qcurve"/>
      <point x="214" y="272"/>
      <point x="80" y="300" type="qcurve"/>
      <point x="64" y="300" type="line"/>
      <point x="24" y="294" type="line"/>
      <point x="23" y="294"/>
      <point x="22" y="295" type="qcurve"/>
      <point x="-13" y="330" type="line"/>
      <point x="-14" y="331"/>
      <point x="-14" y="333"/>
      <point x="-13" y="334" type="qcurve"/>
      <point x="22" y="369" type="line"/>
      <point x="22" y="369"/>
      <point x="23" y="370" type="qcurve"/>
      <point x="108" y="415" type="line"/>
      <point x="119" y="429"/>
      <point x="225" y="537"/>
      <point x="246" y="571" type="qcurve"/>
      <point x="194" y="523"/>
      <point x="139" y="523" type="qcurve"/>
      <point x="131" y="523"/>
      <point x="124" y="524" type="qcurve"/>
      <point x="54" y="524"/>
      <point x="30" y="549" type="qcurve"/>
      <point x="-6" y="584" type="line"/>
      <point x="-26" y="604"/>
      <point x="-26" y="644" type="qcurve"/>
      <point x="-26" y="694"/>
      <point x="2" y="729" type="qcurve"/>
      <point x="-20" y="752" type="line"/>
      <point x="-35" y="766"/>
      <point x="-40" y="783" type="qcurve"/>
      <point x="-40" y="784"/>
      <point x="-40" y="784" type="qcurve"/>
      <point x="-40" y="785"/>
      <point x="-39" y="786" type="qcurve"/>
      <point x="-4" y="821" type="line"/>
      <point x="-3" y="822"/>
      <point x="-1" y="822"/>
      <point x="0" y="821" type="qcurve"/>
      <point x="35" y="786" type="line"/>
      <point x="36" y="785"/>
      <point x="36" y="785" type="qcurve"/>
      <point x="37" y="780"/>
      <point x="40" y="775" type="qcurve"/>
      <point x="42" y="773"/>
      <point x="44" y="772" type="qcurve"/>
      <point x="74" y="802"/>
      <point x="116" y="802" type="qcurve"/>
      <point x="128" y="802"/>
      <point x="134" y="796" type="qcurve"/>
      <point x="170" y="760" type="line"/>
      <point x="172" y="758"/>
      <point x="172" y="756" type="qcurve"/>
      <point x="172" y="738"/>
      <point x="162" y="728" type="qcurve"/>
      <point x="127" y="693" type="line"/>
      <point x="116" y="682"/>
      <point x="96" y="682" type="qcurve"/>
      <point x="77" y="683"/>
      <point x="57" y="690" type="qcurve"/>
      <point x="50" y="668"/>
      <point x="50" y="644" type="qcurve"/>
      <point x="50" y="624"/>
      <point x="55" y="609" type="qcurve"/>
      <point x="78" y="600"/>
      <point x="124" y="600" type="qcurve"/>
      <point x="132" y="599"/>
      <point x="139" y="599" type="qcurve"/>
      <point x="187" y="599"/>
      <point x="233" y="637" type="qcurve"/>
      <point x="246" y="653"/>
      <point x="261" y="673" type="qcurve"/>
      <point x="264" y="678"/>
      <point x="267" y="681" type="qcurve"/>
      <point x="302" y="716" type="line"/>
      <point x="306" y="721"/>
      <point x="310" y="721" type="qcurve"/>
      <point x="312" y="721"/>
      <point x="314" y="719" type="qcurve"/>
      <point x="349" y="684" type="line"/>
      <point x="352" y="681"/>
      <point x="352" y="675" type="qcurve"/>
      <point x="352" y="674" type="line"/>
      <point x="352" y="647"/>
      <point x="335" y="595"/>
      <point x="317" y="560"/>
      <point x="275" y="509"/>
      <point x="256" y="489"/>
      <point x="230" y="463" type="qcurve"/>
      <point x="181" y="414"/>
      <point x="161" y="385" type="qcurve"/>
      <point x="161" y="385"/>
      <point x="161" y="384" type="qcurve"/>
      <point x="139" y="362" type="line"/>
      <point x="228" y="336"/>
      <point x="284" y="295" type="qcurve"/>
      <point x="284" y="301"/>
      <point x="284" y="305" type="qcurve"/>
      <point x="284" y="320" type="line"/>
      <point x="285" y="402"/>
      <point x="306" y="471" type="qcurve"/>
      <point x="315" y="498"/>
      <point x="343" y="620"/>
      <point x="373" y="704"/>
      <point x="397" y="737" type="qcurve"/>
      <point x="403" y="747"/>
      <point x="414" y="758" type="qcurve"/>
      <point x="450" y="793" type="line"/>
      <point x="484" y="828"/>
      <point x="511" y="828" type="qcurve"/>
      <point x="520" y="828"/>
      <point x="527" y="823" type="qcurve"/>
      <point x="528" y="823"/>
      <point x="528" y="823" type="qcurve"/>
      <point x="563" y="788" type="line"/>
      <point x="564" y="787"/>
      <point x="564" y="785"/>
      <point x="563" y="784" type="qcurve"/>
      <point x="528" y="749" type="line"/>
      <point x="527" y="748"/>
      <point x="526" y="748" type="qcurve"/>
      <point x="525" y="748"/>
      <point x="525" y="749" type="qcurve"/>
      <point x="519" y="752"/>
      <point x="511" y="752" type="qcurve"/>
      <point x="494" y="752"/>
      <point x="472" y="736" type="qcurve"/>
      <point x="472" y="735"/>
      <point x="471" y="735" type="qcurve"/>
      <point x="448" y="702"/>
      <point x="419" y="618"/>
      <point x="390" y="496"/>
      <point x="382" y="469" type="qcurve"/>
      <point x="361" y="401"/>
      <point x="360" y="320" type="qcurve"/>
      <point x="360" y="305" type="line"/>
      <point x="360" y="253"/>
      <point x="363" y="220" type="qcurve"/>
      <point x="390" y="189"/>
      <point x="402" y="151" type="qcurve"/>
      <point x="403" y="147"/>
    </contour>
    <contour>
      <point x="316" y="117" type="qcurve"/>
      <point x="316" y="116"/>
      <point x="316" y="111"/>
      <point x="316" y="110" type="qcurve"/>
      <point x="316" y="98"/>
      <point x="318" y="96" type="qcurve"/>
      <point x="354" y="60" type="line"/>
      <point x="355" y="59"/>
      <point x="356" y="59" type="qcurve"/>
      <point x="391" y="95" type="line"/>
      <point x="393" y="97"/>
      <point x="397" y="124"/>
      <point x="397" y="128" type="qcurve"/>
      <point x="397" y="130"/>
      <point x="398" y="140"/>
      <point x="398" y="142" type="qcurve"/>
      <point x="398" y="146"/>
      <point x="397" y="149" type="qcurve"/>
      <point x="385" y="187"/>
      <point x="358" y="218" type="qcurve"/>
      <point x="358" y="218"/>
      <point x="358" y="219" type="qcurve"/>
      <point x="355" y="253"/>
      <point x="355" y="305" type="qcurve"/>
      <point x="355" y="320" type="line"/>
      <point x="356" y="402"/>
      <point x="377" y="471" type="qcurve"/>
      <point x="385" y="498"/>
      <point x="414" y="620"/>
      <point x="444" y="704"/>
      <point x="467" y="737" type="qcurve"/>
      <point x="469" y="739"/>
      <point x="469" y="740" type="qcurve"/>
      <point x="493" y="757"/>
      <point x="511" y="757" type="qcurve"/>
      <point x="519" y="757"/>
      <point x="526" y="754" type="qcurve"/>
      <point x="558" y="786" type="line"/>
      <point x="524" y="819" type="line"/>
      <point x="518" y="823"/>
      <point x="511" y="823" type="qcurve"/>
      <point x="486" y="823"/>
      <point x="453" y="790" type="qcurve"/>
      <point x="418" y="755" type="line"/>
      <point x="407" y="744"/>
      <point x="401" y="735" type="qcurve"/>
      <point x="378" y="702"/>
      <point x="348" y="618"/>
      <point x="319" y="496"/>
      <point x="311" y="469" type="qcurve"/>
      <point x="290" y="401"/>
      <point x="289" y="320" type="qcurve"/>
      <point x="289" y="305" type="line"/>
      <point x="289" y="299"/>
      <point x="289" y="290" type="qcurve"/>
      <point x="289" y="288"/>
      <point x="287" y="288" type="qcurve"/>
      <point x="286" y="288"/>
      <point x="285" y="288" type="qcurve"/>
      <point x="228" y="332"/>
      <point x="133" y="358" type="qcurve"/>
      <point x="131" y="358"/>
      <point x="131" y="360" type="qcurve"/>
      <point x="131" y="361"/>
      <point x="132" y="362" type="qcurve"/>
      <point x="157" y="388" type="line"/>
      <point x="177" y="417"/>
      <point x="231" y="471" type="qcurve"/>
      <point x="260" y="500"/>
      <point x="289" y="532"/>
      <point x="329" y="587"/>
      <point x="347" y="643"/>
      <point x="347" y="674" type="qcurve"/>
      <point x="347" y="679"/>
      <point x="345" y="680" type="qcurve"/>
      <point x="310" y="715" type="line"/>
      <point x="310" y="716" type="line"/>
      <point x="308" y="716"/>
      <point x="306" y="713" type="qcurve"/>
      <point x="270" y="678" type="line"/>
      <point x="268" y="675"/>
      <point x="265" y="671" type="qcurve"/>
      <point x="250" y="650"/>
      <point x="236" y="633" type="qcurve"/>
      <point x="189" y="594"/>
      <point x="139" y="594" type="qcurve"/>
      <point x="131" y="594"/>
      <point x="124" y="595" type="qcurve"/>
      <point x="76" y="595"/>
      <point x="52" y="605" type="qcurve"/>
      <point x="51" y="605"/>
      <point x="51" y="606" type="qcurve"/>
      <point x="45" y="622"/>
      <point x="45" y="644" type="qcurve"/>
      <point x="45" y="670"/>
      <point x="53" y="694" type="qcurve"/>
      <point x="54" y="696"/>
      <point x="56" y="696" type="qcurve"/>
      <point x="56" y="696"/>
      <point x="57" y="696" type="qcurve"/>
      <point x="77" y="688"/>
      <point x="96" y="687" type="qcurve"/>
      <point x="114" y="687"/>
      <point x="123" y="696" type="qcurve"/>
      <point x="158" y="732" type="line"/>
      <point x="167" y="740"/>
      <point x="167" y="756" type="qcurve"/>
      <point x="167" y="756"/>
      <point x="166" y="757" type="qcurve"/>
      <point x="131" y="792" type="line"/>
      <point x="126" y="797"/>
      <point x="116" y="797" type="qcurve"/>
      <point x="76" y="797"/>
      <point x="49" y="770" type="qcurve"/>
      <point x="45" y="767"/>
      <point x="44" y="767" type="qcurve"/>
      <point x="44" y="767"/>
      <point x="43" y="767" type="qcurve"/>
      <point x="40" y="769"/>
      <point x="37" y="771" type="qcurve"/>
      <point x="36" y="771"/>
      <point x="36" y="772" type="qcurve"/>
      <point x="33" y="777"/>
      <point x="31" y="783" type="qcurve"/>
      <point x="-2" y="816" type="line"/>
      <point x="-35" y="783" type="line"/>
      <point x="-30" y="768"/>
      <point x="-17" y="755" type="qcurve"/>
      <point x="7" y="731" type="line"/>
      <point x="8" y="731"/>
      <point x="8" y="729"/>
      <point x="7" y="728" type="qcurve"/>
      <point x="-21" y="694"/>
      <point x="-21" y="644" type="qcurve"/>
      <point x="-21" y="606"/>
      <point x="-2" y="587" type="qcurve"/>
      <point x="33" y="552" type="line"/>
      <point x="56" y="529"/>
      <point x="124" y="529" type="qcurve"/>
      <point x="132" y="528"/>
      <point x="139" y="528" type="qcurve"/>
      <point x="196" y="528"/>
      <point x="250" y="582" type="qcurve"/>
      <point x="255" y="587" type="line"/>
      <point x="256" y="588"/>
      <point x="257" y="588" type="qcurve"/>
      <point x="259" y="588"/>
      <point x="259" y="585" type="qcurve"/>
      <point x="259" y="585"/>
      <point x="259" y="584" type="qcurve"/>
      <point x="244" y="554"/>
      <point x="193" y="496"/>
      <point x="128" y="431"/>
      <point x="111" y="412" type="qcurve"/>
      <point x="111" y="411"/>
      <point x="110" y="411" type="qcurve"/>
      <point x="26" y="365" type="line"/>
      <point x="-8" y="332" type="line"/>
      <point x="25" y="299" type="line"/>
      <point x="64" y="305" type="line"/>
      <point x="80" y="305" type="line"/>
      <point x="81" y="305" type="line"/>
      <point x="217" y="277"/>
      <point x="291" y="219" type="qcurve"/>
      <point x="292" y="218"/>
      <point x="292" y="217" type="qcurve"/>
      <point x="297" y="164"/>
      <point x="311" y="143" type="qcurve"/>
      <point x="316" y="135"/>
    </contour>
  </outline>
</glyph>
<glyph name="uni099E" format="2">
  <advance width="456"/>
  <unicode hex="099E"/>
  <outline>
    <contour>
      <point x="216" y="440" type="qcurve"/>
      <point x="216" y="453"/>
      <point x="219" y="481"/>
      <point x="225" y="513"/>
      <point x="230" y="535"/>
      <point x="240" y="571"/>
      <point x="245" y="587"/>
      <point x="258" y="627"/>
      <point x="260" y="632" type="qcurve"/>
      <point x="256" y="636" type="line"/>
      <point x="255" y="637"/>
      <point x="255" y="639"/>
      <point x="256" y="640" type="qcurve"/>
      <point x="265" y="649" type="line"/>
      <point x="269" y="660"/>
      <point x="271" y="669" type="qcurve"/>
      <point x="275" y="682"/>
      <point x="302" y="738"/>
      <point x="314" y="750" type="qcurve"/>
      <point x="349" y="786" type="line"/>
      <point x="355" y="792"/>
      <point x="360" y="792" type="qcurve"/>
      <point x="414" y="816" type="line"/>
      <point x="414" y="816"/>
      <point x="415" y="816" type="qcurve"/>
      <point x="463" y="818" type="line"/>
      <point x="464" y="818"/>
      <point x="465" y="817" type="qcurve"/>
      <point x="500" y="782" type="line"/>
      <point x="501" y="781"/>
      <point x="501" y="779"/>
      <point x="500" y="778" type="qcurve"/>
      <point x="465" y="743" type="line"/>
      <point x="464" y="742"/>
      <point x="463" y="742" type="qcurve"/>
      <point x="416" y="740" type="line"/>
      <point x="370" y="720" type="line"/>
      <point x="366" y="714"/>
      <point x="363" y="706" type="qcurve"/>
      <point x="375" y="709"/>
      <point x="385" y="709" type="qcurve"/>
      <point x="391" y="709"/>
      <point x="397" y="708" type="qcurve"/>
      <point x="422" y="708"/>
      <point x="439" y="691" type="qcurve"/>
      <point x="474" y="656" type="line"/>
      <point x="499" y="631"/>
      <point x="499" y="586" type="qcurve"/>
      <point x="499" y="570"/>
      <point x="478" y="515"/>
      <point x="464" y="500" type="qcurve"/>
      <point x="485" y="474"/>
      <point x="485" y="438" type="qcurve"/>
      <point x="485" y="436"/>
      <point x="485" y="434" type="qcurve"/>
      <point x="485" y="431"/>
      <point x="485" y="429" type="qcurve"/>
      <point x="485" y="391"/>
      <point x="458" y="364" type="qcurve"/>
      <point x="423" y="328" type="line"/>
      <point x="416" y="322"/>
      <point x="408" y="317" type="qcurve"/>
      <point x="408" y="316"/>
      <point x="407" y="316" type="qcurve"/>
      <point x="390" y="314"/>
      <point x="370" y="314" type="qcurve"/>
      <point x="295" y="314"/>
      <point x="267" y="342" type="qcurve"/>
      <point x="231" y="378" type="line"/>
      <point x="221" y="388"/>
      <point x="219" y="400" type="qcurve"/>
      <point x="216" y="419"/>
    </contour>
    <contour>
      <point x="361" y="787" type="qcurve"/>
      <point x="357" y="787"/>
      <point x="353" y="782" type="qcurve"/>
      <point x="317" y="747" type="line"/>
      <point x="306" y="736"/>
      <point x="280" y="680"/>
      <point x="276" y="667" type="qcurve"/>
      <point x="273" y="658"/>
      <point x="270" y="647" type="qcurve"/>
      <point x="270" y="647"/>
      <point x="269" y="646" type="qcurve"/>
      <point x="261" y="638" type="line"/>
      <point x="265" y="635" type="line"/>
      <point x="265" y="634"/>
      <point x="265" y="633" type="qcurve"/>
      <point x="265" y="632"/>
      <point x="265" y="632" type="qcurve"/>
      <point x="264" y="629"/>
      <point x="247" y="577"/>
      <point x="243" y="562"/>
      <point x="230" y="517"/>
      <point x="226" y="492"/>
      <point x="221" y="455"/>
      <point x="221" y="440" type="qcurve"/>
      <point x="221" y="420"/>
      <point x="224" y="400" type="qcurve"/>
      <point x="226" y="390"/>
      <point x="235" y="381" type="qcurve"/>
      <point x="270" y="346" type="line"/>
      <point x="297" y="319"/>
      <point x="370" y="319" type="qcurve"/>
      <point x="389" y="319"/>
      <point x="406" y="321" type="qcurve"/>
      <point x="413" y="326"/>
      <point x="419" y="332" type="qcurve"/>
      <point x="454" y="367" type="line"/>
      <point x="480" y="393"/>
      <point x="480" y="429" type="qcurve"/>
      <point x="480" y="430"/>
      <point x="480" y="433"/>
      <point x="480" y="435"/>
      <point x="480" y="437"/>
      <point x="480" y="438" type="qcurve"/>
      <point x="480" y="474"/>
      <point x="458" y="499" type="qcurve"/>
      <point x="458" y="500"/>
      <point x="458" y="502"/>
      <point x="460" y="503" type="qcurve"/>
      <point x="473" y="517"/>
      <point x="494" y="571"/>
      <point x="494" y="586" type="qcurve"/>
      <point x="494" y="629"/>
      <point x="471" y="652" type="qcurve"/>
      <point x="435" y="687" type="line"/>
      <point x="420" y="703"/>
      <point x="397" y="703" type="qcurve"/>
      <point x="396" y="703" type="line"/>
      <point x="391" y="704"/>
      <point x="385" y="704" type="qcurve"/>
      <point x="373" y="704"/>
      <point x="359" y="700" type="qcurve"/>
      <point x="359" y="700"/>
      <point x="358" y="700" type="qcurve"/>
      <point x="356" y="700"/>
      <point x="356" y="703" type="qcurve"/>
      <point x="356" y="703"/>
      <point x="356" y="704" type="qcurve"/>
      <point x="361" y="714"/>
      <point x="366" y="723" type="qcurve"/>
      <point x="366" y="724"/>
      <point x="367" y="724" type="qcurve"/>
      <point x="414" y="745" type="line"/>
      <point x="414" y="745"/>
      <point x="415" y="745" type="qcurve"/>
      <point x="462" y="747" type="line"/>
      <point x="495" y="780" type="line"/>
      <point x="462" y="813" type="line"/>
      <point x="416" y="811" type="line"/>
      <point x="362" y="787" type="line"/>
      <point x="362" y="787"/>
    </contour>
    <contour>
      <point x="407" y="459" type="line"/>
      <point x="407" y="459"/>
      <point x="409" y="459"/>
      <point x="410" y="459" type="qcurve"/>
      <point x="412" y="459"/>
      <point x="412" y="457" type="qcurve"/>
      <point x="414" y="448"/>
      <point x="414" y="438" type="qcurve"/>
      <point x="414" y="436"/>
      <point x="414" y="434" type="qcurve"/>
      <point x="414" y="431"/>
      <point x="414" y="429" type="qcurve"/>
      <point x="414" y="407"/>
      <point x="405" y="388" type="qcurve"/>
      <point x="404" y="386"/>
      <point x="403" y="386" type="qcurve"/>
      <point x="387" y="385"/>
      <point x="370" y="385" type="qcurve"/>
      <point x="322" y="385"/>
      <point x="291" y="397" type="qcurve"/>
      <point x="290" y="398"/>
      <point x="290" y="400" type="qcurve"/>
      <point x="287" y="419"/>
      <point x="287" y="440" type="qcurve"/>
      <point x="287" y="498"/>
      <point x="324" y="611" type="qcurve"/>
      <point x="326" y="618"/>
      <point x="327" y="622" type="qcurve"/>
      <point x="328" y="623"/>
      <point x="329" y="623" type="qcurve"/>
      <point x="362" y="638"/>
      <point x="385" y="638" type="qcurve"/>
      <point x="391" y="638"/>
      <point x="397" y="637" type="qcurve"/>
      <point x="408" y="637"/>
      <point x="417" y="634" type="qcurve"/>
      <point x="418" y="633"/>
      <point x="419" y="632" type="qcurve"/>
      <point x="428" y="611"/>
      <point x="428" y="586" type="qcurve"/>
      <point x="428" y="570"/>
      <point x="418" y="544" type="qcurve"/>
      <point x="418" y="542"/>
      <point x="416" y="542" type="qcurve"/>
      <point x="415" y="542"/>
      <point x="414" y="543" type="qcurve"/>
      <point x="397" y="557"/>
      <point x="375" y="557" type="qcurve"/>
      <point x="374" y="557"/>
      <point x="368" y="557"/>
      <point x="366" y="557"/>
      <point x="361" y="557"/>
      <point x="360" y="557" type="qcurve"/>
      <point x="349" y="557"/>
      <point x="345" y="553" type="qcurve"/>
      <point x="310" y="518" type="line"/>
      <point x="309" y="517"/>
      <point x="308" y="516" type="qcurve"/>
      <point x="308" y="509"/>
      <point x="313" y="505" type="qcurve"/>
      <point x="348" y="470" type="line"/>
      <point x="359" y="459"/>
      <point x="400" y="459" type="qcurve"/>
    </contour>
    <contour>
      <point x="409" y="433"/>
      <point x="409" y="435"/>
      <point x="409" y="437"/>
      <point x="409" y="438" type="qcurve"/>
      <point x="409" y="446"/>
      <point x="408" y="454" type="qcurve"/>
      <point x="407" y="454"/>
      <point x="407" y="454" type="qcurve"/>
      <point x="400" y="454" type="line"/>
      <point x="356" y="454"/>
      <point x="344" y="466" type="qcurve"/>
      <point x="309" y="502" type="line"/>
      <point x="303" y="507"/>
      <point x="303" y="516" type="qcurve"/>
      <point x="303" y="518"/>
      <point x="306" y="521" type="qcurve"/>
      <point x="342" y="557" type="line"/>
      <point x="347" y="562"/>
      <point x="360" y="562" type="qcurve"/>
      <point x="363" y="562"/>
      <point x="367" y="562" type="qcurve"/>
      <point x="371" y="562"/>
      <point x="375" y="562" type="qcurve"/>
      <point x="397" y="562"/>
      <point x="415" y="549" type="qcurve"/>
      <point x="423" y="573"/>
      <point x="423" y="586" type="qcurve"/>
      <point x="423" y="610"/>
      <point x="415" y="629" type="qcurve"/>
      <point x="406" y="632"/>
      <point x="397" y="632" type="qcurve"/>
      <point x="396" y="632" type="line"/>
      <point x="391" y="633"/>
      <point x="385" y="633" type="qcurve"/>
      <point x="363" y="633"/>
      <point x="332" y="619" type="qcurve"/>
      <point x="318" y="576"/>
      <point x="307" y="540"/>
      <point x="292" y="468"/>
      <point x="292" y="440" type="qcurve"/>
      <point x="292" y="420"/>
      <point x="295" y="401" type="qcurve"/>
      <point x="324" y="390"/>
      <point x="370" y="390" type="qcurve"/>
      <point x="386" y="390"/>
      <point x="401" y="391" type="qcurve"/>
      <point x="409" y="409"/>
      <point x="409" y="429" type="qcurve"/>
      <point x="409" y="430"/>
    </contour>
    <contour>
      <point x="113" y="704" type="qcurve"/>
      <point x="113" y="705"/>
      <point x="113" y="709"/>
      <point x="113" y="710" type="qcurve"/>
      <point x="113" y="724"/>
      <point x="118" y="738" type="qcurve"/>
      <point x="102" y="740"/>
      <point x="83" y="740" type="qcurve"/>
      <point x="1" y="736" type="line"/>
      <point x="0" y="736"/>
      <point x="-1" y="737" type="qcurve"/>
      <point x="-36" y="772" type="line"/>
      <point x="-37" y="773"/>
      <point x="-37" y="775"/>
      <point x="-36" y="776" type="qcurve"/>
      <point x="-1" y="811" type="line"/>
      <point x="0" y="812"/>
      <point x="1" y="812" type="qcurve"/>
      <point x="83" y="816" type="line"/>
      <point x="142" y="816"/>
      <point x="167" y="794" type="qcurve"/>
      <point x="183" y="810"/>
      <point x="205" y="810" type="qcurve"/>
      <point x="213" y="810"/>
      <point x="235" y="792"/>
      <point x="262" y="765"/>
      <point x="267" y="761" type="qcurve"/>
      <point x="302" y="726" type="line"/>
      <point x="303" y="725"/>
      <point x="303" y="725" type="qcurve"/>
      <point x="323" y="649" type="line"/>
      <point x="323" y="648" type="line"/>
      <point x="329" y="576" type="line"/>
      <point x="329" y="576"/>
      <point x="329" y="576" type="qcurve"/>
      <point x="323" y="522" type="line"/>
      <point x="323" y="522"/>
      <point x="323" y="521" type="qcurve"/>
      <point x="311" y="479" type="line"/>
      <point x="290" y="403"/>
      <point x="290" y="309" type="qcurve"/>
      <point x="290" y="263"/>
      <point x="295" y="212" type="qcurve"/>
      <point x="298" y="182"/>
      <point x="314" y="132" type="qcurve"/>
      <point x="327" y="118"/>
      <point x="327" y="110" type="qcurve"/>
      <point x="327" y="110"/>
      <point x="327" y="109" type="qcurve"/>
      <point x="327" y="104"/>
      <point x="325" y="103" type="qcurve"/>
      <point x="290" y="67" type="line"/>
      <point x="289" y="66"/>
      <point x="286" y="66"/>
      <point x="285" y="68" type="qcurve"/>
      <point x="250" y="103" type="line"/>
      <point x="247" y="106"/>
      <point x="243" y="116" type="qcurve"/>
      <point x="241" y="117"/>
      <point x="237" y="119"/>
      <point x="234" y="119"/>
      <point x="231" y="120"/>
      <point x="231" y="120" type="qcurve"/>
      <point x="206" y="120"/>
      <point x="162" y="102" type="qcurve"/>
      <point x="155" y="100"/>
      <point x="125" y="79"/>
      <point x="116" y="76" type="qcurve"/>
      <point x="107" y="74"/>
      <point x="92" y="65" type="qcurve"/>
      <point x="69" y="52"/>
      <point x="57" y="52" type="qcurve"/>
      <point x="41" y="52"/>
      <point x="31" y="62" type="qcurve"/>
      <point x="-4" y="97" type="line"/>
      <point x="-11" y="104"/>
      <point x="-19" y="123" type="qcurve"/>
      <point x="-24" y="138"/>
      <point x="-28" y="142" type="qcurve"/>
      <point x="-29" y="143"/>
      <point x="-29" y="145"/>
      <point x="-28" y="146" type="qcurve"/>
      <point x="13" y="187" type="line"/>
      <point x="14" y="188"/>
      <point x="16" y="188"/>
      <point x="17" y="187" type="qcurve"/>
      <point x="52" y="152" type="line"/>
      <point x="53" y="151"/>
      <point x="53" y="149"/>
      <point x="52" y="148" type="qcurve"/>
      <point x="48" y="144" type="line"/>
      <point x="51" y="139"/>
      <point x="56" y="128" type="qcurve"/>
      <point x="56" y="128"/>
      <point x="57" y="128" type="qcurve"/>
      <point x="68" y="128"/>
      <point x="89" y="140" type="qcurve"/>
      <point x="106" y="149"/>
      <point x="114" y="152" type="qcurve"/>
      <point x="123" y="154"/>
      <point x="153" y="175"/>
      <point x="160" y="178" type="qcurve"/>
      <point x="198" y="193"/>
      <point x="222" y="195" type="qcurve"/>
      <point x="220" y="205"/>
      <point x="219" y="212" type="qcurve"/>
      <point x="214" y="263"/>
      <point x="214" y="309" type="qcurve"/>
      <point x="214" y="403"/>
      <point x="235" y="481" type="qcurve"/>
      <point x="247" y="522" type="line"/>
      <point x="253" y="576" type="line"/>
      <point x="247" y="648" type="line"/>
      <point x="228" y="720" type="line"/>
      <point x="220" y="727"/>
      <point x="215" y="730" type="qcurve"/>
      <point x="215" y="713"/>
      <point x="205" y="703" type="qcurve"/>
      <point x="170" y="668" type="line"/>
      <point x="164" y="662"/>
      <point x="157" y="662" type="qcurve"/>
      <point x="151" y="662"/>
      <point x="150" y="664" type="qcurve"/>
      <point x="114" y="699" type="line"/>
      <point x="113" y="701"/>
    </contour>
    <contour>
      <point x="210" y="730" type="qcurve"/>
      <point x="210" y="731"/>
      <point x="210" y="734"/>
      <point x="210" y="735" type="qcurve"/>
      <point x="210" y="737"/>
      <point x="212" y="737" type="qcurve"/>
      <point x="213" y="737"/>
      <point x="213" y="737" type="qcurve"/>
      <point x="221" y="733"/>
      <point x="232" y="723" type="qcurve"/>
      <point x="233" y="723"/>
      <point x="233" y="722" type="qcurve"/>
      <point x="252" y="649" type="line"/>
      <point x="252" y="648" type="line"/>
      <point x="258" y="576" type="line"/>
      <point x="258" y="576"/>
      <point x="258" y="576" type="qcurve"/>
      <point x="252" y="522" type="line"/>
      <point x="252" y="522"/>
      <point x="252" y="521" type="qcurve"/>
      <point x="240" y="479" type="line"/>
      <point x="219" y="403"/>
      <point x="219" y="309" type="qcurve"/>
      <point x="219" y="263"/>
      <point x="224" y="212" type="qcurve"/>
      <point x="225" y="205"/>
      <point x="227" y="194" type="qcurve"/>
      <point x="227" y="193" type="line"/>
      <point x="227" y="191"/>
      <point x="225" y="191" type="qcurve"/>
      <point x="201" y="189"/>
      <point x="162" y="173" type="qcurve"/>
      <point x="155" y="170"/>
      <point x="125" y="149"/>
      <point x="116" y="147" type="qcurve"/>
      <point x="107" y="145"/>
      <point x="92" y="136" type="qcurve"/>
      <point x="69" y="123"/>
      <point x="57" y="123" type="qcurve"/>
      <point x="52" y="123"/>
      <point x="52" y="125" type="qcurve"/>
      <point x="47" y="138"/>
      <point x="42" y="142" type="qcurve"/>
      <point x="42" y="143"/>
      <point x="42" y="145"/>
      <point x="43" y="146" type="qcurve"/>
      <point x="47" y="150" type="line"/>
      <point x="15" y="182" type="line"/>
      <point x="-23" y="144" type="line"/>
      <point x="-19" y="138"/>
      <point x="-7" y="107"/>
      <point x="-1" y="101" type="qcurve"/>
      <point x="35" y="66" type="line"/>
      <point x="43" y="57"/>
      <point x="57" y="57" type="qcurve"/>
      <point x="68" y="57"/>
      <point x="89" y="69" type="qcurve"/>
      <point x="106" y="79"/>
      <point x="114" y="81" type="qcurve"/>
      <point x="123" y="83"/>
      <point x="153" y="104"/>
      <point x="160" y="107" type="qcurve"/>
      <point x="205" y="125"/>
      <point x="231" y="125" type="qcurve"/>
      <point x="237" y="125"/>
      <point x="246" y="120" type="qcurve"/>
      <point x="247" y="120"/>
      <point x="247" y="119" type="qcurve"/>
      <point x="251" y="108"/>
      <point x="253" y="107" type="qcurve"/>
      <point x="288" y="72" type="line"/>
      <point x="322" y="106" type="line"/>
      <point x="322" y="107"/>
      <point x="322" y="110" type="qcurve"/>
      <point x="322" y="116"/>
      <point x="310" y="128" type="qcurve"/>
      <point x="309" y="129"/>
      <point x="309" y="130" type="qcurve"/>
      <point x="293" y="181"/>
      <point x="290" y="212" type="qcurve"/>
      <point x="285" y="263"/>
      <point x="285" y="309" type="qcurve"/>
      <point x="285" y="403"/>
      <point x="306" y="481" type="qcurve"/>
      <point x="318" y="522" type="line"/>
      <point x="324" y="576" type="line"/>
      <point x="318" y="648" type="line"/>
      <point x="298" y="723" type="line"/>
      <point x="263" y="757" type="line"/>
      <point x="259" y="761"/>
      <point x="232" y="787"/>
      <point x="211" y="805"/>
      <point x="205" y="805" type="qcurve"/>
      <point x="185" y="805"/>
      <point x="171" y="791" type="qcurve"/>
      <point x="168" y="788"/>
      <point x="166" y="788"/>
      <point x="165" y="789" type="qcurve"/>
      <point x="143" y="811"/>
      <point x="83" y="811" type="qcurve"/>
      <point x="2" y="807" type="line"/>
      <point x="-31" y="774" type="line"/>
      <point x="2" y="741" type="line"/>
      <point x="83" y="745" type="line"/>
      <point x="104" y="745"/>
      <point x="122" y="742" type="qcurve"/>
      <point x="124" y="742"/>
      <point x="124" y="739" type="qcurve"/>
      <point x="124" y="739"/>
      <point x="124" y="738" type="qcurve"/>
      <point x="118" y="725"/>
      <point x="118" y="710" type="qcurve"/>
      <point x="118" y="709"/>
      <point x="118" y="705"/>
      <point x="118" y="704" type="qcurve"/>
      <point x="118" y="703"/>
      <point x="118" y="703" type="qcurve"/>
      <point x="153" y="668" type="line"/>
      <point x="154" y="667"/>
      <point x="157" y="667" type="qcurve"/>
      <point x="162" y="667"/>
      <point x="166" y="671" type="qcurve"/>
      <point x="202" y="707" type="line"/>
      <point x="210" y="715"/>
    </contour>
  </outline>
</glyph>
<glyph name="uni09A5" format="2">
  <advance width="578"/>
  <unicode hex="09A5"/>
  <outline>
    <contour>
      <point x="-26" y="401" type="qcurve"/>
      <point x="-26" y="402"/>
      <point x="-26" y="404"/>
      <point x="-26" y="404" type="qcurve"/>
      <point x="-26" y="407"/>
      <point x="-24" y="409" type="qcurve"/>
      <point x="12" y="444" type="line"/>
      <point x="17" y="450"/>
      <point x="28" y="450" type="qcurve"/>
      <point x="48" y="450"/>
      <point x="67" y="445" type="qcurve"/>
      <point x="104" y="458"/>
      <point x="138" y="487" type="qcurve"/>
      <point x="154" y="506"/>
      <point x="180" y="567"/>
      <point x="197" y="626"/>
      <point x="198" y="628" type="qcurve"/>
      <point x="198" y="686"/>
      <point x="173" y="726" type="qcurve"/>
      <point x="150" y="740"/>
      <point x="121" y="740" type="qcurve"/>
      <point x="122" y="737"/>
      <point x="122" y="734" type="qcurve"/>
      <point x="122" y="723"/>
      <point x="124" y="679"/>
      <point x="124" y="668" type="qcurve"/>
      <point x="124" y="658"/>
      <point x="119" y="653" type="qcurve"/>
      <point x="83" y="617" type="line"/>
      <point x="80" y="614"/>
      <point x="76" y="614" type="qcurve"/>
      <point x="64" y="614"/>
      <point x="55" y="623" type="qcurve"/>
      <point x="20" y="658" type="line"/>
      <point x="4" y="674"/>
      <point x="4" y="700" type="qcurve"/>
      <point x="4" y="721"/>
      <point x="15" y="740" type="qcurve"/>
      <point x="10" y="740"/>
      <point x="6" y="740" type="qcurve"/>
      <point x="0" y="740" type="line"/>
      <point x="-1" y="740"/>
      <point x="-2" y="741" type="qcurve"/>
      <point x="-37" y="776" type="line"/>
      <point x="-38" y="777"/>
      <point x="-38" y="779"/>
      <point x="-37" y="780" type="qcurve"/>
      <point x="-2" y="815" type="line"/>
      <point x="-1" y="816"/>
      <point x="0" y="816" type="qcurve"/>
      <point x="6" y="816" type="line"/>
      <point x="48" y="816"/>
      <point x="71" y="799" type="qcurve"/>
      <point x="93" y="816"/>
      <point x="120" y="816" type="qcurve"/>
      <point x="166" y="816"/>
      <point x="196" y="785" type="qcurve"/>
      <point x="232" y="750" type="line"/>
      <point x="274" y="708"/>
      <point x="274" y="628" type="qcurve"/>
      <point x="274" y="588"/>
      <point x="231" y="500"/>
      <point x="195" y="465" type="qcurve"/>
      <point x="160" y="429" type="line"/>
      <point x="149" y="418"/>
      <point x="137" y="408" type="qcurve"/>
      <point x="147" y="400"/>
      <point x="157" y="390" type="qcurve"/>
      <point x="192" y="355" type="line"/>
      <point x="226" y="320"/>
      <point x="291" y="220" type="qcurve"/>
      <point x="292" y="230"/>
      <point x="292" y="238" type="qcurve"/>
      <point x="292" y="239"/>
      <point x="292" y="243"/>
      <point x="292" y="244" type="qcurve"/>
      <point x="296" y="269" type="line"/>
      <point x="306" y="341"/>
      <point x="321" y="420"/>
      <point x="351" y="542"/>
      <point x="397" y="638"/>
      <point x="429" y="680" type="qcurve"/>
      <point x="431" y="682"/>
      <point x="471" y="731"/>
      <point x="509" y="778"/>
      <point x="509" y="778" type="qcurve"/>
      <point x="544" y="813" type="line"/>
      <point x="545" y="814"/>
      <point x="545" y="814" type="qcurve"/>
      <point x="579" y="824" type="line"/>
      <point x="580" y="824"/>
      <point x="580" y="824" type="qcurve"/>
      <point x="581" y="824"/>
      <point x="582" y="823" type="qcurve"/>
      <point x="617" y="788" type="line"/>
      <point x="618" y="787"/>
      <point x="618" y="785"/>
      <point x="617" y="784" type="qcurve"/>
      <point x="582" y="749" type="line"/>
      <point x="581" y="748"/>
      <point x="581" y="748" type="qcurve"/>
      <point x="556" y="741" type="line"/>
      <point x="507" y="681"/>
      <point x="503" y="676" type="qcurve"/>
      <point x="472" y="636"/>
      <point x="426" y="540"/>
      <point x="396" y="419"/>
      <point x="382" y="340"/>
      <point x="371" y="268" type="qcurve"/>
      <point x="368" y="244" type="line"/>
      <point x="368" y="241"/>
      <point x="368" y="238" type="qcurve"/>
      <point x="368" y="224"/>
      <point x="354" y="174"/>
      <point x="354" y="162" type="qcurve"/>
      <point x="354" y="161"/>
      <point x="354" y="161" type="qcurve"/>
      <point x="352" y="156"/>
      <point x="352" y="150" type="qcurve"/>
      <point x="352" y="140"/>
      <point x="357" y="131" type="qcurve"/>
      <point x="358" y="131"/>
      <point x="358" y="130" type="qcurve"/>
      <point x="358" y="127" type="line"/>
      <point x="362" y="123"/>
      <point x="367" y="118" type="qcurve"/>
      <point x="368" y="117"/>
      <point x="368" y="116" type="qcurve"/>
      <point x="366" y="78" type="line"/>
      <point x="366" y="77"/>
      <point x="365" y="76" type="qcurve"/>
      <point x="330" y="41" type="line"/>
      <point x="329" y="40"/>
      <point x="327" y="40"/>
      <point x="326" y="41" type="qcurve"/>
      <point x="291" y="76" type="line"/>
      <point x="290" y="77"/>
      <point x="290" y="78" type="qcurve"/>
      <point x="282" y="120" type="line"/>
      <point x="282" y="125" type="line"/>
      <point x="257" y="153"/>
      <point x="210" y="227" type="qcurve"/>
      <point x="162" y="301"/>
      <point x="135" y="332" type="qcurve"/>
      <point x="102" y="360"/>
      <point x="67" y="369" type="qcurve"/>
      <point x="41" y="360"/>
      <point x="16" y="360" type="qcurve"/>
      <point x="13" y="360"/>
      <point x="11" y="362" type="qcurve"/>
      <point x="-24" y="397" type="line"/>
      <point x="-26" y="399"/>
    </contour>
    <contour>
      <point x="119" y="668" type="qcurve"/>
      <point x="119" y="679"/>
      <point x="117" y="723"/>
      <point x="117" y="734" type="qcurve"/>
      <point x="117" y="738"/>
      <point x="116" y="742" type="qcurve"/>
      <point x="116" y="742"/>
      <point x="116" y="743" type="qcurve"/>
      <point x="116" y="745"/>
      <point x="120" y="745" type="qcurve"/>
      <point x="151" y="745"/>
      <point x="177" y="730" type="qcurve"/>
      <point x="177" y="730"/>
      <point x="177" y="729" type="qcurve"/>
      <point x="203" y="688"/>
      <point x="203" y="628" type="qcurve"/>
      <point x="203" y="556"/>
      <point x="142" y="483" type="qcurve"/>
      <point x="141" y="483" type="line"/>
      <point x="106" y="453"/>
      <point x="68" y="440" type="qcurve"/>
      <point x="68" y="440"/>
      <point x="67" y="440"/>
      <point x="66" y="440" type="qcurve"/>
      <point x="48" y="445"/>
      <point x="28" y="445" type="qcurve"/>
      <point x="19" y="445"/>
      <point x="15" y="441" type="qcurve"/>
      <point x="-20" y="406" type="line"/>
      <point x="-21" y="405"/>
      <point x="-21" y="404" type="qcurve"/>
      <point x="-21" y="404"/>
      <point x="-21" y="402"/>
      <point x="-21" y="401" type="qcurve"/>
      <point x="14" y="365" type="line"/>
      <point x="15" y="365"/>
      <point x="16" y="365" type="qcurve"/>
      <point x="41" y="365"/>
      <point x="66" y="374" type="qcurve"/>
      <point x="67" y="374"/>
      <point x="67" y="374"/>
      <point x="68" y="374" type="qcurve"/>
      <point x="105" y="364"/>
      <point x="139" y="336" type="qcurve"/>
      <point x="139" y="336"/>
      <point x="139" y="335" type="qcurve"/>
      <point x="166" y="304"/>
      <point x="214" y="230" type="qcurve"/>
      <point x="261" y="156"/>
      <point x="286" y="128" type="qcurve"/>
      <point x="287" y="127"/>
      <point x="287" y="126" type="qcurve"/>
      <point x="287" y="120" type="line"/>
      <point x="295" y="79" type="line"/>
      <point x="328" y="46" type="line"/>
      <point x="361" y="79" type="line"/>
      <point x="363" y="115" type="line"/>
      <point x="357" y="120"/>
      <point x="354" y="125" type="qcurve"/>
      <point x="353" y="125"/>
      <point x="353" y="126" type="qcurve"/>
      <point x="353" y="129" type="line"/>
      <point x="347" y="139"/>
      <point x="347" y="150" type="qcurve"/>
      <point x="347" y="157"/>
      <point x="349" y="163" type="qcurve"/>
      <point x="350" y="174"/>
      <point x="363" y="224"/>
      <point x="363" y="238" type="qcurve"/>
      <point x="363" y="239"/>
      <point x="363" y="243"/>
      <point x="363" y="244" type="qcurve"/>
      <point x="367" y="269" type="line"/>
      <point x="377" y="341"/>
      <point x="391" y="420"/>
      <point x="421" y="542"/>
      <point x="467" y="638"/>
      <point x="499" y="680" type="qcurve"/>
      <point x="503" y="684"/>
      <point x="553" y="745" type="qcurve"/>
      <point x="553" y="745"/>
      <point x="554" y="746" type="qcurve"/>
      <point x="579" y="753" type="line"/>
      <point x="612" y="786" type="line"/>
      <point x="579" y="819" type="line"/>
      <point x="547" y="809" type="line"/>
      <point x="513" y="774" type="line"/>
      <point x="437" y="683"/>
      <point x="433" y="676" type="qcurve"/>
      <point x="401" y="636"/>
      <point x="356" y="540"/>
      <point x="326" y="419"/>
      <point x="311" y="340"/>
      <point x="301" y="268" type="qcurve"/>
      <point x="297" y="244" type="line"/>
      <point x="297" y="241"/>
      <point x="297" y="238" type="qcurve"/>
      <point x="297" y="227"/>
      <point x="294" y="213" type="qcurve"/>
      <point x="294" y="211"/>
      <point x="292" y="211" type="qcurve"/>
      <point x="291" y="211"/>
      <point x="290" y="212" type="qcurve"/>
      <point x="287" y="216"/>
      <point x="269" y="245"/>
      <point x="263" y="254"/>
      <point x="246" y="280"/>
      <point x="237" y="292"/>
      <point x="221" y="314"/>
      <point x="210" y="327"/>
      <point x="195" y="344"/>
      <point x="188" y="351" type="qcurve"/>
      <point x="153" y="387" type="line"/>
      <point x="142" y="398"/>
      <point x="131" y="406" type="qcurve"/>
      <point x="130" y="407"/>
      <point x="130" y="409"/>
      <point x="131" y="410" type="qcurve"/>
      <point x="144" y="421"/>
      <point x="156" y="433" type="qcurve"/>
      <point x="192" y="468" type="line"/>
      <point x="227" y="503"/>
      <point x="269" y="589"/>
      <point x="269" y="628" type="qcurve"/>
      <point x="269" y="706"/>
      <point x="228" y="746" type="qcurve"/>
      <point x="193" y="782" type="line"/>
      <point x="163" y="811"/>
      <point x="120" y="811" type="qcurve"/>
      <point x="94" y="811"/>
      <point x="73" y="794" type="qcurve"/>
      <point x="72" y="793"/>
      <point x="70" y="793"/>
      <point x="69" y="794" type="qcurve"/>
      <point x="48" y="811"/>
      <point x="6" y="811" type="qcurve"/>
      <point x="1" y="811" type="line"/>
      <point x="-32" y="778" type="line"/>
      <point x="1" y="745" type="line"/>
      <point x="6" y="745" type="line"/>
      <point x="13" y="745"/>
      <point x="20" y="744" type="qcurve"/>
      <point x="22" y="744"/>
      <point x="22" y="742" type="qcurve"/>
      <point x="22" y="741"/>
      <point x="21" y="741" type="qcurve"/>
      <point x="9" y="722"/>
      <point x="9" y="700" type="qcurve"/>
      <point x="9" y="676"/>
      <point x="23" y="662" type="qcurve"/>
      <point x="59" y="627" type="line"/>
      <point x="66" y="619"/>
      <point x="76" y="619" type="qcurve"/>
      <point x="78" y="619"/>
      <point x="80" y="621" type="qcurve"/>
      <point x="115" y="656" type="line"/>
      <point x="119" y="660"/>
    </contour>
  </outline>
</glyph>
<glyph name="uni09AE" format="2">
  <advance width="793"/>
  <unicode hex="09AE"/>
  <outline>
    <contour>
      <point x="745" y="766" type="qcurve"/>
      <point x="744" y="766"/>
      <point x="742" y="766"/>
      <point x="741" y="766" type="qcurve"/>
      <point x="736" y="766"/>
      <point x="717" y="770"/>
      <point x="712" y="770" type="qcurve"/>
      <point x="708" y="770"/>
      <point x="705" y="769" type="qcurve"/>
      <point x="681" y="765"/>
      <point x="658" y="748" type="qcurve"/>
      <point x="613" y="691"/>
      <point x="558" y="501"/>
      <point x="554" y="438" type="qcurve"/>
      <point x="552" y="413"/>
      <point x="538" y="315"/>
      <point x="537" y="292" type="qcurve"/>
      <point x="563" y="279"/>
      <point x="581" y="262" type="qcurve"/>
      <point x="616" y="226" type="line"/>
      <point x="647" y="195"/>
      <point x="647" y="153" type="qcurve"/>
      <point x="647" y="142"/>
      <point x="628" y="97"/>
      <point x="618" y="87" type="qcurve"/>
      <point x="582" y="52" type="line"/>
      <point x="577" y="46"/>
      <point x="571" y="46" type="qcurve"/>
      <point x="570" y="46"/>
      <point x="569" y="46" type="qcurve"/>
      <point x="546" y="51"/>
      <point x="532" y="66" type="qcurve"/>
      <point x="497" y="101" type="line"/>
      <point x="487" y="110"/>
      <point x="475" y="140"/>
      <point x="471" y="158"/>
      <point x="464" y="208"/>
      <point x="463" y="213" type="qcurve"/>
      <point x="461" y="228"/>
      <point x="460" y="244" type="qcurve"/>
      <point x="432" y="251"/>
      <point x="396" y="256" type="qcurve"/>
      <point x="377" y="186"/>
      <point x="330" y="139" type="qcurve"/>
      <point x="295" y="104" type="line"/>
      <point x="264" y="73"/>
      <point x="226" y="58" type="qcurve"/>
      <point x="224" y="57"/>
      <point x="207" y="45"/>
      <point x="201" y="45" type="qcurve"/>
      <point x="197" y="45"/>
      <point x="194" y="46" type="qcurve"/>
      <point x="176" y="56"/>
      <point x="162" y="70" type="qcurve"/>
      <point x="126" y="105" type="line"/>
      <point x="96" y="136"/>
      <point x="88" y="183" type="qcurve"/>
      <point x="87" y="188"/>
      <point x="87" y="194" type="qcurve"/>
      <point x="87" y="222"/>
      <point x="110" y="245" type="qcurve"/>
      <point x="145" y="280" type="line"/>
      <point x="167" y="302"/>
      <point x="200" y="311" type="qcurve"/>
      <point x="209" y="313"/>
      <point x="268" y="330"/>
      <point x="310" y="339"/>
      <point x="331" y="339" type="qcurve"/>
      <point x="327" y="372"/>
      <point x="301" y="405" type="qcurve"/>
      <point x="272" y="429"/>
      <point x="209" y="468" type="qcurve"/>
      <point x="164" y="496"/>
      <point x="153" y="507" type="qcurve"/>
      <point x="118" y="543" type="line"/>
      <point x="109" y="551"/>
      <point x="109" y="558" type="qcurve"/>
      <point x="109" y="588"/>
      <point x="139" y="618" type="qcurve"/>
      <point x="174" y="653" type="line"/>
      <point x="220" y="699"/>
      <point x="337" y="743" type="qcurve"/>
      <point x="250" y="743" type="line"/>
      <point x="104" y="743"/>
      <point x="0" y="745" type="qcurve"/>
      <point x="-1" y="745"/>
      <point x="-2" y="746" type="qcurve"/>
      <point x="-37" y="781" type="line"/>
      <point x="-38" y="782"/>
      <point x="-38" y="784"/>
      <point x="-37" y="785" type="qcurve"/>
      <point x="-2" y="820" type="line"/>
      <point x="-1" y="821"/>
      <point x="0" y="821" type="qcurve"/>
      <point x="104" y="819"/>
      <point x="250" y="819" type="qcurve"/>
      <point x="516" y="819" type="line"/>
      <point x="567" y="819"/>
      <point x="609" y="819" type="qcurve"/>
      <point x="610" y="819"/>
      <point x="611" y="818" type="qcurve"/>
      <point x="629" y="800" type="line"/>
      <point x="637" y="807" type="line"/>
      <point x="669" y="839"/>
      <point x="705" y="845" type="qcurve"/>
      <point x="708" y="845"/>
      <point x="712" y="845" type="qcurve"/>
      <point x="717" y="845"/>
      <point x="736" y="842"/>
      <point x="741" y="842" type="qcurve"/>
      <point x="742" y="842"/>
      <point x="744" y="842"/>
      <point x="745" y="842" type="qcurve"/>
      <point x="759" y="842"/>
      <point x="787" y="830" type="qcurve"/>
      <point x="787" y="829"/>
      <point x="788" y="829" type="qcurve"/>
      <point x="823" y="794" type="line"/>
      <point x="823" y="793"/>
      <point x="824" y="793" type="qcurve"/>
      <point x="833" y="775" type="line"/>
      <point x="833" y="775"/>
      <point x="833" y="774" type="qcurve"/>
      <point x="833" y="773"/>
      <point x="832" y="772" type="qcurve"/>
      <point x="797" y="737" type="line"/>
      <point x="796" y="736"/>
      <point x="794" y="736"/>
      <point x="793" y="737" type="qcurve"/>
      <point x="770" y="760" type="line"/>
      <point x="752" y="766"/>
    </contour>
    <contour>
      <point x="712" y="775" type="qcurve"/>
      <point x="717" y="775"/>
      <point x="736" y="771"/>
      <point x="741" y="771" type="qcurve"/>
      <point x="742" y="771"/>
      <point x="744" y="771"/>
      <point x="745" y="771" type="qcurve"/>
      <point x="753" y="771"/>
      <point x="772" y="765" type="qcurve"/>
      <point x="773" y="764"/>
      <point x="773" y="764" type="qcurve"/>
      <point x="795" y="742" type="line"/>
      <point x="827" y="774" type="line"/>
      <point x="819" y="791" type="line"/>
      <point x="785" y="825" type="line"/>
      <point x="758" y="837"/>
      <point x="745" y="837" type="qcurve"/>
      <point x="744" y="837"/>
      <point x="742" y="837"/>
      <point x="741" y="837" type="qcurve"/>
      <point x="736" y="837"/>
      <point x="717" y="840"/>
      <point x="712" y="840" type="qcurve"/>
      <point x="708" y="840"/>
      <point x="705" y="840" type="qcurve"/>
      <point x="671" y="834"/>
      <point x="640" y="804" type="qcurve"/>
      <point x="631" y="794" type="line"/>
      <point x="630" y="794"/>
      <point x="628" y="794"/>
      <point x="628" y="794" type="qcurve"/>
      <point x="608" y="814" type="line"/>
      <point x="566" y="814"/>
      <point x="516" y="814" type="qcurve"/>
      <point x="250" y="814" type="line"/>
      <point x="105" y="814"/>
      <point x="1" y="816" type="qcurve"/>
      <point x="-32" y="783" type="line"/>
      <point x="1" y="750" type="line"/>
      <point x="105" y="748"/>
      <point x="250" y="748" type="qcurve"/>
      <point x="351" y="748" type="line"/>
      <point x="353" y="748"/>
      <point x="353" y="746" type="qcurve"/>
      <point x="353" y="744"/>
      <point x="352" y="743" type="qcurve"/>
      <point x="226" y="698"/>
      <point x="178" y="649" type="qcurve"/>
      <point x="142" y="614" type="line"/>
      <point x="114" y="586"/>
      <point x="114" y="558" type="qcurve"/>
      <point x="114" y="553"/>
      <point x="121" y="546" type="qcurve"/>
      <point x="157" y="511" type="line"/>
      <point x="167" y="500"/>
      <point x="212" y="472" type="qcurve"/>
      <point x="275" y="433"/>
      <point x="304" y="408" type="qcurve"/>
      <point x="333" y="373"/>
      <point x="336" y="337" type="qcurve"/>
      <point x="336" y="334"/>
      <point x="333" y="334" type="qcurve"/>
      <point x="333" y="334"/>
      <point x="332" y="334" type="qcurve"/>
      <point x="312" y="334"/>
      <point x="270" y="326"/>
      <point x="210" y="308"/>
      <point x="202" y="306" type="qcurve"/>
      <point x="170" y="298"/>
      <point x="149" y="277" type="qcurve"/>
      <point x="113" y="241" type="line"/>
      <point x="92" y="220"/>
      <point x="92" y="194" type="qcurve"/>
      <point x="92" y="189"/>
      <point x="93" y="183" type="qcurve"/>
      <point x="100" y="138"/>
      <point x="130" y="109" type="qcurve"/>
      <point x="165" y="73" type="line"/>
      <point x="179" y="60"/>
      <point x="196" y="51" type="qcurve"/>
      <point x="198" y="50"/>
      <point x="201" y="50" type="qcurve"/>
      <point x="205" y="50"/>
      <point x="222" y="62"/>
      <point x="224" y="63" type="qcurve"/>
      <point x="261" y="78"/>
      <point x="291" y="107" type="qcurve"/>
      <point x="327" y="143" type="line"/>
      <point x="373" y="189"/>
      <point x="392" y="260" type="qcurve"/>
      <point x="392" y="261"/>
      <point x="394" y="261" type="qcurve"/>
      <point x="395" y="261"/>
      <point x="395" y="261" type="qcurve"/>
      <point x="433" y="255"/>
      <point x="463" y="248" type="qcurve"/>
      <point x="465" y="248"/>
      <point x="465" y="246" type="qcurve"/>
      <point x="465" y="236"/>
      <point x="471" y="190" type="qcurve"/>
      <point x="474" y="168"/>
      <point x="479" y="144"/>
      <point x="491" y="114"/>
      <point x="500" y="105" type="qcurve"/>
      <point x="536" y="69" type="line"/>
      <point x="549" y="56"/>
      <point x="571" y="51" type="qcurve"/>
      <point x="575" y="51"/>
      <point x="579" y="55" type="qcurve"/>
      <point x="614" y="91" type="line"/>
      <point x="623" y="100"/>
      <point x="642" y="143"/>
      <point x="642" y="153" type="qcurve"/>
      <point x="642" y="193"/>
      <point x="612" y="223" type="qcurve"/>
      <point x="577" y="258" type="line"/>
      <point x="560" y="275"/>
      <point x="533" y="289" type="qcurve"/>
      <point x="531" y="289"/>
      <point x="531" y="291" type="qcurve"/>
      <point x="533" y="315"/>
      <point x="547" y="413"/>
      <point x="549" y="438" type="qcurve"/>
      <point x="553" y="502"/>
      <point x="609" y="693"/>
      <point x="655" y="752" type="qcurve"/>
      <point x="679" y="770"/>
      <point x="705" y="774" type="qcurve"/>
      <point x="708" y="775"/>
    </contour>
    <contour>
      <point x="402" y="330" type="qcurve"/>
      <point x="402" y="376"/>
      <point x="355" y="422" type="qcurve"/>
      <point x="320" y="457" type="line"/>
      <point x="306" y="472"/>
      <point x="268" y="501"/>
      <point x="240" y="519"/>
      <point x="193" y="549"/>
      <point x="181" y="557" type="qcurve"/>
      <point x="180" y="558"/>
      <point x="180" y="559" type="qcurve"/>
      <point x="180" y="579"/>
      <point x="194" y="600" type="qcurve"/>
      <point x="194" y="600"/>
      <point x="195" y="600" type="qcurve"/>
      <point x="300" y="680"/>
      <point x="577" y="741" type="qcurve"/>
      <point x="577" y="742" type="line"/>
      <point x="580" y="742"/>
      <point x="580" y="739" type="qcurve"/>
      <point x="580" y="738"/>
      <point x="580" y="738" type="qcurve"/>
      <point x="538" y="678"/>
      <point x="487" y="498"/>
      <point x="483" y="438" type="qcurve"/>
      <point x="482" y="414"/>
      <point x="469" y="326"/>
      <point x="468" y="315" type="qcurve"/>
      <point x="468" y="313"/>
      <point x="466" y="313" type="qcurve"/>
      <point x="465" y="313"/>
      <point x="465" y="313" type="qcurve"/>
      <point x="438" y="320"/>
      <point x="404" y="326" type="qcurve"/>
      <point x="402" y="326"/>
    </contour>
    <contour>
      <point x="185" y="560" type="qcurve"/>
      <point x="196" y="553"/>
      <point x="244" y="523"/>
      <point x="271" y="505"/>
      <point x="309" y="476"/>
      <point x="324" y="461" type="qcurve"/>
      <point x="359" y="426" type="line"/>
      <point x="407" y="378"/>
      <point x="407" y="330" type="qcurve"/>
      <point x="438" y="325"/>
      <point x="463" y="319" type="qcurve"/>
      <point x="464" y="327"/>
      <point x="477" y="415"/>
      <point x="478" y="438" type="qcurve"/>
      <point x="482" y="497"/>
      <point x="531" y="675"/>
      <point x="572" y="735" type="qcurve"/>
      <point x="301" y="675"/>
      <point x="198" y="596" type="qcurve"/>
      <point x="186" y="578"/>
    </contour>
    <contour>
      <point x="533" y="219" type="qcurve"/>
      <point x="533" y="222"/>
      <point x="535" y="222" type="qcurve"/>
      <point x="536" y="222"/>
      <point x="537" y="222" type="qcurve"/>
      <point x="549" y="215"/>
      <point x="560" y="208" type="qcurve"/>
      <point x="560" y="208"/>
      <point x="561" y="207" type="qcurve"/>
      <point x="576" y="183"/>
      <point x="576" y="153" type="qcurve"/>
      <point x="576" y="142"/>
      <point x="567" y="120" type="qcurve"/>
      <point x="566" y="118"/>
      <point x="564" y="118" type="qcurve"/>
      <point x="558" y="120"/>
      <point x="554" y="122" type="qcurve"/>
      <point x="553" y="122"/>
      <point x="552" y="123" type="qcurve"/>
      <point x="548" y="132"/>
      <point x="542" y="156"/>
      <point x="539" y="174"/>
      <point x="535" y="205"/>
      <point x="534" y="213" type="qcurve"/>
      <point x="533" y="219"/>
    </contour>
    <contour>
      <point x="539" y="215" type="qcurve"/>
      <point x="540" y="208"/>
      <point x="544" y="176"/>
      <point x="547" y="159"/>
      <point x="553" y="135"/>
      <point x="557" y="126" type="qcurve"/>
      <point x="560" y="125"/>
      <point x="563" y="124" type="qcurve"/>
      <point x="563" y="124"/>
      <point x="571" y="153" type="qcurve"/>
      <point x="571" y="181"/>
      <point x="557" y="204" type="qcurve"/>
      <point x="548" y="210"/>
    </contour>
    <contour>
      <point x="201" y="115" type="qcurve"/>
      <point x="197" y="115"/>
      <point x="194" y="117" type="qcurve"/>
      <point x="187" y="120"/>
      <point x="182" y="124" type="qcurve"/>
      <point x="181" y="125"/>
      <point x="181" y="125" type="qcurve"/>
      <point x="164" y="150"/>
      <point x="159" y="183" type="qcurve"/>
      <point x="158" y="188"/>
      <point x="158" y="194" type="qcurve"/>
      <point x="158" y="210"/>
      <point x="166" y="225" type="qcurve"/>
      <point x="166" y="226"/>
      <point x="167" y="226" type="qcurve"/>
      <point x="183" y="236"/>
      <point x="200" y="240" type="qcurve"/>
      <point x="210" y="243"/>
      <point x="265" y="259"/>
      <point x="306" y="268"/>
      <point x="325" y="268" type="qcurve"/>
      <point x="328" y="268"/>
      <point x="328" y="266" type="qcurve"/>
      <point x="328" y="266"/>
      <point x="328" y="265" type="qcurve"/>
      <point x="313" y="204"/>
      <point x="277" y="158" type="qcurve"/>
      <point x="276" y="158"/>
      <point x="276" y="158" type="qcurve"/>
      <point x="253" y="140"/>
      <point x="226" y="129" type="qcurve"/>
      <point x="224" y="128"/>
      <point x="207" y="115"/>
    </contour>
    <contour>
      <point x="201" y="120" type="qcurve"/>
      <point x="205" y="120"/>
      <point x="222" y="133"/>
      <point x="224" y="134" type="qcurve"/>
      <point x="250" y="144"/>
      <point x="273" y="162" type="qcurve"/>
      <point x="307" y="205"/>
      <point x="322" y="263" type="qcurve"/>
      <point x="304" y="262"/>
      <point x="264" y="253"/>
      <point x="212" y="238"/>
      <point x="202" y="235" type="qcurve"/>
      <point x="185" y="231"/>
      <point x="170" y="222" type="qcurve"/>
      <point x="163" y="209"/>
      <point x="163" y="194" type="qcurve"/>
      <point x="163" y="189"/>
      <point x="164" y="183" type="qcurve"/>
      <point x="169" y="152"/>
      <point x="185" y="128" type="qcurve"/>
      <point x="190" y="125"/>
      <point x="196" y="122" type="qcurve"/>
      <point x="198" y="120"/>
    </contour>
  </outline>
</glyph>
<glyph name="uni09BE" format="2">
  <advance width="358"/>
  <unicode hex="09BE"/>
  <outline>
    <contour>
      <point x="67" y="261" type="qcurve"/>
      <point x="67" y="263"/>
      <point x="67" y="274"/>
      <point x="67" y="277" type="qcurve"/>
      <point x="67" y="287"/>
      <point x="61" y="330"/>
      <point x="61" y="341" type="qcurve"/>
      <point x="65" y="381"/>
      <point x="92" y="463"/>
      <point x="131" y="559"/>
      <point x="139" y="585" type="qcurve"/>
      <point x="145" y="604"/>
      <point x="153" y="621" type="qcurve"/>
      <point x="138" y="654"/>
      <point x="114" y="683" type="qcurve"/>
      <point x="63" y="726"/>
      <point x="-1" y="744" type="qcurve"/>
      <point x="-1" y="744"/>
      <point x="-2" y="745" type="qcurve"/>
      <point x="-37" y="780" type="line"/>
      <point x="-38" y="781"/>
      <point x="-38" y="783"/>
      <point x="-37" y="784" type="qcurve"/>
      <point x="-2" y="819" type="line"/>
      <point x="-1" y="820"/>
      <point x="0" y="820" type="qcurve"/>
      <point x="0" y="820"/>
      <point x="1" y="820" type="qcurve"/>
      <point x="78" y="797"/>
      <point x="136" y="740" type="qcurve"/>
      <point x="171" y="705" type="line"/>
      <point x="181" y="694"/>
      <point x="190" y="683" type="qcurve"/>
      <point x="197" y="691"/>
      <point x="204" y="697" type="qcurve"/>
      <point x="239" y="733" type="line"/>
      <point x="259" y="753"/>
      <point x="308" y="786" type="qcurve"/>
      <point x="341" y="809"/>
      <point x="358" y="822" type="qcurve"/>
      <point x="359" y="823"/>
      <point x="361" y="823"/>
      <point x="362" y="822" type="qcurve"/>
      <point x="397" y="787" type="line"/>
      <point x="398" y="786"/>
      <point x="398" y="784"/>
      <point x="397" y="783" type="qcurve"/>
      <point x="362" y="748" type="line"/>
      <point x="343" y="734"/>
      <point x="311" y="711" type="qcurve"/>
      <point x="277" y="688"/>
      <point x="262" y="676" type="qcurve"/>
      <point x="243" y="652"/>
      <point x="229" y="621" type="qcurve"/>
      <point x="248" y="577"/>
      <point x="248" y="530" type="qcurve"/>
      <point x="248" y="514"/>
      <point x="254" y="444"/>
      <point x="254" y="428" type="qcurve"/>
      <point x="254" y="425"/>
      <point x="254" y="422" type="qcurve"/>
      <point x="254" y="408"/>
      <point x="251" y="379"/>
      <point x="246" y="344"/>
      <point x="245" y="335" type="qcurve"/>
      <point x="242" y="321"/>
      <point x="233" y="270"/>
      <point x="227" y="239"/>
      <point x="217" y="196"/>
      <point x="212" y="178" type="qcurve"/>
      <point x="210" y="174"/>
      <point x="198" y="129"/>
      <point x="189" y="98"/>
      <point x="187" y="96" type="qcurve"/>
      <point x="152" y="61" type="line"/>
      <point x="151" y="60"/>
      <point x="149" y="60"/>
      <point x="148" y="61" type="qcurve"/>
      <point x="113" y="96" type="line"/>
      <point x="113" y="96"/>
      <point x="112" y="97" type="qcurve"/>
      <point x="112" y="98"/>
      <point x="101" y="116"/>
      <point x="97" y="124"/>
      <point x="90" y="139"/>
      <point x="88" y="153"/>
      <point x="88" y="159" type="qcurve"/>
      <point x="88" y="163"/>
      <point x="88" y="167" type="qcurve"/>
      <point x="88" y="168"/>
      <point x="67" y="241"/>
    </contour>
    <contour>
      <point x="66" y="341" type="qcurve"/>
      <point x="66" y="330"/>
      <point x="72" y="288"/>
      <point x="72" y="277" type="qcurve"/>
      <point x="72" y="274"/>
      <point x="72" y="263"/>
      <point x="72" y="261" type="qcurve"/>
      <point x="72" y="241"/>
      <point x="93" y="170"/>
      <point x="93" y="168" type="qcurve"/>
      <point x="93" y="167" type="line"/>
      <point x="93" y="166"/>
      <point x="93" y="161"/>
      <point x="93" y="159" type="qcurve"/>
      <point x="93" y="154"/>
      <point x="95" y="143"/>
      <point x="98" y="134"/>
      <point x="104" y="121"/>
      <point x="108" y="115"/>
      <point x="115" y="102"/>
      <point x="117" y="100" type="qcurve"/>
      <point x="150" y="66" type="line"/>
      <point x="184" y="100" type="line"/>
      <point x="184" y="100"/>
      <point x="193" y="132"/>
      <point x="206" y="175"/>
      <point x="207" y="180" type="qcurve"/>
      <point x="212" y="198"/>
      <point x="222" y="240"/>
      <point x="228" y="271"/>
      <point x="237" y="322"/>
      <point x="240" y="335" type="qcurve"/>
      <point x="241" y="344"/>
      <point x="246" y="379"/>
      <point x="249" y="408"/>
      <point x="249" y="422" type="qcurve"/>
      <point x="249" y="425"/>
      <point x="249" y="428" type="qcurve"/>
      <point x="249" y="444"/>
      <point x="243" y="514"/>
      <point x="243" y="530" type="qcurve"/>
      <point x="243" y="576"/>
      <point x="224" y="620" type="qcurve"/>
      <point x="224" y="620"/>
      <point x="224" y="621"/>
      <point x="224" y="622" type="qcurve"/>
      <point x="238" y="655"/>
      <point x="258" y="679" type="qcurve"/>
      <point x="258" y="680" type="line"/>
      <point x="273" y="692"/>
      <point x="308" y="716" type="qcurve"/>
      <point x="340" y="738"/>
      <point x="358" y="752" type="qcurve"/>
      <point x="392" y="785" type="line"/>
      <point x="360" y="817" type="line"/>
      <point x="342" y="804"/>
      <point x="311" y="782" type="qcurve"/>
      <point x="262" y="749"/>
      <point x="242" y="729" type="qcurve"/>
      <point x="207" y="694" type="line"/>
      <point x="199" y="686"/>
      <point x="192" y="678" type="qcurve"/>
      <point x="192" y="677"/>
      <point x="189" y="677"/>
      <point x="189" y="678" type="qcurve"/>
      <point x="179" y="690"/>
      <point x="167" y="701" type="qcurve"/>
      <point x="132" y="737" type="line"/>
      <point x="76" y="792"/>
      <point x="1" y="815" type="qcurve"/>
      <point x="-32" y="782" type="line"/>
      <point x="1" y="749" type="line"/>
      <point x="65" y="730"/>
      <point x="117" y="687" type="qcurve"/>
      <point x="117" y="686" type="line"/>
      <point x="143" y="656"/>
      <point x="158" y="622" type="qcurve"/>
      <point x="158" y="621"/>
      <point x="158" y="620"/>
      <point x="158" y="620" type="qcurve"/>
      <point x="150" y="603"/>
      <point x="144" y="583" type="qcurve"/>
      <point x="136" y="558"/>
      <point x="97" y="462"/>
      <point x="70" y="380"/>
    </contour>
    <contour>
      <point x="138" y="277" type="qcurve"/>
      <point x="138" y="287"/>
      <point x="132" y="330"/>
      <point x="132" y="341" type="qcurve"/>
      <point x="137" y="399"/>
      <point x="174" y="491" type="qcurve"/>
      <point x="175" y="493"/>
      <point x="177" y="493" type="qcurve"/>
      <point x="179" y="493"/>
      <point x="180" y="481" type="qcurve"/>
      <point x="183" y="445"/>
      <point x="183" y="428" type="qcurve"/>
      <point x="183" y="425"/>
      <point x="183" y="422" type="qcurve"/>
      <point x="183" y="408"/>
      <point x="180" y="379"/>
      <point x="175" y="344"/>
      <point x="174" y="335" type="qcurve"/>
      <point x="151" y="217"/>
      <point x="150" y="214" type="qcurve"/>
      <point x="150" y="212"/>
      <point x="146" y="212"/>
      <point x="145" y="213" type="qcurve"/>
      <point x="138" y="241"/>
      <point x="138" y="261" type="qcurve"/>
      <point x="138" y="263"/>
      <point x="138" y="274"/>
    </contour>
    <contour>
      <point x="143" y="277" type="qcurve"/>
      <point x="143" y="274"/>
      <point x="143" y="263"/>
      <point x="143" y="261" type="qcurve"/>
      <point x="143" y="245"/>
      <point x="148" y="224" type="qcurve"/>
      <point x="153" y="246"/>
      <point x="168" y="330"/>
      <point x="169" y="335" type="qcurve"/>
      <point x="170" y="344"/>
      <point x="175" y="379"/>
      <point x="178" y="408"/>
      <point x="178" y="422" type="qcurve"/>
      <point x="178" y="425"/>
      <point x="178" y="428" type="qcurve"/>
      <point x="178" y="444"/>
      <point x="175" y="479" type="qcurve"/>
      <point x="142" y="396"/>
      <point x="137" y="341" type="qcurve"/>
      <point x="137" y="330"/>
      <point x="143" y="288"/>
    </contour>
  </outline>
</glyph>
<glyph name="uni09C4" format="2">
  <unicode hex="09C4"/>
  <outline>
    <contour>
      <point x="-280" y="-178" type="qcurve"/>
      <point x="-282" y="-178"/>
      <point x="-287" y="-177"/>
      <point x="-288" y="-177" type="qcurve"/>
      <point x="-291" y="-177"/>
      <point x="-293" y="-178" type="qcurve"/>
      <point x="-305" y="-184"/>
      <point x="-308" y="-184" type="qcurve"/>
      <point x="-309" y="-184"/>
      <point x="-310" y="-183" type="qcurve"/>
      <point x="-346" y="-148" type="line"/>
      <point x="-346" y="-147"/>
      <point x="-346" y="-146" type="qcurve"/>
      <point x="-346" y="-144"/>
      <point x="-345" y="-143" type="qcurve"/>
      <point x="-309" y="-107" type="line"/>
      <point x="-296" y="-94"/>
      <point x="-277" y="-85" type="qcurve"/>
      <point x="-262" y="-78"/>
      <point x="-207" y="-41"/>
      <point x="-192" y="-34" type="qcurve"/>
      <point x="-182" y="-24" type="line"/>
      <point x="-181" y="-23"/>
      <point x="-179" y="-23"/>
      <point x="-178" y="-24" type="qcurve"/>
      <point x="-143" y="-59" type="line"/>
      <point x="-142" y="-60"/>
      <point x="-142" y="-61" type="qcurve"/>
      <point x="-142" y="-67" type="line"/>
      <point x="-142" y="-68"/>
      <point x="-143" y="-68" type="qcurve"/>
      <point x="-178" y="-104" type="line"/>
      <point x="-179" y="-104"/>
      <point x="-179" y="-104" type="qcurve"/>
      <point x="-191" y="-109"/>
      <point x="-206" y="-118" type="qcurve"/>
      <point x="-155" y="-138"/>
      <point x="-110" y="-180" type="qcurve"/>
      <point x="-75" y="-215" type="line"/>
      <point x="-74" y="-216"/>
      <point x="-74" y="-218"/>
      <point x="-75" y="-218" type="qcurve"/>
      <point x="-110" y="-254" type="line"/>
      <point x="-111" y="-254"/>
      <point x="-113" y="-254"/>
      <point x="-114" y="-254" type="qcurve"/>
      <point x="-196" y="-178"/>
    </contour>
    <contour>
      <point x="-288" y="-172" type="qcurve"/>
      <point x="-287" y="-172"/>
      <point x="-282" y="-173"/>
      <point x="-280" y="-173" type="qcurve"/>
      <point x="-195" y="-173"/>
      <point x="-112" y="-249" type="qcurve"/>
      <point x="-80" y="-217" type="line"/>
      <point x="-114" y="-183" type="line"/>
      <point x="-160" y="-140"/>
      <point x="-212" y="-120" type="qcurve"/>
      <point x="-214" y="-120"/>
      <point x="-214" y="-118" type="qcurve"/>
      <point x="-214" y="-117"/>
      <point x="-213" y="-116" type="qcurve"/>
      <point x="-196" y="-106"/>
      <point x="-181" y="-100" type="qcurve"/>
      <point x="-147" y="-66" type="line"/>
      <point x="-147" y="-62" type="line"/>
      <point x="-180" y="-29" type="line"/>
      <point x="-189" y="-38" type="line"/>
      <point x="-189" y="-38"/>
      <point x="-190" y="-38" type="qcurve"/>
      <point x="-204" y="-46"/>
      <point x="-260" y="-82"/>
      <point x="-275" y="-90" type="qcurve"/>
      <point x="-293" y="-98"/>
      <point x="-306" y="-111" type="qcurve"/>
      <point x="-341" y="-146" type="line"/>
      <point x="-308" y="-179" type="line"/>
      <point x="-303" y="-177"/>
      <point x="-295" y="-174" type="qcurve"/>
      <point x="-292" y="-172"/>
    </contour>
    <contour>
      <point x="-60" y="94"/>
      <point x="-60" y="92"/>
      <point x="-61" y="91" type="qcurve"/>
      <point x="-96" y="56" type="line"/>
      <point x="-97" y="56" type="line"/>
      <point x="-185" y="-2"/>
      <point x="-212" y="-17" type="qcurve"/>
      <point x="-205" y="-19"/>
      <point x="-179" y="-28"/>
      <point x="-157" y="-36"/>
      <point x="-149" y="-39" type="qcurve"/>
      <point x="-118" y="-45" type="line"/>
      <point x="-117" y="-45"/>
      <point x="-116" y="-46" type="qcurve"/>
      <point x="-81" y="-81" type="line"/>
      <point x="-80" y="-82"/>
      <point x="-80" y="-84"/>
      <point x="-81" y="-85" type="qcurve"/>
      <point x="-116" y="-120" type="line"/>
      <point x="-117" y="-121"/>
      <point x="-118" y="-121" type="qcurve"/>
      <point x="-150" y="-115" type="line"/>
      <point x="-153" y="-114"/>
      <point x="-161" y="-111"/>
      <point x="-171" y="-107"/>
      <point x="-173" y="-107" type="qcurve"/>
      <point x="-292" y="-64"/>
      <point x="-301" y="-55" type="qcurve"/>
      <point x="-336" y="-20" type="line"/>
      <point x="-338" y="-19"/>
      <point x="-338" y="-17" type="qcurve"/>
      <point x="-338" y="-16"/>
      <point x="-337" y="-15" type="qcurve"/>
      <point x="-302" y="20" type="line"/>
      <point x="-301" y="21"/>
      <point x="-301" y="21" type="qcurve"/>
      <point x="-284" y="25"/>
      <point x="-246" y="41"/>
      <point x="-220" y="54"/>
      <point x="-173" y="83"/>
      <point x="-157" y="93"/>
      <point x="-102" y="129"/>
      <point x="-99" y="130" type="qcurve"/>
      <point x="-99" y="131"/>
      <point x="-98" y="131" type="qcurve"/>
      <point x="-97" y="131"/>
      <point x="-96" y="130" type="qcurve"/>
      <point x="-61" y="95" type="line"/>
    </contour>
    <contour>
      <point x="-220" y="-17" type="qcurve"/>
      <point x="-220" y="-16"/>
      <point x="-219" y="-15" type="qcurve"/>
      <point x="-190" y="0"/>
      <point x="-100" y="60" type="qcurve"/>
      <point x="-66" y="93" type="line"/>
      <point x="-98" y="125" type="line"/>
      <point x="-104" y="122"/>
      <point x="-145" y="95"/>
      <point x="-162" y="84"/>
      <point x="-199" y="60"/>
      <point x="-223" y="48"/>
      <point x="-255" y="31"/>
      <point x="-285" y="20"/>
      <point x="-299" y="16" type="qcurve"/>
      <point x="-332" y="-17" type="line"/>
      <point x="-298" y="-52" type="line"/>
      <point x="-294" y="-56"/>
      <point x="-246" y="-75"/>
      <point x="-169" y="-103"/>
      <point x="-160" y="-106" type="qcurve"/>
      <point x="-151" y="-110"/>
      <point x="-150" y="-110" type="qcurve"/>
      <point x="-119" y="-116" type="line"/>
      <point x="-86" y="-83" type="line"/>
      <point x="-119" y="-50" type="line"/>
      <point x="-150" y="-44" type="line"/>
      <point x="-151" y="-44" type="line"/>
      <point x="-162" y="-40"/>
      <point x="-212" y="-22"/>
      <point x="-218" y="-20" type="qcurve"/>
      <point x="-220" y="-19"/>
    </contour>
  </outline>
</glyph>
<glyph name="uni09DC" format="2">
  <advance width="492"/>
  <unicode hex="09DC"/>
  <outline>
    <contour>
      <point x="304" y="783"/>
      <point x="304" y="785"/>
      <point x="305" y="786" type="qcurve"/>
      <point x="340" y="821" type="line"/>
      <point x="341" y="822"/>
      <point x="342" y="822" type="qcurve"/>
      <point x="492" y="824"/>
      <point x="492" y="824" type="qcurve"/>
      <point x="493" y="824"/>
      <point x="494" y="823" type="qcurve"/>
      <point x="529" y="788" type="line"/>
      <point x="530" y="787"/>
      <point x="530" y="785"/>
      <point x="529" y="784" type="qcurve"/>
      <point x="494" y="749" type="line"/>
      <point x="493" y="748"/>
      <point x="492" y="748" type="qcurve"/>
      <point x="342" y="746"/>
      <point x="342" y="746" type="qcurve"/>
      <point x="341" y="746"/>
      <point x="340" y="747" type="qcurve"/>
      <point x="305" y="782" type="line"/>
    </contour>
    <contour>
      <point x="310" y="784" type="line"/>
      <point x="343" y="751" type="line"/>
      <point x="491" y="753" type="line"/>
      <point x="524" y="786" type="line"/>
      <point x="491" y="819" type="line"/>
      <point x="343" y="817" type="line"/>
    </contour>
    <contour>
      <point x="220" y="750" type="qcurve"/>
      <point x="93" y="746"/>
      <point x="58" y="746" type="qcurve"/>
      <point x="0" y="746" type="line"/>
      <point x="-1" y="746"/>
      <point x="-2" y="747" type="qcurve"/>
      <point x="-37" y="782" type="line"/>
      <point x="-38" y="783"/>
      <point x="-38" y="785"/>
      <point x="-37" y="786" type="qcurve"/>
      <point x="-2" y="821" type="line"/>
      <point x="-1" y="822"/>
      <point x="0" y="822" type="qcurve"/>
      <point x="58" y="822" type="line"/>
      <point x="100" y="822"/>
      <point x="272" y="828"/>
      <point x="314" y="828" type="qcurve"/>
      <point x="315" y="828"/>
      <point x="316" y="827" type="qcurve"/>
      <point x="351" y="792" type="line"/>
      <point x="352" y="791"/>
      <point x="352" y="789"/>
      <point x="351" y="788" type="qcurve"/>
      <point x="316" y="753" type="line"/>
      <point x="315" y="752"/>
      <point x="309" y="750" type="qcurve"/>
      <point x="291" y="743"/>
      <point x="282" y="734" type="qcurve"/>
      <point x="241" y="688"/>
      <point x="161" y="565"/>
      <point x="142" y="515" type="qcurve"/>
      <point x="153" y="523"/>
      <point x="220" y="590"/>
      <point x="276" y="626"/>
      <point x="304" y="626" type="qcurve"/>
      <point x="341" y="626"/>
      <point x="369" y="598" type="qcurve"/>
      <point x="404" y="563" type="line"/>
      <point x="426" y="541"/>
      <point x="450" y="472"/>
      <point x="450" y="440" type="qcurve"/>
      <point x="450" y="374"/>
      <point x="388" y="153"/>
      <point x="340" y="105" type="qcurve"/>
      <point x="304" y="69" type="line"/>
      <point x="277" y="42"/>
      <point x="248" y="42" type="qcurve"/>
      <point x="204" y="42"/>
      <point x="169" y="77" type="qcurve"/>
      <point x="133" y="113" type="line"/>
      <point x="115" y="131"/>
      <point x="55" y="226"/>
      <point x="37" y="244" type="qcurve"/>
      <point x="36" y="245"/>
      <point x="36" y="245" type="qcurve"/>
      <point x="-12" y="419" type="line"/>
      <point x="-12" y="420"/>
      <point x="-12" y="420" type="qcurve"/>
      <point x="-18" y="474" type="line"/>
      <point x="-18" y="475"/>
      <point x="-17" y="476" type="qcurve"/>
      <point x="18" y="511" type="line"/>
      <point x="19" y="512"/>
      <point x="21" y="512"/>
      <point x="22" y="511" type="qcurve"/>
      <point x="56" y="477" type="line"/>
      <point x="64" y="531"/>
      <point x="167" y="695"/>
    </contour>
    <contour>
      <point x="313" y="823" type="line"/>
      <point x="271" y="823"/>
      <point x="100" y="817"/>
      <point x="58" y="817" type="qcurve"/>
      <point x="1" y="817" type="line"/>
      <point x="-32" y="784" type="line"/>
      <point x="1" y="751" type="line"/>
      <point x="58" y="751" type="line"/>
      <point x="89" y="751"/>
      <point x="226" y="756" type="qcurve"/>
      <point x="229" y="756"/>
      <point x="229" y="753" type="qcurve"/>
      <point x="229" y="752"/>
      <point x="228" y="751" type="qcurve"/>
      <point x="172" y="694"/>
      <point x="60" y="513"/>
      <point x="59" y="462" type="qcurve"/>
      <point x="59" y="460"/>
      <point x="54" y="460"/>
      <point x="54" y="462" type="qcurve"/>
      <point x="53" y="473" type="line"/>
      <point x="20" y="506" type="line"/>
      <point x="-13" y="473" type="line"/>
      <point x="-7" y="420" type="line"/>
      <point x="41" y="247" type="line"/>
      <point x="59" y="229"/>
      <point x="118" y="135"/>
      <point x="137" y="116" type="qcurve"/>
      <point x="172" y="81" type="line"/>
      <point x="206" y="47"/>
      <point x="248" y="47" type="qcurve"/>
      <point x="275" y="47"/>
      <point x="301" y="73" type="qcurve"/>
      <point x="336" y="108" type="line"/>
      <point x="383" y="155"/>
      <point x="445" y="375"/>
      <point x="445" y="440" type="qcurve"/>
      <point x="445" y="471"/>
      <point x="422" y="538"/>
      <point x="400" y="559" type="qcurve"/>
      <point x="365" y="595" type="line"/>
      <point x="339" y="621"/>
      <point x="304" y="621" type="qcurve"/>
      <point x="276" y="621"/>
      <point x="217" y="581"/>
      <point x="153" y="516"/>
      <point x="138" y="506" type="qcurve"/>
      <point x="138" y="506"/>
      <point x="137" y="506" type="qcurve"/>
      <point x="135" y="506"/>
      <point x="135" y="508" type="qcurve"/>
      <point x="135" y="509"/>
      <point x="135" y="509" type="qcurve"/>
      <point x="152" y="560"/>
      <point x="235" y="689"/>
      <point x="279" y="737" type="qcurve"/>
      <point x="288" y="747"/>
      <point x="307" y="754" type="qcurve"/>
      <point x="312" y="756"/>
      <point x="312" y="756" type="qcurve"/>
      <point x="346" y="790" type="line"/>
    </contour>
    <contour>
      <point x="96" y="425" type="qcurve"/>
      <point x="97" y="425"/>
      <point x="99" y="425"/>
      <point x="100" y="425" type="qcurve"/>
      <point x="116" y="425"/>
      <point x="153" y="452"/>
      <point x="182" y="481" type="qcurve"/>
      <point x="206" y="505"/>
      <point x="234" y="529"/>
      <point x="283" y="555"/>
      <point x="304" y="555" type="qcurve"/>
      <point x="328" y="555"/>
      <point x="349" y="543" type="qcurve"/>
      <point x="350" y="543"/>
      <point x="350" y="542" type="qcurve"/>
      <point x="379" y="497"/>
      <point x="379" y="440" type="qcurve"/>
      <point x="379" y="381"/>
      <point x="328" y="182"/>
      <point x="287" y="125" type="qcurve"/>
      <point x="286" y="125"/>
      <point x="286" y="125" type="qcurve"/>
      <point x="267" y="113"/>
      <point x="248" y="113" type="qcurve"/>
      <point x="214" y="113"/>
      <point x="187" y="133" type="qcurve"/>
      <point x="186" y="133"/>
      <point x="186" y="133" type="qcurve"/>
      <point x="177" y="145"/>
      <point x="126" y="226"/>
      <point x="110" y="242" type="qcurve"/>
      <point x="107" y="245"/>
      <point x="107" y="245" type="qcurve"/>
      <point x="59" y="419" type="line"/>
      <point x="59" y="420"/>
      <point x="59" y="420" type="qcurve"/>
      <point x="55" y="459" type="line"/>
      <point x="55" y="461"/>
      <point x="57" y="461" type="qcurve"/>
      <point x="58" y="461"/>
      <point x="59" y="461" type="qcurve"/>
      <point x="61" y="458"/>
      <point x="68" y="451"/>
      <point x="84" y="436"/>
      <point x="94" y="425"/>
      <point x="94" y="425" type="qcurve"/>
      <point x="95" y="425"/>
    </contour>
    <contour>
      <point x="100" y="420" type="qcurve"/>
      <point x="99" y="420"/>
      <point x="97" y="420"/>
      <point x="96" y="420" type="qcurve"/>
      <point x="92" y="420"/>
      <point x="91" y="422" type="qcurve"/>
      <point x="60" y="452" type="line"/>
      <point x="64" y="420" type="line"/>
      <point x="112" y="247" type="line"/>
      <point x="129" y="230"/>
      <point x="181" y="148"/>
      <point x="190" y="136" type="qcurve"/>
      <point x="216" y="118"/>
      <point x="248" y="118" type="qcurve"/>
      <point x="266" y="118"/>
      <point x="283" y="129" type="qcurve"/>
      <point x="323" y="184"/>
      <point x="374" y="383"/>
      <point x="374" y="440" type="qcurve"/>
      <point x="374" y="495"/>
      <point x="346" y="539" type="qcurve"/>
      <point x="327" y="550"/>
      <point x="304" y="550" type="qcurve"/>
      <point x="284" y="550"/>
      <point x="238" y="525"/>
      <point x="209" y="501"/>
      <point x="185" y="477" type="qcurve"/>
      <point x="165" y="457"/>
      <point x="145" y="439"/>
      <point x="113" y="420"/>
    </contour>
    <contour>
      <point x="272" y="-81" type="qcurve"/>
      <point x="274" y="-81"/>
      <point x="280" y="-74"/>
      <point x="289" y="-61"/>
      <point x="290" y="-60" type="qcurve"/>
      <point x="291" y="-58"/>
      <point x="292" y="-57" type="qcurve"/>
      <point x="292" y="-57"/>
      <point x="291" y="-56"/>
      <point x="291" y="-56" type="qcurve"/>
      <point x="255" y="-30"/>
      <point x="240" y="-30" type="qcurve"/>
      <point x="230" y="-30"/>
      <point x="230" y="-46" type="qcurve"/>
      <point x="230" y="-55"/>
      <point x="233" y="-69" type="qcurve"/>
      <point x="233" y="-70"/>
      <point x="233" y="-70" type="qcurve"/>
      <point x="236" y="-70"/>
      <point x="239" y="-70" type="qcurve"/>
      <point x="251" y="-70"/>
      <point x="270" y="-81" type="qcurve"/>
      <point x="271" y="-81"/>
    </contour>
    <contour>
      <point x="291" y="-66" type="qcurve"/>
      <point x="291" y="-67"/>
      <point x="286" y="-75"/>
      <point x="284" y="-78"/>
      <point x="279" y="-84"/>
      <point x="274" y="-86"/>
      <point x="272" y="-86" type="qcurve"/>
      <point x="270" y="-86"/>
      <point x="268" y="-85" type="qcurve"/>
      <point x="249" y="-75"/>
      <point x="239" y="-75" type="qcurve"/>
      <point x="234" y="-75"/>
      <point x="231" y="-77" type="qcurve"/>
      <point x="230" y="-78"/>
      <point x="229" y="-78" type="qcurve"/>
      <point x="227" y="-78"/>
      <point x="227" y="-75" type="qcurve"/>
      <point x="227" y="-74"/>
      <point x="227" y="-73" type="qcurve"/>
      <point x="228" y="-72"/>
      <point x="228" y="-70" type="qcurve"/>
      <point x="225" y="-55"/>
      <point x="225" y="-46" type="qcurve"/>
      <point x="225" y="-25"/>
      <point x="240" y="-25" type="qcurve"/>
      <point x="253" y="-25"/>
      <point x="279" y="-42" type="qcurve"/>
      <point x="273" y="-33"/>
      <point x="273" y="-27" type="qcurve"/>
      <point x="273" y="-18"/>
      <point x="259" y="-4"/>
      <point x="250" y="-4" type="qcurve"/>
      <point x="245" y="-4"/>
      <point x="241" y="-6" type="qcurve"/>
      <point x="225" y="-14"/>
      <point x="216" y="-23" type="qcurve"/>
      <point x="205" y="-34"/>
      <point x="205" y="-48" type="qcurve"/>
      <point x="205" y="-72"/>
      <point x="242" y="-104"/>
      <point x="266" y="-104" type="qcurve"/>
      <point x="275" y="-104"/>
      <point x="290" y="-83"/>
    </contour>
  </outline>
</glyph>
<glyph name="uni09DF" format="2">
  <advance width="900"/>
  <unicode hex="09DF"/>
  <outline>
    <contour>
      <point x="87" y="827" type="line"/>
      <point x="103" y="827"/>
      <point x="130" y="827"/>
      <point x="135" y="827" type="qcurve"/>
      <point x="136" y="827" type="line"/>
      <point x="136" y="827"/>
      <point x="137" y="826" type="qcurve"/>
      <point x="141" y="822" type="line"/>
      <point x="155" y="820"/>
      <point x="180" y="818" type="qcurve"/>
      <point x="357" y="800" type="line"/>
      <point x="519" y="806" type="line"/>
      <point x="669" y="824" type="line"/>
      <point x="669" y="824"/>
      <point x="900" y="821" type="qcurve"/>
      <point x="901" y="821"/>
      <point x="902" y="820" type="qcurve"/>
      <point x="937" y="785" type="line"/>
      <point x="938" y="784"/>
      <point x="938" y="782"/>
      <point x="937" y="781" type="qcurve"/>
      <point x="902" y="746" type="line"/>
      <point x="901" y="745"/>
      <point x="900" y="745" type="qcurve"/>
      <point x="669" y="748" type="line"/>
      <point x="519" y="730" type="line"/>
      <point x="357" y="724"/>
      <point x="357" y="724" type="qcurve"/>
      <point x="180" y="742" type="line"/>
      <point x="130" y="747"/>
      <point x="125" y="751" type="qcurve"/>
      <point x="110" y="751"/>
      <point x="87" y="751" type="qcurve"/>
      <point x="69" y="751" type="line"/>
      <point x="68" y="751"/>
      <point x="67" y="752" type="qcurve"/>
      <point x="32" y="787" type="line"/>
      <point x="31" y="788"/>
      <point x="31" y="790"/>
      <point x="32" y="791" type="qcurve"/>
      <point x="67" y="826" type="line"/>
      <point x="68" y="827"/>
      <point x="69" y="827" type="qcurve"/>
    </contour>
    <contour>
      <point x="135" y="822" type="line"/>
      <point x="133" y="822"/>
      <point x="104" y="822"/>
      <point x="87" y="822" type="qcurve"/>
      <point x="70" y="822" type="line"/>
      <point x="37" y="789" type="line"/>
      <point x="70" y="756" type="line"/>
      <point x="87" y="756" type="line"/>
      <point x="111" y="756"/>
      <point x="126" y="756" type="qcurve"/>
      <point x="127" y="756"/>
      <point x="130" y="754" type="qcurve"/>
      <point x="141" y="751"/>
      <point x="180" y="747" type="qcurve"/>
      <point x="357" y="729" type="line"/>
      <point x="519" y="735" type="line"/>
      <point x="669" y="753" type="line"/>
      <point x="899" y="750" type="line"/>
      <point x="932" y="783" type="line"/>
      <point x="899" y="816" type="line"/>
      <point x="669" y="819" type="line"/>
      <point x="519" y="801" type="line"/>
      <point x="357" y="795"/>
      <point x="357" y="795" type="qcurve"/>
      <point x="180" y="813" type="line"/>
      <point x="153" y="815"/>
      <point x="140" y="817" type="qcurve"/>
      <point x="139" y="818"/>
      <point x="138" y="818" type="qcurve"/>
    </contour>
    <contour>
      <point x="60" y="289" type="qcurve"/>
      <point x="60" y="289"/>
      <point x="58" y="289"/>
      <point x="56" y="289"/>
      <point x="52" y="289"/>
      <point x="47" y="290"/>
      <point x="42" y="290"/>
      <point x="35" y="290"/>
      <point x="33" y="290" type="qcurve"/>
      <point x="5" y="290"/>
      <point x="2" y="287" type="qcurve"/>
      <point x="1" y="286"/>
      <point x="-1" y="286"/>
      <point x="-2" y="287" type="qcurve"/>
      <point x="-37" y="322" type="line"/>
      <point x="-38" y="323"/>
      <point x="-38" y="324" type="qcurve"/>
      <point x="-38" y="345"/>
      <point x="-18" y="365" type="qcurve"/>
      <point x="18" y="400" type="line"/>
      <point x="38" y="421"/>
      <point x="132" y="466"/>
      <point x="205" y="493"/>
      <point x="278" y="517" type="qcurve"/>
      <point x="453" y="577"/>
      <point x="502" y="609" type="qcurve"/>
      <point x="504" y="614"/>
      <point x="505" y="620" type="qcurve"/>
      <point x="469" y="646"/>
      <point x="363" y="681"/>
      <point x="287" y="693"/>
      <point x="217" y="701" type="qcurve"/>
      <point x="77" y="718"/>
      <point x="17" y="739" type="qcurve"/>
      <point x="17" y="739"/>
      <point x="16" y="740" type="qcurve"/>
      <point x="-19" y="775" type="line"/>
      <point x="-20" y="776"/>
      <point x="-20" y="778"/>
      <point x="-19" y="779" type="qcurve"/>
      <point x="16" y="814" type="line"/>
      <point x="17" y="815"/>
      <point x="18" y="815" type="qcurve"/>
      <point x="18" y="815"/>
      <point x="19" y="815" type="qcurve"/>
      <point x="78" y="793"/>
      <point x="218" y="777" type="qcurve"/>
      <point x="266" y="771"/>
      <point x="315" y="764"/>
      <point x="399" y="748"/>
      <point x="452" y="727"/>
      <point x="514" y="693"/>
      <point x="536" y="670" type="qcurve"/>
      <point x="572" y="634" type="line"/>
      <point x="576" y="630"/>
      <point x="580" y="626" type="qcurve"/>
      <point x="581" y="625"/>
      <point x="581" y="624" type="qcurve"/>
      <point x="581" y="606"/>
      <point x="563" y="588" type="qcurve"/>
      <point x="528" y="553" type="line"/>
      <point x="509" y="534"/>
      <point x="420" y="491"/>
      <point x="350" y="466"/>
      <point x="280" y="442" type="qcurve"/>
      <point x="132" y="392"/>
      <point x="79" y="364" type="qcurve"/>
      <point x="104" y="362"/>
      <point x="190" y="332"/>
      <point x="210" y="329" type="qcurve"/>
      <point x="263" y="321"/>
      <point x="454" y="249"/>
      <point x="518" y="204" type="qcurve"/>
      <point x="522" y="272"/>
      <point x="562" y="429"/>
      <point x="609" y="549"/>
      <point x="667" y="706"/>
      <point x="682" y="760" type="qcurve"/>
      <point x="682" y="760"/>
      <point x="683" y="761" type="qcurve"/>
      <point x="748" y="826" type="line"/>
      <point x="749" y="827"/>
      <point x="751" y="827"/>
      <point x="752" y="826" type="qcurve"/>
      <point x="787" y="791" type="line"/>
      <point x="788" y="790"/>
      <point x="788" y="788"/>
      <point x="787" y="787" type="qcurve"/>
      <point x="758" y="758" type="line"/>
      <point x="740" y="696"/>
      <point x="692" y="570" type="qcurve"/>
      <point x="660" y="484"/>
      <point x="626" y="387"/>
      <point x="593" y="234"/>
      <point x="593" y="168" type="qcurve"/>
      <point x="593" y="161"/>
      <point x="598" y="132" type="qcurve"/>
      <point x="632" y="96"/>
      <point x="632" y="63" type="qcurve"/>
      <point x="632" y="57"/>
      <point x="628" y="54" type="qcurve"/>
      <point x="593" y="18" type="line"/>
      <point x="591" y="16"/>
      <point x="588" y="16" type="qcurve"/>
      <point x="584" y="16"/>
      <point x="581" y="20" type="qcurve"/>
      <point x="546" y="55" type="line"/>
      <point x="534" y="67"/>
      <point x="523" y="123" type="qcurve"/>
      <point x="460" y="169"/>
      <point x="264" y="245"/>
      <point x="210" y="253" type="qcurve"/>
      <point x="192" y="256"/>
      <point x="94" y="289"/>
      <point x="65" y="289" type="qcurve"/>
      <point x="65" y="289"/>
      <point x="61" y="289"/>
    </contour>
    <contour>
      <point x="0" y="292" type="line"/>
      <point x="5" y="295"/>
      <point x="33" y="295" type="qcurve"/>
      <point x="46" y="295"/>
      <point x="60" y="294" type="qcurve"/>
      <point x="63" y="294"/>
      <point x="65" y="294" type="qcurve"/>
      <point x="95" y="294"/>
      <point x="193" y="261"/>
      <point x="210" y="258" type="qcurve"/>
      <point x="266" y="250"/>
      <point x="463" y="174"/>
      <point x="527" y="127" type="qcurve"/>
      <point x="528" y="126"/>
      <point x="528" y="125" type="qcurve"/>
      <point x="538" y="69"/>
      <point x="549" y="58" type="qcurve"/>
      <point x="584" y="23" type="line"/>
      <point x="586" y="21"/>
      <point x="588" y="21" type="qcurve"/>
      <point x="589" y="21"/>
      <point x="589" y="22" type="qcurve"/>
      <point x="624" y="57" type="line"/>
      <point x="627" y="60"/>
      <point x="627" y="63" type="qcurve"/>
      <point x="627" y="95"/>
      <point x="594" y="129" type="qcurve"/>
      <point x="593" y="129"/>
      <point x="593" y="130" type="qcurve"/>
      <point x="588" y="160"/>
      <point x="588" y="168" type="qcurve"/>
      <point x="588" y="234"/>
      <point x="621" y="389"/>
      <point x="655" y="486"/>
      <point x="688" y="572" type="qcurve"/>
      <point x="736" y="698"/>
      <point x="753" y="760" type="qcurve"/>
      <point x="753" y="760"/>
      <point x="754" y="761" type="qcurve"/>
      <point x="782" y="789" type="line"/>
      <point x="750" y="821" type="line"/>
      <point x="687" y="758" type="line"/>
      <point x="672" y="704"/>
      <point x="613" y="546"/>
      <point x="566" y="426"/>
      <point x="526" y="268"/>
      <point x="523" y="199" type="qcurve"/>
      <point x="523" y="197"/>
      <point x="520" y="197" type="qcurve"/>
      <point x="520" y="197"/>
      <point x="519" y="197" type="qcurve"/>
      <point x="455" y="242"/>
      <point x="263" y="316"/>
      <point x="210" y="324" type="qcurve"/>
      <point x="191" y="327"/>
      <point x="97" y="359"/>
      <point x="69" y="360" type="qcurve"/>
      <point x="67" y="360"/>
      <point x="67" y="362" type="qcurve"/>
      <point x="67" y="364"/>
      <point x="68" y="365" type="qcurve"/>
      <point x="122" y="394"/>
      <point x="278" y="447" type="qcurve"/>
      <point x="346" y="470"/>
      <point x="419" y="496"/>
      <point x="506" y="538"/>
      <point x="524" y="556" type="qcurve"/>
      <point x="559" y="591" type="line"/>
      <point x="575" y="607"/>
      <point x="576" y="623" type="qcurve"/>
      <point x="572" y="627"/>
      <point x="568" y="631" type="qcurve"/>
      <point x="533" y="666" type="line"/>
      <point x="505" y="694"/>
      <point x="435" y="732"/>
      <point x="341" y="755"/>
      <point x="277" y="765"/>
      <point x="217" y="772" type="qcurve"/>
      <point x="78" y="788"/>
      <point x="19" y="809" type="qcurve"/>
      <point x="-14" y="777" type="line"/>
      <point x="19" y="744" type="line"/>
      <point x="79" y="723"/>
      <point x="218" y="706" type="qcurve"/>
      <point x="271" y="700"/>
      <point x="328" y="691"/>
      <point x="415" y="673"/>
      <point x="481" y="644"/>
      <point x="509" y="623" type="qcurve"/>
      <point x="510" y="622"/>
      <point x="510" y="621" type="qcurve"/>
      <point x="510" y="615"/>
      <point x="506" y="606" type="qcurve"/>
      <point x="505" y="606"/>
      <point x="505" y="605" type="qcurve"/>
      <point x="482" y="590"/>
      <point x="400" y="555"/>
      <point x="339" y="533"/>
      <point x="280" y="513" type="qcurve"/>
      <point x="209" y="488"/>
      <point x="133" y="461"/>
      <point x="41" y="416"/>
      <point x="21" y="397" type="qcurve"/>
      <point x="-14" y="361" type="line"/>
      <point x="-32" y="343"/>
      <point x="-33" y="325" type="qcurve"/>
    </contour>
    <contour>
      <point x="375" y="46" type="qcurve"/>
      <point x="377" y="46"/>
      <point x="383" y="53"/>
      <point x="392" y="66"/>
      <point x="393" y="67" type="qcurve"/>
      <point x="394" y="69"/>
      <point x="395" y="70" type="qcurve"/>
      <point x="395" y="70"/>
      <point x="394" y="71"/>
      <point x="394" y="71" type="qcurve"/>
      <point x="358" y="97"/>
      <point x="343" y="97" type="qcurve"/>
      <point x="333" y="97"/>
      <point x="333" y="81" type="qcurve"/>
      <point x="333" y="72"/>
      <point x="336" y="58" type="qcurve"/>
      <point x="337" y="57"/>
      <point x="337" y="57" type="qcurve"/>
      <point x="336" y="57" type="line"/>
      <point x="339" y="57"/>
      <point x="342" y="57" type="qcurve"/>
      <point x="354" y="57"/>
      <point x="373" y="46" type="qcurve"/>
      <point x="374" y="46"/>
    </contour>
    <contour>
      <point x="394" y="61" type="qcurve"/>
      <point x="394" y="60"/>
      <point x="389" y="52"/>
      <point x="387" y="49"/>
      <point x="382" y="43"/>
      <point x="377" y="41"/>
      <point x="375" y="41" type="qcurve"/>
      <point x="373" y="41"/>
      <point x="371" y="42" type="qcurve"/>
      <point x="352" y="52"/>
      <point x="342" y="52" type="qcurve"/>
      <point x="337" y="52"/>
      <point x="334" y="50" type="qcurve"/>
      <point x="333" y="49"/>
      <point x="332" y="49" type="qcurve"/>
      <point x="330" y="49"/>
      <point x="330" y="52" type="qcurve"/>
      <point x="330" y="53"/>
      <point x="330" y="54" type="qcurve"/>
      <point x="331" y="55"/>
      <point x="331" y="57" type="qcurve"/>
      <point x="328" y="72"/>
      <point x="328" y="81" type="qcurve"/>
      <point x="328" y="102"/>
      <point x="343" y="102" type="qcurve"/>
      <point x="356" y="102"/>
      <point x="382" y="85" type="qcurve"/>
      <point x="375" y="94"/>
      <point x="375" y="100" type="qcurve"/>
      <point x="375" y="109"/>
      <point x="362" y="122"/>
      <point x="353" y="122" type="qcurve"/>
      <point x="348" y="122"/>
      <point x="344" y="121" type="qcurve"/>
      <point x="328" y="113"/>
      <point x="319" y="104" type="qcurve"/>
      <point x="309" y="93"/>
      <point x="309" y="79" type="qcurve"/>
      <point x="309" y="55"/>
      <point x="345" y="22"/>
      <point x="369" y="22" type="qcurve"/>
      <point x="378" y="22"/>
      <point x="393" y="44"/>
    </contour>
  </outline>
</glyph>
<glyph name="uni09E8" format="2">
  <advance width="445"/>
  <unicode hex="09E8"/>
  <outline>
    <contour>
      <point x="52" y="378" type="qcurve"/>
      <point x="52" y="388"/>
      <point x="59" y="395" type="qcurve"/>
      <point x="94" y="431" type="line"/>
      <point x="101" y="438"/>
      <point x="115" y="441" type="qcurve"/>
      <point x="194" y="458"/>
      <point x="237" y="472" type="qcurve"/>
      <point x="199" y="501"/>
      <point x="167" y="533" type="qcurve"/>
      <point x="132" y="568" type="line"/>
      <point x="47" y="653"/>
      <point x="12" y="753" type="qcurve"/>
      <point x="12" y="754"/>
      <point x="12" y="754" type="qcurve"/>
      <point x="12" y="755"/>
      <point x="13" y="756" type="qcurve"/>
      <point x="48" y="791" type="line"/>
      <point x="49" y="792"/>
      <point x="51" y="792"/>
      <point x="52" y="791" type="qcurve"/>
      <point x="87" y="756" type="line"/>
      <point x="88" y="755"/>
      <point x="88" y="755" type="qcurve"/>
      <point x="121" y="658"/>
      <point x="189" y="590" type="qcurve"/>
      <point x="230" y="548"/>
      <point x="309" y="501" type="qcurve"/>
      <point x="310" y="500"/>
      <point x="310" y="500" type="qcurve"/>
      <point x="345" y="465" type="line"/>
      <point x="346" y="464"/>
      <point x="346" y="462"/>
      <point x="345" y="461" type="qcurve"/>
      <point x="310" y="426" type="line"/>
      <point x="309" y="426"/>
      <point x="309" y="425" type="qcurve"/>
      <point x="248" y="394"/>
      <point x="129" y="368" type="qcurve"/>
      <point x="136" y="345"/>
      <point x="171" y="308" type="qcurve"/>
      <point x="205" y="276"/>
      <point x="278" y="215" type="qcurve"/>
      <point x="318" y="182"/>
      <point x="331" y="170" type="qcurve"/>
      <point x="396" y="122" type="line"/>
      <point x="397" y="122"/>
      <point x="397" y="122" type="qcurve"/>
      <point x="432" y="87" type="line"/>
      <point x="433" y="86"/>
      <point x="433" y="84"/>
      <point x="432" y="83" type="qcurve"/>
      <point x="397" y="48" type="line"/>
      <point x="396" y="47"/>
      <point x="395" y="47" type="qcurve"/>
      <point x="394" y="47"/>
      <point x="394" y="48" type="qcurve"/>
      <point x="328" y="96" type="line"/>
      <point x="327" y="96"/>
      <point x="327" y="96" type="qcurve"/>
      <point x="315" y="107"/>
      <point x="275" y="141" type="qcurve"/>
      <point x="186" y="214"/>
      <point x="148" y="252" type="qcurve"/>
      <point x="113" y="287" type="line"/>
      <point x="52" y="348"/>
    </contour>
    <contour>
      <point x="57" y="378" type="qcurve"/>
      <point x="57" y="350"/>
      <point x="116" y="291" type="qcurve"/>
      <point x="152" y="256" type="line"/>
      <point x="190" y="218"/>
      <point x="278" y="145" type="qcurve"/>
      <point x="318" y="111"/>
      <point x="331" y="100" type="qcurve"/>
      <point x="395" y="53" type="line"/>
      <point x="427" y="85" type="line"/>
      <point x="393" y="118" type="line"/>
      <point x="328" y="166" type="line"/>
      <point x="327" y="166"/>
      <point x="327" y="167" type="qcurve"/>
      <point x="315" y="178"/>
      <point x="275" y="211" type="qcurve"/>
      <point x="202" y="272"/>
      <point x="167" y="304" type="qcurve"/>
      <point x="130" y="345"/>
      <point x="124" y="369" type="qcurve"/>
      <point x="124" y="370"/>
      <point x="124" y="370" type="qcurve"/>
      <point x="124" y="372"/>
      <point x="126" y="372" type="qcurve"/>
      <point x="246" y="399"/>
      <point x="307" y="430" type="qcurve"/>
      <point x="340" y="463" type="line"/>
      <point x="306" y="496" type="line"/>
      <point x="227" y="544"/>
      <point x="185" y="586" type="qcurve"/>
      <point x="117" y="655"/>
      <point x="83" y="753" type="qcurve"/>
      <point x="50" y="786" type="line"/>
      <point x="18" y="753" type="line"/>
      <point x="52" y="655"/>
      <point x="135" y="572" type="qcurve"/>
      <point x="170" y="537" type="line"/>
      <point x="204" y="503"/>
      <point x="244" y="473" type="qcurve"/>
      <point x="245" y="473"/>
      <point x="245" y="471" type="qcurve"/>
      <point x="245" y="469"/>
      <point x="243" y="469" type="qcurve"/>
      <point x="199" y="454"/>
      <point x="117" y="436" type="qcurve"/>
      <point x="104" y="433"/>
      <point x="98" y="427" type="qcurve"/>
      <point x="62" y="392" type="line"/>
      <point x="57" y="386"/>
    </contour>
  </outline>
</glyph>
